<?xml version="1.0" encoding="UTF-8" standalone="no"?>
<svg
   width="242.66296mm"
   height="85.51519mm"
   viewBox="0 0 242.66296 85.51519"
   version="1.1"
   id="svg8"
   inkscape:version="1.1 (c4e8f9ed74, 2021-05-24)"
   sodipodi:docname="seqan-one-liner.svg"
   xmlns:inkscape="http://www.inkscape.org/namespaces/inkscape"
   xmlns:sodipodi="http://sodipodi.sourceforge.net/DTD/sodipodi-0.dtd"
   xmlns="http://www.w3.org/2000/svg"
   xmlns:svg="http://www.w3.org/2000/svg"
   xmlns:rdf="http://www.w3.org/1999/02/22-rdf-syntax-ns#"
   xmlns:cc="http://creativecommons.org/ns#"
   xmlns:dc="http://purl.org/dc/elements/1.1/">
  <defs
     id="defs2">
    <clipPath
       clipPathUnits="userSpaceOnUse"
       id="clipPath894">
      <path
         d="M 0,506 H 764 V 0 H 0 Z"
         id="path892" />
    </clipPath>
    <clipPath
       clipPathUnits="userSpaceOnUse"
       id="clipPath946">
      <path
         d="M 0,506 H 764 V 0 H 0 Z"
         id="path944" />
    </clipPath>
    <clipPath
       clipPathUnits="userSpaceOnUse"
       id="clipPath970">
      <path
         d="M 0,506 H 764 V 0 H 0 Z"
         id="path968" />
    </clipPath>
    <clipPath
       clipPathUnits="userSpaceOnUse"
       id="clipPath990">
      <path
         d="M 0,506 H 764 V 0 H 0 Z"
         id="path988" />
    </clipPath>
  </defs>
  <sodipodi:namedview
     id="base"
     pagecolor="#ffffff"
     bordercolor="#666666"
     borderopacity="1.0"
     inkscape:pageopacity="0.0"
     inkscape:pageshadow="2"
     inkscape:zoom="0.73111808"
     inkscape:cx="-66.336754"
     inkscape:cy="110.10533"
     inkscape:document-units="mm"
     inkscape:current-layer="layer1"
     inkscape:document-rotation="0"
     showgrid="false"
     fit-margin-top="0"
     fit-margin-left="0"
     fit-margin-right="0"
     fit-margin-bottom="0"
     inkscape:window-width="2556"
     inkscape:window-height="1384"
     inkscape:window-x="2560"
     inkscape:window-y="26"
     inkscape:window-maximized="1"
     inkscape:pagecheckerboard="0"
     width="400mm" />
  <metadata
     id="metadata5">
    <rdf:RDF>
      <cc:Work
         rdf:about="">
        <dc:format>image/svg+xml</dc:format>
        <dc:type
           rdf:resource="http://purl.org/dc/dcmitype/StillImage" />
      </cc:Work>
    </rdf:RDF>
  </metadata>
  <g
     inkscape:label="Layer 1"
     inkscape:groupmode="layer"
     id="layer1"
     transform="translate(-98.657043,-157.06301)">
    <g
       id="g13501"
       transform="matrix(0.5227928,0,0,0.52350041,75.54121,99.59114)"
       style="stroke-width:1.91151">
      <g
         id="dna"
         transform="matrix(0.35277777,0,0,-0.35277777,133.6425,277.85851)"
         style="stroke-width:1.91151">
        <g
           id="g890"
           clip-path="url(#clipPath894)"
           style="stroke-width:1.91151">
          <g
             id="g896"
             transform="translate(481.6826,53.8262)"
             style="stroke-width:1.91151">
            <path
               d="m 0,0 c 24.573,6.341 50.864,17.312 78.074,31.921 70.525,37.867 86.553,49.7 125.022,91.117 34.171,36.789 45.921,74.497 44.881,113.604 -1.069,40.234 -13.35,68.037 -41.675,99.401 -28.852,31.951 -67.321,46.151 -67.321,46.151 l 11.756,36.685 c 0,0 38.468,-14.201 67.321,-46.15 28.323,-31.365 40.604,-59.168 41.673,-99.404 1.04,-39.107 -10.71,-76.811 -44.88,-113.601 C 176.381,118.306 160.354,106.474 89.828,68.605 27.328,35.048 -46.95,27.187 -46.95,27.187 m 232.785,327.861 c 0,0 -74.114,-7.929 -136.614,-41.487 -70.526,-37.869 -86.554,-49.703 -125.024,-91.121 -34.169,-36.785 -45.918,-74.496 -44.88,-113.601 1.069,-40.234 13.352,-68.037 41.675,-99.402 28.851,-31.951 67.32,-46.151 67.32,-46.151 L 0.067,-0.03 c 0,0 -38.469,14.201 -67.32,46.15 -28.324,31.366 -40.606,59.17 -41.675,99.402 -1.039,39.107 10.711,76.817 44.88,113.604 38.469,41.416 54.498,53.251 125.023,91.118 26.192,14.061 54.2,25.589 78.195,31.941"
               style="fill:#231f20;fill-opacity:1;fill-rule:nonzero;stroke:#231f20;stroke-width:5.73453;stroke-linecap:butt;stroke-linejoin:miter;stroke-miterlimit:4;stroke-dasharray:none;stroke-opacity:1"
               id="path898" />
          </g>
          <g
             id="g900"
             transform="translate(670.8203,175.7402)"
             style="stroke-width:1.91151">
            <path
               d="m 0,0 -264.586,109.896 26.398,30.906 266.569,-110.72 z"
               style="fill:#ffffff;fill-opacity:0.75;fill-rule:nonzero;stroke:none;stroke-width:1.91151"
               id="path902" />
          </g>
          <g
             id="g904"
             transform="translate(670.8203,175.7402)"
             style="stroke-width:1.91151">
            <path
               d="m 0,0 -264.586,109.896 26.398,30.906 266.569,-110.72 z"
               style="fill:none;stroke:#231f20;stroke-width:5.73453;stroke-linecap:butt;stroke-linejoin:miter;stroke-miterlimit:4;stroke-dasharray:none;stroke-opacity:1"
               id="path906" />
          </g>
          <g
             id="g908"
             transform="translate(718.4316,235.8828)"
             style="stroke-width:1.91151">
            <path
               d="m 0,0 -254.367,105.594 39.272,25.619 229.654,-95.387 z"
               style="fill:#ffffff;fill-opacity:0.75;fill-rule:nonzero;stroke:none;stroke-width:1.91151"
               id="path910" />
          </g>
          <g
             id="g912"
             transform="translate(718.4316,235.8828)"
             style="stroke-width:1.91151">
            <path
               d="m 0,0 -254.367,105.594 39.272,25.619 229.654,-95.387 z"
               style="fill:none;stroke:#231f20;stroke-width:5.73453;stroke-linecap:butt;stroke-linejoin:miter;stroke-miterlimit:4;stroke-dasharray:none;stroke-opacity:1"
               id="path914" />
          </g>
          <g
             id="g916"
             transform="translate(727.7051,310.3706)"
             style="stroke-width:1.91151">
            <path
               d="M 0,0 -185.625,77.1 -133.29,97.232 4.895,39.837 Z"
               style="fill:#ffffff;fill-opacity:0.75;fill-rule:nonzero;stroke:none;stroke-width:1.91151"
               id="path918" />
          </g>
          <g
             id="g920"
             transform="translate(727.7051,310.3706)"
             style="stroke-width:1.91151">
            <path
               d="M 0,0 -185.625,77.1 -133.29,97.232 4.895,39.837 Z"
               style="fill:none;stroke:#231f20;stroke-width:5.73453;stroke-linecap:butt;stroke-linejoin:miter;stroke-miterlimit:4;stroke-dasharray:none;stroke-opacity:1"
               id="path922" />
          </g>
          <g
             id="g924"
             transform="translate(384.623,253.8262)"
             style="stroke-width:1.91151">
            <path
               d="m 0,0 254.367,-105.595 -39.271,-25.619 -229.655,95.388 z"
               style="fill:#ffffff;fill-opacity:0.75;fill-rule:nonzero;stroke:none;stroke-width:1.91151"
               id="path926" />
          </g>
          <g
             id="g928"
             transform="translate(384.623,253.8262)"
             style="stroke-width:1.91151">
            <path
               d="m 0,0 254.367,-105.595 -39.271,-25.619 -229.655,95.388 z"
               style="fill:none;stroke:#231f20;stroke-width:5.73453;stroke-linecap:butt;stroke-linejoin:miter;stroke-miterlimit:4;stroke-dasharray:none;stroke-opacity:1"
               id="path930" />
          </g>
          <g
             id="g932"
             transform="translate(375.3496,179.3389)"
             style="stroke-width:1.91151">
            <path
               d="M 0,0 185.065,-76.867 130.677,-96.147 -4.895,-39.838 Z"
               style="fill:#ffffff;fill-opacity:0.75;fill-rule:nonzero;stroke:none;stroke-width:1.91151"
               id="path934" />
          </g>
          <g
             id="g936"
             transform="translate(375.3496,179.3389)"
             style="stroke-width:1.91151">
            <path
               d="M 0,0 185.065,-76.867 130.677,-96.147 -4.895,-39.838 Z"
               style="fill:none;stroke:#231f20;stroke-width:5.73453;stroke-linecap:butt;stroke-linejoin:miter;stroke-miterlimit:4;stroke-dasharray:none;stroke-opacity:1"
               id="path938" />
          </g>
        </g>
      </g>
      <g
         id="upper-dna"
         transform="matrix(-0.35277777,0,0,0.35277777,266.98071,193.36746)"
         style="stroke-width:1.91151">
        <path
           d="m 0,0 c 0.85,1.52 1.658,3.042 2.424,4.565 11.859,23.607 15.264,47.647 14.61,72.242 -1.069,40.235 -13.35,68.039 -41.674,99.403 -28.852,31.949 -67.32,46.15 -67.32,46.15 l -11.756,-36.684 c 0,0 38.469,-14.2 67.32,-46.152 C -8.07,108.16 4.211,80.357 5.279,40.123 5.735,22.967 3.729,6.079 -1.551,-10.58"
           style="fill:#fbf084;fill-opacity:1;fill-rule:nonzero;stroke:#231f20;stroke-width:5.73453;stroke-linecap:butt;stroke-linejoin:miter;stroke-miterlimit:4;stroke-dasharray:none;stroke-opacity:1"
           id="path950" />
      </g>
      <g
         id="upper-dna-3"
         transform="matrix(0.35277777,0,0,-0.35277777,389.18752,189.54264)"
         style="stroke-width:1.91151">
        <path
           d="m 0,0 c 0.85,1.52 1.658,3.042 2.424,4.565 11.859,23.607 15.264,47.647 14.61,72.242 -1.069,40.235 -13.35,68.039 -41.674,99.403 -28.852,31.949 -67.32,46.15 -67.32,46.15 l -11.756,-36.684 c 0,0 38.469,-14.2 67.32,-46.152 C -8.07,108.16 4.211,80.357 5.279,40.123 5.735,22.967 3.729,6.079 -1.551,-10.58"
           style="fill:#fbf084;fill-opacity:1;fill-rule:nonzero;stroke:#231f20;stroke-width:5.73453;stroke-linecap:butt;stroke-linejoin:miter;stroke-miterlimit:4;stroke-dasharray:none;stroke-opacity:1"
           id="path950-6" />
      </g>
    </g>
    <g
       id="g13512"
       transform="translate(97.242363,-1.1899736)">
      <g
         aria-label="S"
         transform="matrix(0.35277777,0,0,0.35277777,-1.8404732,227.69119)"
         id="S"
         style="font-variant:normal;font-weight:bold;font-stretch:normal;font-size:200px;font-family:Verdana;-inkscape-font-specification:Verdana-Bold;writing-mode:lr-tb;fill:#fbf084;fill-opacity:1;fill-rule:nonzero;stroke:none;stroke-width:2.83465;stroke-miterlimit:4;stroke-dasharray:none">
        <path
           d="m 134.96094,-45.703125 q 0,21.484375 -18.26172,34.960937 -18.164064,13.3789068 -49.414064,13.3789068 -18.066406,0 -31.542969,-3.12500005 Q 22.363281,-3.7109375 10.644531,-8.59375 v -34.863281 h 4.101563 q 11.621093,9.277344 25.976562,14.257812 14.453125,4.980469 27.734375,4.980469 3.417969,0 8.984375,-0.585937 5.566406,-0.585938 9.082031,-1.953125 4.296875,-1.757813 7.03125,-4.394532 2.832032,-2.636718 2.832032,-7.8125 0,-4.785156 -4.101563,-8.203125 -4.003906,-3.515625 -11.816406,-5.371093 -8.203125,-1.953125 -17.382813,-3.613282 -9.082031,-1.757812 -17.089843,-4.394531 -18.359375,-5.957031 -26.464844,-16.113281 -8.007812,-10.253906 -8.007812,-25.390624 0,-20.3125 18.164062,-33.10547 18.261719,-12.89062 46.875,-12.89062 14.355469,0 28.32031,2.83203 14.0625,2.73437 24.31641,6.93359 v 33.49609 h -4.00391 q -8.78906,-7.03125 -21.58203,-11.71875 -12.695311,-4.78515 -25.976561,-4.78515 -4.6875,0 -9.375,0.68359 -4.589844,0.58594 -8.886719,2.34375 -3.808594,1.46484 -6.542969,4.49219 -2.734375,2.92969 -2.734375,6.73828 0,5.76172 4.394531,8.886719 4.394532,3.027344 16.601563,5.566406 8.007812,1.660156 15.332031,3.222656 7.421875,1.5625 15.917969,4.296875 16.69922,5.46875 24.60938,14.941407 8.00781,9.375 8.00781,24.414062 z"
           style="fill:#fbf084;fill-opacity:1;stroke:#231f20;stroke-width:2.83465;stroke-miterlimit:4;stroke-dasharray:none;stroke-opacity:1"
           id="path884" />
      </g>
      <g
         aria-label="E"
         transform="matrix(0.35277777,0,0,0.35277777,-13.172436,279.16676)"
         id="E"
         style="font-variant:normal;font-weight:bold;font-stretch:normal;font-size:200px;font-family:Verdana;-inkscape-font-specification:Verdana-Bold;writing-mode:lr-tb;fill:#fbf084;fill-opacity:1;fill-rule:nonzero;stroke:#000000;stroke-width:2.83465;stroke-miterlimit:4;stroke-dasharray:none;stroke-opacity:1">
        <path
           d="M 285.85211,-145.9147 H 180.67633 v -145.41016 h 105.17578 v 28.125 h -67.87109 v 25.09766 h 62.98828 v 28.125 h -62.98828 v 35.9375 h 67.87109 z"
           style="fill:#fbf084;fill-opacity:1;stroke:#000000;stroke-width:2.83465;stroke-miterlimit:4;stroke-dasharray:none;stroke-opacity:1"
           id="path887" />
      </g>
      <path
         d="m 118.72821,208.80523 c 0.0716,3.38781 0.44449,6.29311 0.90025,9.6103 l 0.14111,-0.0307 c 0.11607,-0.0268 0.23178,-0.0554 0.34714,-0.0857 0.57467,-0.15098 1.13912,-0.34395 1.69298,-0.57961 1.53917,-0.65299 2.88431,-1.66864 4.03366,-3.04659 1.28552,-1.55998 2.23908,-3.40113 2.85926,-5.52344 0.62019,-2.12196 0.93169,-4.61786 0.93169,-7.48665 0,-3.07587 -0.35701,-5.69136 -1.06962,-7.8493 -0.71226,-2.15689 -1.64254,-3.89996 -2.79048,-5.23099 -1.17263,-1.3769 -2.52306,-2.37455 -4.04988,-2.99473 -1.52824,-0.62019 -3.11856,-0.92993 -4.77238,-0.92993 -1.67817,0 -3.25755,0.29881 -4.73887,0.89571 -1.48272,0.59654 -2.84444,1.58326 -4.08446,2.9598 -1.14935,1.28447 -2.08491,3.05788 -2.80846,5.31777 -0.72496,2.26025 -1.08585,4.88245 -1.08585,7.86448 0,3.054 0.34995,5.65291 1.05128,7.7985 0.69991,2.1456 1.62489,3.89432 2.77389,5.24757 1.14935,1.35467 2.49308,2.35374 4.03225,2.99579 0.67451,0.28152 1.36419,0.50095 2.06975,0.65899 0.0399,0.009 0.0801,0.0176 0.12029,0.0261 l 0.19897,0.0406 c 0.35059,-7.65553 1.60188,-15.26787 5.2972,-22.20832 -0.98381,6.56171 -1.05681,6.55264 -1.04972,12.55035 z m 18.27454,27.49434 -2.16816,6.77478 c -0.60885,-0.14296 -9.39189,-2.70432 -17.00022,-14.83803 -7.27217,-0.3743 -16.03671,-2.64913 -20.326489,-7.05215 -4.688064,-4.81224 -7.031919,-11.30829 -7.031919,-19.48709 0,-8.24759 2.343855,-14.76551 7.031919,-19.55553 4.688069,-4.79002 11.158009,-7.18502 19.408429,-7.18502 8.22677,0 14.69672,2.395 19.40807,7.18502 4.7117,4.79002 7.06825,11.30794 7.06825,19.55553 0,8.1788 -2.34562,14.67485 -7.03368,19.48709 -3.46569,3.55741 -6.01834,5.47839 -11.44371,6.40585 9.33177,7.4281 4.96121,4.24167 12.08751,8.70955 z"
         style="fill:#fbf084;fill-opacity:1;stroke:#000000;stroke-width:1.05833;stroke-linecap:butt;stroke-linejoin:miter;stroke-miterlimit:4;stroke-dasharray:none;stroke-opacity:1"
         id="Q-7"
         sodipodi:nodetypes="cccccccssccscccsccccccccccccssscsccc" />
      <g
         aria-label="A"
         transform="matrix(0.35277777,0,0,0.35277777,140.15015,227.69257)"
         id="A"
         style="font-variant:normal;font-weight:bold;font-stretch:normal;font-size:200px;font-family:Verdana;-inkscape-font-specification:Verdana-Bold;writing-mode:lr-tb;fill:#231f20;fill-opacity:1;fill-rule:nonzero;stroke:#231f20;stroke-width:2.83465;stroke-miterlimit:4;stroke-dasharray:none;stroke-opacity:1">
        <path
           d="m 152.92969,0 h -38.76953 l -10.0586,-29.394531 H 50.195312 L 40.136719,0 H 2.34375 L 56.054687,-145.41016 H 99.21875 Z M 95.019531,-56.054687 77.148437,-108.20313 59.277344,-56.054687 Z"
           style="stroke:#231f20"
           id="path893" />
      </g>
      <g
         aria-label="N"
         transform="matrix(0.35277777,0,0,0.35277777,-13.172436,279.16676)"
         id="N"
         style="font-variant:normal;font-weight:bold;font-stretch:normal;font-size:200px;font-family:Verdana;-inkscape-font-specification:Verdana-Bold;writing-mode:lr-tb;fill:#231f20;fill-opacity:1;fill-rule:nonzero;stroke:#00ffff;stroke-width:2.83465;stroke-miterlimit:4;stroke-dasharray:none;stroke-opacity:1">
        <path
           d="m 727.79553,-145.91415 h -36.13281 l -61.71875,-99.80469 v 99.80469 h -34.375 v -145.41016 h 44.82422 l 53.02734,83.30078 v -83.30078 h 34.375 z"
           style="stroke:#231f20;stroke-width:2.83465"
           id="path903" />
      </g>
    </g>
  </g>
</svg>
