<?xml version="1.0" encoding="utf-8"?>
<!-- Generator: Adobe Illustrator 14.0.0, SVG Export Plug-In . SVG Version: 6.00 Build 43363)  -->
<!DOCTYPE svg PUBLIC "-//W3C//DTD SVG 1.1//EN" "http://www.w3.org/Graphics/SVG/1.1/DTD/svg11.dtd">
<svg version="1.1" id="Layer_1" xmlns="http://www.w3.org/2000/svg" xmlns:xlink="http://www.w3.org/1999/xlink" x="0px" y="0px"
	 width="520px" height="380px" xml:space="preserve">
<path stroke="#000000" stroke-width="2" d="M409.183,163.445c0,0-39.56,4.232-72.921,22.145
	c-37.645,20.213-46.2,26.53-66.734,48.637c-18.238,19.635-24.51,39.764-23.956,60.638c0.57,21.476,7.127,36.316,22.245,53.059
	c15.4,17.054,35.934,24.634,35.934,24.634l6.275-19.581c0,0-20.936-6.598-36.335-23.651c-15.119-16.743-21.274-32.565-21.845-54.041
	c-0.554-20.874,5.717-41.003,23.956-60.639c20.534-22.107,29.09-28.424,66.733-48.637c13.981-7.505,28.932-13.659,41.738-17.049
	 M309.988,352.96c13.117-3.384,27.15-9.24,41.675-17.039c37.644-20.212,46.199-26.528,66.733-48.636
	c18.239-19.637,24.511-39.765,23.956-60.639c-0.57-21.476-7.126-36.316-22.245-53.058c-15.4-17.055-35.934-24.635-35.934-24.635
	l6.275-19.581c0,0,20.532,7.58,35.934,24.634c15.117,16.741,21.674,31.583,22.244,53.059c0.555,20.875-5.717,41-23.957,60.637
	c-20.533,22.108-29.088,28.424-66.732,48.637c-33.361,17.912-73.839,22.236-73.839,22.236"/>
<polygon fill="#FFFFFF" stroke="#000000" stroke-width="2" points="410.945,287.886 269.716,229.226 283.807,212.729
	426.095,271.829 "/>
<polygon fill="#FFFFFF" stroke="#000000" stroke-width="2" points="436.359,255.783 300.585,199.419 321.547,185.745
	444.131,236.66 "/>
<polygon fill="#FFFFFF" stroke="#000000" stroke-width="2" points="441.309,216.023 342.228,174.87 370.162,164.124
	443.922,194.759 "/>
<polygon fill="#FFFFFF" stroke="#000000" stroke-width="2" points="258.181,246.206 393.955,302.569 372.994,316.244
	250.41,265.329 "/>
<polygon fill="#FFFFFF" stroke="#000000" stroke-width="2" points="252.072,285.377 352.014,326.995 322.983,337.286
	250.619,307.229 "/>
<path fill="#FEE400" stroke="#000000" stroke-width="2" d="M142.064,279.41c0,7.646-3.241,13.858-9.722,18.635
	c-6.481,4.779-15.282,7.167-26.402,7.167c-6.43,0-12.033-0.565-16.811-1.694c-4.778-1.129-9.252-2.563-13.422-4.301v-18.609h2.189
	c4.135,3.302,8.765,5.838,13.892,7.61c5.125,1.772,10.051,2.659,14.778,2.659c1.216,0,2.815-0.104,4.795-0.313
	c1.981-0.208,3.597-0.556,4.848-1.042c1.529-0.625,2.789-1.407,3.779-2.346s1.486-2.328,1.486-4.17c0-1.703-0.722-3.171-2.164-4.405
	c-1.442-1.233-3.553-2.18-6.333-2.841c-2.919-0.695-6.004-1.346-9.252-1.955c-3.25-0.607-6.299-1.381-9.148-2.319
	c-6.534-2.12-11.233-4.995-14.1-8.627c-2.867-3.631-4.3-8.14-4.3-13.527c0-7.228,3.24-13.127,9.721-17.697
	c6.481-4.569,14.813-6.855,24.995-6.855c5.108,0,10.156,0.496,15.143,1.486c4.986,0.99,9.304,2.233,12.953,3.727v17.879h-2.137
	c-3.127-2.502-6.958-4.595-11.494-6.281c-4.535-1.685-9.166-2.528-13.892-2.528c-1.668,0-3.328,0.113-4.978,0.339
	c-1.651,0.227-3.241,0.652-4.77,1.277c-1.355,0.521-2.52,1.312-3.493,2.372c-0.973,1.061-1.459,2.268-1.459,3.623
	c0,2.051,0.782,3.623,2.346,4.718s4.517,2.094,8.861,2.997c2.849,0.591,5.586,1.165,8.21,1.72c2.624,0.557,5.447,1.321,8.471,2.293
	c5.942,1.947,10.329,4.596,13.162,7.949C140.647,269.707,142.064,274.059,142.064,279.41z"/>
<path fill="#FEE400" stroke="#000000" stroke-width="2" d="M205.508,303.806h-56.14v-77.616h56.14v15.012H169.28v13.396h33.621
	v15.013H169.28v19.182h36.228V303.806z"/>
<path fill="#FEE400" stroke="#000000" stroke-width="2" d="M257.587,304.598c3.6,8.487,8.671,15.578,16.23,23.949
	c15.4,17.054,35.934,24.634,35.934,24.634l-6.274,19.581c0,0-20.534-7.58-35.934-24.634c-12.666-14.026-19.322-26.718-21.483-43.094
	c-11.003-0.567-19.751-4.181-26.242-10.843c-7.093-7.281-10.64-17.11-10.64-29.485c0-12.479,3.546-22.341,10.64-29.589
	c7.094-7.248,16.883-10.872,29.366-10.872c12.448,0,22.237,3.624,29.366,10.872s10.694,17.11,10.694,29.589
	c0,12.375-3.549,22.204-10.642,29.485c-5.244,5.382-12.661,9.011-20.87,10.415L257.587,304.598z M255.441,248.443
	c-2.818,8.892-3.889,17.907-3.646,27.064c0.137,5.177,0.623,9.969,1.492,14.494l0.214-0.046c0.175-0.041,0.351-0.084,0.525-0.13
	c0.87-0.229,1.723-0.52,2.562-0.877c2.329-0.988,4.364-2.525,6.103-4.61c1.945-2.36,3.388-5.146,4.327-8.357
	c0.938-3.211,1.409-6.987,1.409-11.328c0-4.654-0.54-8.611-1.618-11.876c-1.078-3.263-2.485-5.9-4.222-7.915
	c-1.774-2.083-3.818-3.593-6.128-4.531c-2.312-0.938-4.718-1.408-7.22-1.408c-2.54,0-4.929,0.453-7.17,1.355
	c-2.244,0.903-4.304,2.396-6.18,4.479c-1.739,1.943-3.155,4.627-4.25,8.046c-1.097,3.419-1.643,7.387-1.643,11.899
	c0,4.62,0.53,8.553,1.591,11.799c1.059,3.246,2.458,5.892,4.197,7.94c1.739,2.049,3.772,3.561,6.101,4.533
	c1.02,0.426,2.064,0.758,3.131,0.998c0.061,0.013,0.121,0.026,0.182,0.04l0.301,0.061c0.212-11.386,2.3-22.554,7.821-33.545"/>
<path fill="#FEE400" stroke="#000000" stroke-width="2" d="M439.534,248.063c0.454-0.811,0.886-1.624,1.294-2.437
	c6.33-12.601,8.147-25.433,7.799-38.561c-0.57-21.477-7.127-36.318-22.244-53.059c-15.401-17.054-35.934-24.634-35.934-24.634
	l-6.275,19.581c0,0,20.533,7.58,35.934,24.635c15.119,16.741,21.675,31.582,22.245,53.058c0.243,9.158-0.827,18.172-3.646,27.064"/>
<path stroke="#000000" stroke-width="2" d="M366.496,303.808h-20.672l-5.406-15.69h-28.723l-5.407,15.69h-20.171l28.669-77.616
	h23.04L366.496,303.808z M335.605,273.887l-9.549-27.806l-9.551,27.806H335.605z"/>
<path stroke="#000000" stroke-width="2" d="M441.396,303.808H422.11l-32.944-53.273v53.273h-18.348v-77.616h23.926l28.305,44.464
	v-44.464h18.348V303.808z"/>
</svg>
