<?xml version="1.0" encoding="UTF-8" standalone="no"?>
<svg
   xmlns:dc="http://purl.org/dc/elements/1.1/"
   xmlns:cc="http://creativecommons.org/ns#"
   xmlns:rdf="http://www.w3.org/1999/02/22-rdf-syntax-ns#"
   xmlns:svg="http://www.w3.org/2000/svg"
   xmlns="http://www.w3.org/2000/svg"
   xmlns:sodipodi="http://sodipodi.sourceforge.net/DTD/sodipodi-0.dtd"
   xmlns:inkscape="http://www.inkscape.org/namespaces/inkscape"
   id="ELIXIR_login_Image"
   data-name="ELIXIR_login Image"
   viewBox="0 0 102.12081 76.885622"
   version="1.1"
   sodipodi:docname="eilixir.svg"
   inkscape:version="0.92.4 5da689c313, 2019-01-14"
   width="102.12081"
   height="76.88562">
  <metadata
     id="metadata34">
    <rdf:RDF>
      <cc:Work
         rdf:about="">
        <dc:format>image/svg+xml</dc:format>
        <dc:type
           rdf:resource="http://purl.org/dc/dcmitype/StillImage" />
        <dc:title>log-in-orangeArtboard 1</dc:title>
      </cc:Work>
    </rdf:RDF>
  </metadata>
  <sodipodi:namedview
     pagecolor="#ffffff"
     bordercolor="#666666"
     borderopacity="1"
     objecttolerance="10"
     gridtolerance="10"
     guidetolerance="10"
     inkscape:pageopacity="0"
     inkscape:pageshadow="2"
     inkscape:window-width="2556"
     inkscape:window-height="678"
     id="namedview32"
     showgrid="false"
     inkscape:zoom="3.6696825"
     inkscape:cx="87.304231"
     inkscape:cy="24.538583"
     inkscape:window-x="5120"
     inkscape:window-y="732"
     inkscape:window-maximized="0"
     inkscape:current-layer="ELIXIR_login_Image"
     fit-margin-top="0"
     fit-margin-left="0"
     fit-margin-right="0"
     fit-margin-bottom="0" />
  <defs
     id="defs7">
    <style
       id="style2">.cls-1{fill:none;}.cls-2{fill:#f47d20;opacity:0.89;}.cls-3{clip-path:url(#clip-path);}.cls-4,.cls-6{fill:#fff;}.cls-5{fill:#544f4c;}.cls-6{font-size:27px;font-family:SerpentineSansICGBoldOblique, Serpentine Sans ICG;font-weight:700;}</style>
    <clipPath
       id="clip-path">
      <rect
         class="cls-1"
         x="17.02"
         y="26.450001"
         width="102.1"
         height="76.900002"
         id="rect4"
         style="fill:none" />
    </clipPath>
  </defs>
  <title
     id="title9">log-in-orangeArtboard 1</title>
  <g
     class="cls-3"
     clip-path="url(#clip-path)"
     id="g15"
     style="fill:#f47d20"
     transform="translate(-16.999186,-26.450001)">
    <path
       class="cls-4"
       d="M 113.35,26.45 A 5.78,5.78 0 0 0 108.27,35 c -0.57,0.29 -1.91,1 -3.79,1.94 a 4.3,4.3 0 0 0 -8.17,1.88 4.23,4.23 0 0 0 0.6,2.17 c -1,0.54 -2,1.09 -3,1.68 a 3.37,3.37 0 0 0 -6.2,1.85 3.29,3.29 0 0 0 0.37,1.48 q -1.6,1 -3.21,2 a 2.46,2.46 0 0 0 -4.06,1.88 2.74,2.74 0 0 0 0.08,0.64 114.62,114.62 0 0 0 -11.8,8.61 C 65.18,50.38 59.42,40.8 51.41,33 v 0 c -0.94,-0.92 -1.72,-0.51 -0.64,0.64 v 0 c 6.82,7.36 12.17,17.92 15.81,27.58 -13.82,11.8 -29,34.66 -12.35,41.84 2.43,1 3.54,-1 2.49,-1.57 -0.19,-0.11 -7.62,-4.13 -2.9,-16.48 h 11.9 a 1.15,1.15 0 0 0 0,-2.3 H 54.81 a 48.16,48.16 0 0 1 2.35,-4.37 h 8.56 a 1.16,1.16 0 0 0 0,-2.31 h -7.09 c 0.89,-1.32 1.88,-2.7 3,-4.15 h 4.1 a 1.16,1.16 0 0 0 0,-2.31 h -2.28 q 1.93,-2.37 4.3,-4.95 v -0.05 c 3.18,9.09 4.69,16.83 4.36,19.43 a 2.69,2.69 0 0 1 -1.45,2.16 c -0.59,0.28 -0.83,1.09 0.09,1.36 2.92,0.86 4.72,-2 5,-4.37 0.28,-2.37 -1.27,-11 -5.49,-21.2 A 107.28,107.28 0 0 1 82.05,52 a 2.43,2.43 0 0 0 1.23,0.33 2.47,2.47 0 0 0 2.47,-2.47 2.61,2.61 0 0 0 0,-0.48 c 1.1,-0.77 2.2,-1.52 3.28,-2.24 a 3.38,3.38 0 0 0 5.49,-2.64 3.59,3.59 0 0 0 -0.1,-0.81 c 1.08,-0.68 2.13,-1.32 3.14,-1.92 a 4.3,4.3 0 0 0 7.24,-4.17 c 1.83,-1 3.17,-1.75 3.83,-2.12 a 5.78,5.78 0 1 0 4.77,-9 z"
       id="path13"
       inkscape:connector-curvature="0"
       style="fill:#f47d20" />
  </g>
  <path
     class="cls-5"
     d="m 30.590814,46.269999 a 16.21,16.21 0 0 0 0.61,-1.59 14.63,14.63 0 0 0 0.61,-2.13 l 2.19,-9.5 c 0.18,-1 0.32,-1.69 0.36,-2.12 a 5.57,5.57 0 0 0 0.07,-1.15 v -0.43 h 5 l -3.01,13.2 c -0.21,0.93 -0.36,1.65 -0.43,2.16 a 7.5,7.5 0 0 0 -0.11,1.55 z"
     id="path17"
     inkscape:connector-curvature="0"
     style="fill:#544f4c" />
  <path
     class="cls-5"
     d="m 17.050814,33.049999 a 2.73,2.73 0 0 0 0.14,-0.86 1,1 0 0 0 -0.07,-0.36 c -0.14,-0.21 -0.5,-0.32 -1,-0.32 H 8.4808139 a 1.53,1.53 0 0 0 -1.08,0.32 1.85,1.85 0 0 0 -0.5,1.22 l -0.9,3.89 H 16.150814 Z m 1.15,13.22 H 3.4808139 a 3.72,3.72 0 0 1 -3.00000003,-1 2.78,2.78 0 0 1 -0.4799999966,-1.63 7.62,7.62 0 0 1 0.2499999966,-1.84 l 1.84000003,-8 a 6.5,6.5 0 0 1 1.76,-3.46 5.25,5.25 0 0 1 3.46,-1 H 18.200814 c 1.55,0 2.56,0.32 3.06,1 a 2.56,2.56 0 0 1 0.47,1.66 6.92,6.92 0 0 1 -0.25,1.8 l -1.19,5.29 H 5.4908139 l -0.79,3.46 a 5,5 0 0 0 -0.11,0.83 c 0,0.18 0,0.32 0.08,0.39 0.08,0.07 0.43,0.33 0.93,0.33 H 16.400814 a 13,13 0 0 0 2.81,-0.29 l -1,2.45 z"
     id="path19"
     inkscape:connector-curvature="0"
     style="fill:#544f4c" />
  <path
     class="cls-5"
     d="m 21.870814,46.269999 c 0.23,-0.53 0.42,-1.09 0.65,-1.78 a 18,18 0 0 0 0.65,-2.38 l 3.83,-17.56 c 0.23,-1.09 0.38,-1.89 0.46,-2.38 0.08,-0.49 0.07,-1 0.07,-1.77 h 5.27 l -4.74,21.71 c -0.23,1 -0.39,1.86 -0.46,2.42 a 8.69,8.69 0 0 0 -0.12,1.74 z"
     id="path21"
     inkscape:connector-curvature="0"
     style="fill:#544f4c" />
  <path
     class="cls-5"
     d="m 59.310814,46.269999 a 16.21,16.21 0 0 0 0.61,-1.59 14.53,14.53 0 0 0 0.62,-2.13 l 2.19,-9.51 c 0.18,-1 0.33,-1.69 0.36,-2.12 a 5.57,5.57 0 0 0 0.07,-1.15 v -0.42 h 5 l -3.02,13.2 c -0.21,0.93 -0.36,1.65 -0.43,2.16 a 7.5,7.5 0 0 0 -0.11,1.55 z"
     id="path23"
     inkscape:connector-curvature="0"
     style="fill:#544f4c" />
  <path
     class="cls-5"
     d="m 82.610814,32.189999 c -0.54,0 -1.08,-0.07 -1.7,-0.07 h -2.41 a 1.78,1.78 0 0 0 -1.08,0.29 2,2 0 0 0 -0.61,1.14 l -2,9 a 13.68,13.68 0 0 0 -0.51,3.31 v 0.4 h -5.3 c 0.21,-0.54 0.43,-1 0.57,-1.55 0.14,-0.55 0.33,-1.19 0.58,-2.16 l 2.16,-9.51 c 0.25,-0.93 0.36,-1.65 0.47,-2.19 a 11,11 0 0 0 0.07,-1.51 h 4.43 l -0.18,1.72 a 3,3 0 0 1 1.11,-1.29 3.56,3.56 0 0 1 1.91,-0.43 h 4.32 l 1,1.87 a 4.68,4.68 0 0 0 -0.61,0.68 c -0.25,0.33 -0.43,0.47 -0.54,0.47 -0.65,-0.07 -1.22,-0.14 -1.76,-0.18 z"
     id="path25"
     inkscape:connector-curvature="0"
     style="fill:#544f4c" />
  <path
     class="cls-5"
     d="m 40.240814,23.429999 a 2.44,2.44 0 1 1 -2.43,-2.44 2.43,2.43 0 0 1 2.43,2.44 z"
     id="path27"
     inkscape:connector-curvature="0"
     style="fill:#544f4c" />
</svg>
