<?xml version="1.0" encoding="utf-8"?>
<!DOCTYPE svg PUBLIC "-//W3C//DTD SVG 1.1//EN" "http://www.w3.org/Graphics/SVG/1.1/DTD/svg11.dtd">
<svg xmlns="http://www.w3.org/2000/svg" xmlns:xlink="http://www.w3.org/1999/xlink" version="1.1" viewBox="0 0 100 43.688">
<path d="M 2.343,25.944 C 0.938,25.006 0,23.133 0,21.492 0,19.852 0.703,18.33 2.46,17.51 H 2.343 C 10.66,12.59 22.258,6.0299995 29.99,1.4609995 V 12.356 c -3.046,1.757 -7.146,3.749 -17.455,9.255 l 0.117,0.116 c 5.506,2.461 11.832,6.209 17.338,9.489 V 42.228 L 2.343,25.944 z"/>
<path d="m 97.657,17.744 c 1.404,0.938 2.343,2.812 2.343,4.452 0,1.64 -0.703,3.162 -2.461,3.982 h 0.118 C 89.34,31.098 77.741,37.658 70.01,42.227 V 31.332 c 3.046,-1.756 7.146,-3.748 17.455,-9.254 L 87.348,21.962 C 81.843,19.501 75.516,15.753 70.01,12.473 V 1.4609995 L 97.657,17.744 z"/>
<path d="M 46.401,43.688 H 39.39 L 53.48,-4.5462934e-7 h 7.13 L 46.401,43.688 z"/>
</svg>