<?xml version="1.0" encoding="UTF-8" standalone="no"?>
<svg
   width="21.99963"
   height="17.000114"
   viewBox="0 0 21.99963 17.000114"
   version="1.1"
   id="svg6"
   sodipodi:docname="ram-24.svg"
   inkscape:version="1.1 (c4e8f9ed74, 2021-05-24)"
   xmlns:inkscape="http://www.inkscape.org/namespaces/inkscape"
   xmlns:sodipodi="http://sodipodi.sourceforge.net/DTD/sodipodi-0.dtd"
   xmlns="http://www.w3.org/2000/svg"
   xmlns:svg="http://www.w3.org/2000/svg">
  <defs
     id="defs10" />
  <sodipodi:namedview
     id="namedview8"
     pagecolor="#ffffff"
     bordercolor="#666666"
     borderopacity="1.0"
     inkscape:pageshadow="2"
     inkscape:pageopacity="0.0"
     inkscape:pagecheckerboard="0"
     showgrid="false"
     inkscape:zoom="22.64039"
     inkscape:cx="-2.5838778"
     inkscape:cy="20.604769"
     inkscape:window-width="2556"
     inkscape:window-height="1384"
     inkscape:window-x="0"
     inkscape:window-y="26"
     inkscape:window-maximized="1"
     inkscape:current-layer="svg6"
     fit-margin-top="0"
     fit-margin-left="0"
     fit-margin-right="0"
     fit-margin-bottom="0" />
  <path
     fill-rule="evenodd"
     d="m 17.25,12.499886 c 0.138071,0 0.25,-0.111929 0.25,-0.25 V 4.75 C 17.5,4.6119288 17.388071,4.5 17.25,4.5 H 4.7499997 c -0.1380712,0 -0.25,0.1119288 -0.25,0.25 v 7.499886 c 0,0.138 0.112,0.25 0.25,0.25 z m -5.5,1.500228 v 2.25 c 0,1 -1.5,1 -1.5,0 v -2.25 l -2.7500003,-3.67e-4 v 2.25 c 0,1 -1.5,1 -1.5,0 v -2.25 h -1.25 c -0.9664983,0 -1.75,-0.783363 -1.75,-1.749861 V 11 H 0.74999967 c -0.99999957,0 -0.99901337,-1.544401 0,-1.5 H 2.9999997 v -2 H 0.74999967 c -0.99999957,0 -0.99999956,-1.5 0,-1.5 H 2.9999997 V 4.75 c 0,-0.966 0.784,-1.75 1.75,-1.75 h 1.25 V 0.75 c 0,-0.99999957 1.5,-0.99999957 1.5,0 V 3 H 10.25 V 0.75 c 0,-0.99999956 1.5,-0.99999956 1.5,0 V 3 H 14.5 V 0.75 C 14.5,0.3357864 14.835786,0 15.25,0 15.664214,0 16,0.3357864 16,0.75 V 3 h 1.25 C 18.216,3 19,3.784 19,4.75 V 6 h 2.25 c 1,0 0.993883,1.6104314 0,1.5 H 19 v 2 h 2.25 c 1,0 0.999014,1.544401 0,1.5 H 19 v 1.249886 c 0,0.966498 -0.783502,1.749861 -1.75,1.749861 H 16 v 2.250367 c 0,1 -1.5,1 -1.5,0 v -2.250367 z"
     id="path4"
     sodipodi:nodetypes="ssssssssscssccsscsscssccsscsscssccssccssscsscssccsscsscsscc" />
  <text
     xml:space="preserve"
     style="font-style:normal;font-variant:normal;font-weight:bold;font-stretch:normal;font-size:5.33333px;line-height:1.25;font-family:System-ui;-inkscape-font-specification:'System-ui Bold';letter-spacing:0px;word-spacing:0px"
     x="5.1731563"
     y="10.350722"
     id="text9841"><tspan
       sodipodi:role="line"
       id="tspan9839"
       x="5.1731563"
       y="10.350722"
       style="font-style:normal;font-variant:normal;font-weight:bold;font-stretch:normal;font-size:5.33333px;font-family:System-ui;-inkscape-font-specification:'System-ui Bold'">RAM</tspan></text>
</svg>
