<?xml version="1.0" encoding="UTF-8" standalone="no"?>
<!-- Generator: Adobe Illustrator 13.0.0, SVG Export Plug-In . SVG Version: 6.00 Build 14948)  -->

<svg
   xmlns:dc="http://purl.org/dc/elements/1.1/"
   xmlns:cc="http://creativecommons.org/ns#"
   xmlns:rdf="http://www.w3.org/1999/02/22-rdf-syntax-ns#"
   xmlns:svg="http://www.w3.org/2000/svg"
   xmlns="http://www.w3.org/2000/svg"
   xmlns:sodipodi="http://sodipodi.sourceforge.net/DTD/sodipodi-0.dtd"
   xmlns:inkscape="http://www.inkscape.org/namespaces/inkscape"
   version="1.1"
   id="Ebene_1"
   x="0px"
   y="0px"
   width="361.41431"
   height="97.274536"
   viewBox="0 0 361.41431 97.274534"
   enable-background="new 0 0 354.332 91.896"
   xml:space="preserve"
   sodipodi:docname="denbi.svg"
   inkscape:version="0.92.4 5da689c313, 2019-01-14"><metadata
   id="metadata183"><rdf:RDF><cc:Work
       rdf:about=""><dc:format>image/svg+xml</dc:format><dc:type
         rdf:resource="http://purl.org/dc/dcmitype/StillImage" /><dc:title></dc:title></cc:Work></rdf:RDF></metadata><defs
   id="defs181" /><sodipodi:namedview
   pagecolor="#ffffff"
   bordercolor="#666666"
   borderopacity="1"
   objecttolerance="10"
   gridtolerance="10"
   guidetolerance="10"
   inkscape:pageopacity="0"
   inkscape:pageshadow="2"
   inkscape:window-width="2556"
   inkscape:window-height="1384"
   id="namedview179"
   showgrid="false"
   inkscape:zoom="3.7366086"
   inkscape:cx="191.21637"
   inkscape:cy="147.99053"
   inkscape:window-x="0"
   inkscape:window-y="26"
   inkscape:window-maximized="0"
   inkscape:current-layer="g176"
   fit-margin-top="0"
   fit-margin-left="0"
   fit-margin-right="0"
   fit-margin-bottom="0" />
<g
   id="g176"
   transform="translate(3.9593458,2.4368771)">
	
		<rect
   style="opacity:1;fill:#ffffff;fill-opacity:1;stroke:#ffffff;stroke-width:1.03767729;stroke-linecap:butt;stroke-linejoin:round;stroke-miterlimit:6.30000019;stroke-dasharray:none;stroke-dashoffset:0;stroke-opacity:1;paint-order:stroke markers fill"
   id="rect11404"
   width="360.37662"
   height="15.329967"
   x="-3.4405072"
   y="78.988853"
   ry="0.89933741" /><g
   id="g5398"><path
     inkscape:connector-curvature="0"
     id="rect5188"
     d="m 189.44917,33.379448 c -1.78177,-7.538474 -10.32675,1.646082 -15.3706,2.1736 -7.13376,4.181651 2.91373,8.867183 7.60529,3.291761 1.9974,-1.804735 10.01392,-2.090081 7.76531,-5.465361 z"
     style="fill:#ffffff;stroke-width:0.99995828" /><path
     inkscape:connector-curvature="0"
     id="rect5190"
     d="m 138.3371,52.929862 c 6.39397,-4.373078 -5.24896,-9.044651 -7.5547,-13.5617 -4.43541,-2.488215 -8.7268,-13.679359 -13.2741,-9.406279 -4.42045,4.405739 6.62729,9.067458 8.9687,13.5851 3.74714,2.2089 8.14612,11.909213 11.8601,9.382879 z"
     style="fill:#ffffff;stroke-width:0.99998587" /><path
     inkscape:connector-curvature="0"
     id="rect5192"
     d="m 156.69796,17.939621 c 1.81688,-4.758209 10.27112,-10.788068 7.53902,-14.6747285 -5.58751,-5.3650295 -7.78068,6.9866545 -11.731,10.1668995 -4.58105,2.546208 3.07091,7.789495 4.19198,4.507829 z"
     style="fill:#ffffff;stroke-width:0.9999631" /><path
     inkscape:connector-curvature="0"
     id="rect5194"
     d="m 170.58007,68.267073 c 7.32859,2.010779 3.32951,-9.140656 5.03655,-13.661854 -0.77893,-5.235042 3.56056,-14.875104 -0.72523,-17.092067 -7.3286,-2.010769 -3.32952,9.140656 -5.03655,13.661854 0.84123,4.902348 -3.65024,15.369072 0.72523,17.092067 z"
     style="fill:#ffffff;stroke-width:0.99999398" /><path
     inkscape:connector-curvature="0"
     id="rect5196"
     d="m 137.15775,71.493818 c 7.57195,0.642869 1.60962,-9.593738 2.46494,-14.350012 0.61029,-5.697512 -1.79487,-13.901779 -6.97639,-8.637862 0.84109,7.734695 1.68217,15.469389 2.52325,23.204074 l 0.9941,-0.1081 z"
     style="fill:#ffffff;stroke-width:0.99996018" /><path
     inkscape:connector-curvature="0"
     id="rect5198"
     d="m 134.36736,48.265767 c 7.59966,-1.500224 -1.26092,-10.381019 -1.6005,-15.4411 -3.09601,-4.03399 -2.6311,-16.009544 -8.49373,-13.873348 -5.79866,2.307767 2.51876,10.94502 2.8909,16.0197 2.57349,3.506116 2.79471,14.153754 7.20333,13.294748 z"
     style="fill:#ffffff;stroke-width:0.99997753" /><path
     inkscape:connector-curvature="0"
     id="rect5200"
     d="m 152.4137,74.344444 c 6.99994,-2.959596 -3.04627,-9.239525 -4.50578,-13.846892 -3.85366,-3.628368 -6.41614,-13.885515 -11.15445,-12.972206 -6.99994,2.959596 3.04627,9.239525 4.50578,13.846892 3.69655,3.328541 6.65163,14.328934 11.15445,12.972206 z"
     style="fill:#ffffff;stroke-width:1.00005388" /><path
     inkscape:connector-curvature="0"
     id="rect5202"
     d="m 140.91191,49.9734 c 2.57165,-7.307305 -9.58087,-4.19174 -14.1111,-6.4718 -5.69705,-4.097476 -14.89393,1.751469 -7.26656,4.844315 7.01348,1.199627 14.02698,2.399257 21.04046,3.598885 l 0.1686,-0.9857 z"
     style="fill:#ffffff;stroke-width:1.00001526" /><path
     inkscape:connector-curvature="0"
     id="rect5204"
     d="m 126.79284,60.285829 c 2.97359,-4.23679 12.6855,-8.110451 11.03757,-12.59631 -3.89751,-6.523529 -8.72946,4.29258 -13.09071,6.374149 -5.82719,1.861585 -0.97196,8.648964 2.05314,6.222161 z"
     style="fill:#ffffff;stroke-width:0.9999544" /><path
     inkscape:connector-curvature="0"
     id="line5206"
     d="m 134.85352,9.4023438 c 5.86523,3.2701822 11.73046,6.5403642 17.5957,9.8105472 4.85884,-6.03297 -7.63959,-7.139728 -11.15201,-10.796826 -3.53765,-1.8208867 -4.72919,-4.2229165 -6.44369,0.9862788 z"
     style="fill:#ffffff" /><path
     inkscape:connector-curvature="0"
     id="rect5208"
     d="m 154.68501,19.312772 c 4.85607,-6.035838 -7.64104,-7.140237 -11.1549,-10.7975003 -3.98458,-5.8098716 -14.43476,-3.0360222 -8.29205,2.2473293 6.15771,3.432387 12.31543,6.864779 18.47315,10.297171 l 0.4869,-0.8735 z"
     style="fill:#ffffff;stroke-width:1.00003695" /><path
     inkscape:connector-curvature="0"
     id="rect5210"
     d="m 156.07876,16.424202 c -2.67356,-4.334479 -2.32203,-14.7124191 -7.06882,-14.9049999 -7.65662,1.175377 0.8179,10.4252609 0.9418,15.4951999 -0.76276,5.183408 8.05228,2.293693 6.12702,-0.5902 z"
     style="fill:#ffffff;stroke-width:0.99997556" /><path
     inkscape:connector-curvature="0"
     id="rect5212"
     d="m 153.53103,21.243777 c 7.30973,-3.192221 14.61945,-6.384441 21.92917,-9.576661 -1.10491,-9.45036 -8.90465,-1.825188 -14.3144,-0.2958 -4.79785,2.911229 -15.61464,3.462609 -9.44757,10.672861 l 0.9164,-0.4002 z"
     style="fill:#ffffff;stroke-width:0.99997449" /><path
     inkscape:connector-curvature="0"
     id="rect5214"
     d="m 177.10485,38.384408 c 3.55676,-5.831393 7.11352,-11.662786 10.67028,-17.49418 -5.99558,-6.725037 -8.08852,2.65743 -11.37393,7.118164 -3.91736,4.172566 -7.22837,12.22993 0.18295,11.229716 z"
     style="fill:#ffffff;stroke-width:0.99996608" /><path
     inkscape:connector-curvature="0"
     id="rect5216"
     d="m 189.28755,48.074534 c 4.7473,-5.934246 -7.07636,-6.675568 -10.55269,-10.032731 -6.3499,-4.900504 -8.39755,6.624329 -0.37482,6.576716 3.19216,0.556172 9.24635,7.270336 10.92751,3.456015 z"
     style="fill:#ffffff;stroke-width:0.99999869" /><path
     inkscape:connector-curvature="0"
     id="rect5218"
     d="m 181.63514,59.472717 c 7.44212,-1.537459 -1.18572,-9.655413 -1.7186,-14.458554 0.0335,-6.39396 -7.8392,-11.266648 -8.30983,-4.302674 2.72794,6.511346 5.45588,13.022682 8.18383,19.534028 l 0.9223,-0.3864 z"
     style="fill:#ffffff;stroke-width:0.99997115" /><path
     inkscape:connector-curvature="0"
     id="rect5220"
     d="m 157.61617,37.702689 c -0.069,-7.423177 -0.13807,-14.846354 -0.20711,-22.269531 -8.33807,-2.23853 -8.92241,3.133767 -7.90895,10.074418 1.44289,4.677554 -3.35404,15.712089 4.13271,14.232331 1.76882,-0.486045 5.03079,1.320585 3.98335,-2.037218 z"
     style="fill:#ffffff;stroke-width:1.00004327" /><path
     inkscape:connector-curvature="0"
     id="rect5222"
     d="m 137.79617,51.862148 c 6.5298,-3.905558 13.05961,-7.811116 19.58942,-11.716674 -2.28185,-8.326051 -7.21251,-6.11906 -12.69041,-1.735956 -3.37919,3.725711 -15.71045,5.200185 -10.67062,11.043075 1.3135,1.280694 1.40308,5.010529 3.77161,2.409555 z"
     style="fill:#ffffff;stroke-width:0.99999207" /><path
     inkscape:connector-curvature="0"
     id="rect5224"
     d="m 176.04714,40.507905 c 2.91184,-8.526249 -6.2886,-5.739507 -11.78807,-6.409504 -5.53768,0.463897 -15.1505,-3.435255 -12.71076,5.569683 1.42636,4.47433 11.11526,1.231351 15.92207,2.548305 2.44591,-0.777736 9.24838,2.277856 8.57676,-1.708484 z"
     style="fill:#ffffff;stroke-width:0.99998158" /><path
     inkscape:connector-curvature="0"
     id="path5226"
     d="m 153.0332,25.962891 c -9.42058,-0.0095 -14.8502,12.589652 -8.37695,19.43164 5.65644,7.314372 18.67653,4.203784 20.41406,-4.878906 1.95743,-7.468311 -4.32452,-15.070836 -12.03711,-14.552734 z"
     style="fill:#ffffff" /><path
     inkscape:connector-curvature="0"
     id="path5228"
     d="m 153.29883,10.482422 c -7.02866,-0.287088 -9.47388,10.411838 -3.03125,13.214844 6.0911,3.549665 13.26958,-4.796619 8.84375,-10.289063 -1.30307,-1.853482 -3.547,-2.985174 -5.8125,-2.925781 z"
     style="fill:#ffffff" /><path
     inkscape:connector-curvature="0"
     id="path5230"
     d="m 135.61523,41.445312 c -7.0277,-0.285507 -9.47179,10.412781 -3.02929,13.214844 6.0913,3.549466 13.26908,-4.796131 8.84375,-10.289062 -1.30344,-1.853856 -3.54845,-2.985869 -5.81446,-2.925782 z"
     style="fill:#ffffff" /><path
     inkscape:connector-curvature="0"
     id="path5232"
     d="m 173.53125,31.548828 c -7.02492,-0.288887 -9.47451,10.406261 -3.03516,13.210938 6.08979,3.557371 13.27745,-4.789135 8.84961,-10.285157 -1.30333,-1.852695 -3.54839,-2.990218 -5.81445,-2.925781 z"
     style="fill:#ffffff" /><path
     inkscape:connector-curvature="0"
     id="path5234"
     d="m 184.17383,15.259766 c -6.19207,-0.222735 -7.41234,9.59527 -1.37305,10.916015 5.87284,2.007498 9.88457,-7.061236 4.46094,-10.060547 -0.91458,-0.581563 -2.00421,-0.887164 -3.08789,-0.855468 z"
     style="fill:#ffffff" /><path
     inkscape:connector-curvature="0"
     id="path5236"
     d="m 187.4668,40.429688 c -6.1917,-0.224164 -7.41339,9.596115 -1.37305,10.914062 5.87896,2.013061 9.88897,-7.072808 4.45313,-10.066406 -0.91553,-0.573129 -1.99908,-0.881022 -3.08008,-0.847656 z"
     style="fill:#ffffff" /><path
     inkscape:connector-curvature="0"
     id="path5238"
     d="m 181.91211,52.494141 c -6.18624,-0.225839 -7.41563,9.585734 -1.38281,10.910156 5.87449,2.023743 9.90047,-7.056617 4.46875,-10.056641 -0.91387,-0.580893 -2.00312,-0.886168 -3.08594,-0.853515 z"
     style="fill:#ffffff" /><path
     inkscape:connector-curvature="0"
     id="path5240"
     d="m 173.41992,3.375 c -6.19222,-0.2231414 -7.4167,9.595283 -1.375,10.914062 5.87356,2.01282 9.88651,-7.0597459 4.46094,-10.0585932 C 175.59213,3.6506937 174.50208,3.3436086 173.41992,3.375 Z"
     style="fill:#ffffff" /><path
     inkscape:connector-curvature="0"
     id="path5242"
     d="m 148.38672,-2.4335938 c -6.18744,-0.2086954 -7.39795,9.5963436 -1.36328,10.9160157 5.87145,2.0060621 9.88365,-7.0544532 4.46484,-10.0585938 -0.91775,-0.5853868 -2.01418,-0.8866911 -3.10156,-0.8574219 z"
     style="fill:#ffffff" /><path
     inkscape:connector-curvature="0"
     id="path5244"
     d="m 135.70312,2.0976562 c -6.19058,-0.2222497 -7.41349,9.5959618 -1.37304,10.9140628 5.87325,2.014329 9.88738,-7.0613792 4.46094,-10.058594 -0.91462,-0.5811975 -2.00419,-0.8879045 -3.0879,-0.8554688 z"
     style="fill:#ffffff" /><path
     inkscape:connector-curvature="0"
     id="path5246"
     d="m 119.29297,39.703125 c -6.18504,-0.223759 -7.41684,9.586191 -1.38281,10.910156 5.87503,2.023935 9.89885,-7.055215 4.46875,-10.05664 -0.91387,-0.580894 -2.00312,-0.886169 -3.08594,-0.853516 z"
     style="fill:#ffffff" /><path
     inkscape:connector-curvature="0"
     id="path5248"
     d="m 125.19141,52.396484 c -6.18012,-0.209652 -7.40146,9.581248 -1.37696,10.91211 5.87425,2.02826 9.90661,-7.056512 4.47266,-10.056641 -0.91657,-0.583431 -2.01018,-0.885308 -3.0957,-0.855469 z"
     style="fill:#ffffff" /><path
     inkscape:connector-curvature="0"
     id="path5250"
     d="m 137.64258,63.332031 c -6.18545,-0.224183 -7.41683,9.586033 -1.38281,10.910157 5.87968,2.028072 9.90275,-7.066735 4.46289,-10.0625 -0.91553,-0.57313 -1.99908,-0.881022 -3.08008,-0.847657 z"
     style="fill:#ffffff" /><path
     inkscape:connector-curvature="0"
     id="path5252"
     d="m 28.224609,2.8242188 c 0.680825,5.3914406 -2.91972,15.0642522 5.837891,12.3789062 -0.589135,1.025464 1.700255,8.471377 -0.929688,6.378906 C 20.756045,14.585508 3.2643059,21.468436 -0.56835938,35.322266 -5.1583126,48.741032 -1.2715451,67.587707 13.365234,72.849609 c 7.381538,2.957085 16.745734,0.86303 22.263672,-3.568359 3.704547,6.399567 12.799669,2.791248 18.615235,3.771484 3.217729,-0.53862 3.351027,-13.728788 0,-14.283203 C 47.133888,61.207782 51.57416,52.092085 50.384766,48.623047 49.945415,34.372787 51.196266,19.950119 49.892578,5.7851562 47.384983,-1.6079316 37.488387,1.4059918 31.849609,0.82421875 30.029158,1.1863983 27.260657,-0.40514387 28.224609,2.8242188 Z M 25.021484,33.388672 c 10.755467,1.327701 12.000697,17.09516 5.833985,23.902344 -5.840359,6.020862 -16.18731,0.961723 -16.482422,-7.011719 -1.543648,-7.192189 1.688041,-17.55424 10.648437,-16.890625 z"
     style="fill:#ffffff" /><path
     inkscape:connector-curvature="0"
     id="path5254"
     d="m 198.17969,2.8222656 c -0.008,18.4960474 0.0157,37.0183494 -0.0117,55.4980464 -4.55768,0.278089 -10.22639,-1.735962 -12.02539,3.791016 -3.1748,4.334681 -7.46961,7.633227 -11.64063,10.941406 11.86557,-0.561603 23.98581,1.026061 35.73047,-0.613281 7.00444,-2.829873 3.81116,-12.351864 4.5293,-17.921875 -0.0202,-7.464725 0.0375,-14.930197 -0.0234,-22.394531 9.24991,13.72113 18.76428,27.269403 28.10742,40.929687 4.44942,-1.315552 14.58517,3.055219 14.29492,-3 0.10132,-18.140203 -0.20106,-36.648522 0.14844,-54.5625 8.67969,2.646481 5.65365,-6.4127557 6.09961,-11.9999996 -0.0999,-5.5647774 -9.96877,-1.3606568 -14.32617,-2.66796878 -5.35265,-0.71127382 -9.47587,4.41863688 -8.50391,9.53515638 0.0185,10.507061 -0.0352,21.014798 0.0234,31.521484 C 231.38417,28.102987 221.88027,14.527421 212.57422,0.82226562 208.52139,1.9067892 198.78071,-1.5290218 198.17969,2.8222656 Z"
     style="fill:#ffffff" /><path
     inkscape:connector-curvature="0"
     id="path5256"
     d="m 265.83203,2.8222656 c 0.68828,5.534374 -2.97569,15.4210004 6,12.6679684 0.88264,16.908161 -0.49847,34.965438 0.62109,52.232422 1.75128,7.044542 10.94795,5.23998 16.15821,5.328125 11.23448,0.693876 25.68881,0.02908 31.9375,-11.076172 4.94931,-8.872197 3.00342,-22.062589 -6.34375,-27.24414 10.40538,-8.56509 7.37983,-27.8357032 -5.82031,-31.9687502 -12.21465,-4.0642735 -25.44475,-0.9650594 -38.04688,-1.93945318 -1.81665,0.53530638 -5.57926,-1.48303781 -4.50586,1.99999998 z m 31.36524,12.6679684 c 8.56425,-1.071175 8.58652,13.883358 0.19531,13.201172 -8.47149,2.230607 -10.02779,-2.453981 -8.72266,-10 -1.76728,-5.888167 5.40058,-2.171337 8.52735,-3.201172 z m 1.34961,27.197266 c 9.21448,-0.997117 10.51356,14.827242 1.45117,15.607422 -2.97833,-0.955886 -10.42196,2.18624 -11.33008,-1.027344 1.49597,-4.697388 -3.66669,-16.053411 4,-14.580078 1.95963,0 3.91927,0 5.87891,0 z"
     style="fill:#ffffff" /><path
     inkscape:connector-curvature="0"
     id="polygon5258"
     d="m 324.75195,2.8222656 c 0.68829,5.534374 -2.97568,15.4210004 6,12.6679684 4.11363,2.161764 0.71687,11.833914 1.82617,17 10e-6,8.632162 0,17.264323 0,25.896485 -8.91122,-2.635832 -8.40266,4.148114 -7.82617,11 -0.95204,7.174045 10.25385,2.190167 15,3.666015 4.75834,-1.431113 15.57733,3.198425 15.56836,-3 -0.0868,-6.077886 2.13856,-14.467979 -6.82812,-11.666015 0,-14.298828 0,-28.597656 0,-42.896485 9.11147,2.835435 6.65758,-5.8944994 6.82812,-11.9999996 -0.55565,-5.6670031 -11.15542,-1.2898931 -16,-2.66796878 -4.08617,1.13915308 -13.88608,-2.39870372 -14.56836,1.99999998 z"
     style="fill:#ffffff" /><path
     inkscape:connector-curvature="0"
     id="path5260"
     d="M 83.619141,18.898438 C 70.598682,18.58679 58.813132,29.231326 57.710938,42.191406 c -1.843639,11.767846 3.256532,26.153556 15.669921,29.654297 11.957537,3.031445 24.547524,0.491093 36.732421,1.332408 7.64388,5.72e-4 15.28776,0.0018 22.93164,0.0016 -5.81455,-3.946543 -11.18598,-8.73982 -14.77148,-14.859376 -13.13433,-0.432579 -26.477126,0.812636 -39.501956,-0.517578 -3.001757,-1.006985 -4.058028,-4.315872 -4.533203,-7.140625 11.119792,0 22.239584,0 33.359379,0 2.19327,-11.663511 -2.17502,-26.083171 -14.320316,-30.259765 -3.078045,-1.140276 -6.385783,-1.580185 -9.658203,-1.503906 z m 1.08789,13.421874 c 3.249402,0.08922 5.932176,2.794344 6.572266,5.884766 -5.164039,-0.236842 -11.769198,0.459373 -16.091797,-0.322266 1.594157,-3.702892 5.559187,-5.819368 9.519531,-5.5625 z"
     style="fill:#ffffff" /><path
     inkscape:connector-curvature="0"
     id="path5262"
     d="m 123.93164,13.453125 c -6.19148,-0.222926 -7.41361,9.59426 -1.37305,10.914063 5.87216,2.006496 9.88429,-7.053118 4.46485,-10.058594 -0.91493,-0.582335 -2.00742,-0.887754 -3.0918,-0.855469 z"
     style="fill:#ffffff" /><path
     inkscape:connector-curvature="0"
     id="path5264"
     d="m 171.56445,62.087891 c -6.19317,-0.224483 -7.41531,9.597135 -1.37304,10.916015 5.87951,2.007487 9.88583,-7.074853 4.45117,-10.068359 -0.91558,-0.571733 -1.99722,-0.882482 -3.07813,-0.847656 z"
     style="fill:#ffffff" /><path
     inkscape:connector-curvature="0"
     id="path5266"
     d="m 162.34961,-1.5527344 c -6.18416,-0.2251349 -7.41837,9.5797934 -1.38672,10.9101563 5.87587,2.0259881 9.90549,-7.0546699 4.47266,-10.05664065 -0.91387,-0.58089335 -2.00312,-0.88616875 -3.08594,-0.85351565 z"
     style="fill:#ffffff" /><path
     inkscape:connector-curvature="0"
     id="path5268"
     d="m 118.78906,25.621094 c -6.18448,-0.224246 -7.41676,9.579241 -1.38672,10.910156 5.88203,2.027258 9.90577,-7.064457 4.46485,-10.0625 -0.91541,-0.57222 -1.99713,-0.882626 -3.07813,-0.847656 z"
     style="fill:#ffffff" /><path
     inkscape:connector-curvature="0"
     id="path5270"
     d="m 188.14258,27.271484 c -6.17948,-0.206192 -7.3972,9.586754 -1.3711,10.91211 5.87532,2.024238 9.90136,-7.054479 4.47071,-10.056641 -0.91768,-0.584196 -2.01278,-0.885892 -3.09961,-0.855469 z"
     style="fill:#ffffff" /></g><rect
   x="173.494"
   y="35.035"
   transform="matrix(-0.9206,0.3904,-0.3904,-0.9206,361.0044,-1.3185)"
   width="14.284"
   height="2.0009999"
   id="rect2"
   style="fill:#929497" />
	
		<rect
   x="114.788"
   y="40.095001"
   transform="matrix(-0.6953,-0.7187,0.7187,-0.6953,187.9412,161.8685)"
   width="26.989"
   height="2.0009999"
   id="rect4"
   style="fill:#929497" />
	
		<rect
   x="157.24699"
   y="3.112"
   transform="matrix(-0.8275,-0.5614,0.5614,-0.8275,283.4174,107.6694)"
   width="2"
   height="14.376"
   id="rect6"
   style="fill:#929497" />
	
		<rect
   x="159.245"
   y="51.890999"
   transform="matrix(0.0747,-0.9972,0.9972,0.0747,107.0886,221.1947)"
   width="26.989"
   height="2.0009999"
   id="rect8"
   style="fill:#929497" />
	
		<rect
   x="126.666"
   y="58.278999"
   transform="matrix(-0.1081,-0.9941,0.9941,-0.1081,92.6987,201.7243)"
   width="20.341999"
   height="2.0020001"
   id="rect10"
   style="fill:#929497" />
	
		<rect
   x="116.294"
   y="32.426998"
   transform="matrix(-0.3559,-0.9345,0.9345,-0.3559,144.7412,166.6154)"
   width="26.99"
   height="2.0009999"
   id="rect12"
   style="fill:#929497" />
	
		<rect
   x="131.09"
   y="59.942001"
   transform="matrix(-0.5589,-0.8293,0.8293,-0.5589,174.8526,214.8999)"
   width="26.99"
   height="2.0020001"
   id="rect14"
   style="fill:#929497" />
	
		<rect
   x="118.913"
   y="45.931999"
   transform="matrix(-0.9857,-0.1686,0.1686,-0.9857,248.4081,114.9596)"
   width="20.344"
   height="2"
   id="rect16"
   style="fill:#929497" />
	
		<rect
   x="129.229"
   y="45.846001"
   transform="matrix(-0.668,-0.7441,0.7441,-0.668,177.6677,185.5815)"
   width="2.0009999"
   height="14.628"
   id="rect18"
   style="fill:#929497" />
	<line
   x1="153.424"
   y1="17.466"
   x2="135.828"
   y2="7.6570001"
   id="line20"
   style="fill:none" />
	
		<rect
   x="134.55499"
   y="11.564"
   transform="matrix(-0.8735,-0.4869,0.4869,-0.8735,264.8408,93.9552)"
   width="20.148001"
   height="2.0009999"
   id="rect22"
   style="fill:#929497" />
	
		<rect
   x="149.957"
   y="3.362"
   transform="matrix(-0.9488,0.3158,-0.3158,-0.9488,297.5219,-27.1114)"
   width="2.0009999"
   height="14.375"
   id="rect24"
   style="fill:#929497" />
	
		<rect
   x="161.386"
   y="3.135"
   transform="matrix(-0.4002,-0.9164,0.9164,-0.4002,214.4449,168.5603)"
   width="2.0009999"
   height="21.929001"
   id="rect26"
   style="fill:#929497" />
	
		<rect
   x="178.35001"
   y="19.679001"
   transform="matrix(-0.8537,-0.5207,0.5207,-0.8537,317.4073,147.0102)"
   width="2.003"
   height="18.492001"
   id="rect28"
   style="fill:#929497" />
	
		<rect
   x="174.508"
   y="41.950001"
   transform="matrix(-0.8862,-0.4633,0.4633,-0.8862,322.7289,165.1728)"
   width="14.285"
   height="2.0009999"
   id="rect30"
   style="fill:#929497" />
	
		<rect
   x="168.495"
   y="47.390999"
   transform="matrix(-0.3864,-0.9223,0.9223,-0.3864,202.2601,231.342)"
   width="19.177999"
   height="2.0009999"
   id="rect32"
   style="fill:#929497" />
	
		<rect
   x="151.526"
   y="17.466999"
   transform="matrix(-1,0.0093,-0.0093,-1,307.304,53.7789)"
   width="4.0019999"
   height="20.27"
   id="rect34"
   style="fill:#58595b" />
	
		<rect
   x="142.68201"
   y="32.667"
   transform="matrix(-0.5133,-0.8582,0.8582,-0.5133,181.9724,189.3636)"
   width="4.0029998"
   height="20.827999"
   id="rect36"
   style="fill:#58595b" />
	
		<rect
   x="153.60699"
   y="36.083"
   transform="matrix(-0.9994,-0.0341,0.0341,-0.9994,326.3332,81.7381)"
   width="20.514999"
   height="4.0019999"
   id="rect38"
   style="fill:#58595b" />
	<path
   d="m 163.193,35.73 c 1.107,5.291 -2.282,10.475 -7.57,11.584 -5.29,1.106 -10.478,-2.283 -11.584,-7.573 -1.108,-5.29 2.281,-10.476 7.57,-11.582 5.29,-1.109 10.476,2.282 11.584,7.571"
   id="path40"
   inkscape:connector-curvature="0"
   style="fill:#eb008b" />
	<path
   d="m 158.305,16.444 c 0.564,2.696 -1.163,5.339 -3.858,5.903 -2.695,0.563 -5.339,-1.163 -5.903,-3.858 -0.563,-2.696 1.164,-5.339 3.859,-5.903 2.695,-0.564 5.339,1.162 5.902,3.858"
   id="path42"
   inkscape:connector-curvature="0"
   style="fill:#58595b" />
	<path
   d="m 140.624,47.407 c 0.562,2.696 -1.163,5.339 -3.859,5.903 -2.695,0.563 -5.338,-1.163 -5.903,-3.858 -0.562,-2.696 1.163,-5.338 3.859,-5.904 2.696,-0.563 5.338,1.163 5.903,3.859"
   id="path44"
   inkscape:connector-curvature="0"
   style="fill:#58595b" />
	<path
   d="m 178.54,37.511 c 0.562,2.695 -1.164,5.339 -3.86,5.902 -2.696,0.564 -5.338,-1.164 -5.903,-3.858 -0.562,-2.696 1.163,-5.339 3.858,-5.904 2.697,-0.565 5.339,1.164 5.905,3.86"
   id="path46"
   inkscape:connector-curvature="0"
   style="fill:#58595b" />
	<path
   d="m 187.782,20.088 c 0.402,1.926 -0.83,3.813 -2.756,4.217 -1.926,0.402 -3.814,-0.831 -4.217,-2.757 -0.404,-1.926 0.831,-3.812 2.756,-4.216 1.928,-0.402 3.814,0.83 4.217,2.756"
   id="path48"
   inkscape:connector-curvature="0"
   style="fill:#929497" />
	<path
   d="m 191.077,45.257 c 0.401,1.927 -0.832,3.813 -2.757,4.218 -1.927,0.402 -3.813,-0.831 -4.218,-2.758 -0.404,-1.926 0.832,-3.812 2.757,-4.216 1.927,-0.402 3.813,0.831 4.218,2.756"
   id="path50"
   inkscape:connector-curvature="0"
   style="fill:#929497" />
	<path
   d="m 185.52,57.322 c 0.402,1.925 -0.83,3.812 -2.757,4.216 -1.925,0.403 -3.813,-0.831 -4.216,-2.756 -0.403,-1.927 0.83,-3.812 2.756,-4.216 1.926,-0.404 3.815,0.831 4.217,2.756"
   id="path52"
   inkscape:connector-curvature="0"
   style="fill:#929497" />
	<path
   d="m 177.027,8.204 c 0.403,1.926 -0.83,3.813 -2.756,4.216 -1.926,0.403 -3.813,-0.831 -4.218,-2.756 -0.405,-1.925 0.832,-3.812 2.758,-4.216 1.925,-0.404 3.814,0.832 4.216,2.756"
   id="path54"
   inkscape:connector-curvature="0"
   style="fill:#929497" />
	<path
   d="m 152.005,2.396 c 0.402,1.925 -0.83,3.812 -2.756,4.215 -1.926,0.404 -3.814,-0.831 -4.218,-2.756 -0.404,-1.925 0.832,-3.812 2.757,-4.215 1.926,-0.404 3.814,0.83 4.217,2.756"
   id="path56"
   inkscape:connector-curvature="0"
   style="fill:#929497" />
	<path
   d="m 139.312,6.927 c 0.403,1.926 -0.83,3.812 -2.756,4.216 -1.926,0.402 -3.812,-0.831 -4.218,-2.756 -0.403,-1.927 0.832,-3.813 2.758,-4.218 1.925,-0.401 3.815,0.832 4.216,2.758"
   id="path58"
   inkscape:connector-curvature="0"
   style="fill:#929497" />
	<path
   d="m 122.9,44.531 c 0.403,1.925 -0.83,3.814 -2.755,4.216 -1.926,0.403 -3.813,-0.83 -4.218,-2.755 -0.403,-1.926 0.831,-3.812 2.757,-4.217 1.926,-0.404 3.814,0.831 4.216,2.756"
   id="path60"
   inkscape:connector-curvature="0"
   style="fill:#929497" />
	<path
   d="m 128.809,57.226 c 0.402,1.925 -0.831,3.812 -2.757,4.217 -1.926,0.403 -3.812,-0.832 -4.217,-2.757 -0.403,-1.927 0.831,-3.813 2.757,-4.216 1.926,-0.404 3.814,0.83 4.217,2.756"
   id="path62"
   inkscape:connector-curvature="0"
   style="fill:#929497" />
	<path
   d="m 141.252,68.16 c 0.401,1.925 -0.831,3.812 -2.757,4.216 -1.927,0.404 -3.813,-0.831 -4.219,-2.756 -0.401,-1.927 0.832,-3.812 2.759,-4.216 1.926,-0.403 3.814,0.831 4.217,2.756"
   id="path64"
   inkscape:connector-curvature="0"
   style="fill:#929497" />
	<path
   d="m 21.96,20.89 c 10.663,0 14.124,5.959 14.124,5.959 h 0.193 c 0,0 -0.101,-1.25 -0.101,-2.884 v -8.647 c 0,-1.443 -0.769,-2.115 -2.111,-2.115 H 30.224 V 2.824 H 41.85 c 4.518,0 6.535,2.017 6.535,6.534 v 49.296 c 0,1.347 0.768,2.115 2.117,2.115 h 3.742 V 71.052 H 43.005 c -4.422,0 -6.053,-2.114 -6.053,-4.998 V 64.23 h -0.193 c 0,0 -4.036,7.975 -15.279,7.975 C 8.218,72.204 -0.334,61.732 -0.334,46.548 -0.334,30.982 8.985,20.89 21.96,20.89 m 14.512,25.561 c 0,-7.589 -3.94,-15.085 -12.112,-15.085 -6.722,0 -12.3,5.475 -12.3,15.182 0,9.32 4.903,15.373 12.111,15.373 6.341,0 12.301,-4.608 12.301,-15.47"
   id="path66"
   inkscape:connector-curvature="0"
   style="fill:#005aa9" />
	<path
   d="m 249.093,2.823 c -4.611,0 -6.534,2.019 -6.534,6.534 v 31.23 c 0,3.941 0.674,9.611 0.674,9.611 h -0.193 c 0,0 -2.979,-5.67 -5.672,-9.611 L 211.519,2.823 H 200.18 V 58.27 c 0,1.308 -0.739,2.015 -2.012,2.055 V 60.32 h -8.346 c -2.601,4.101 -5.873,7.729 -9.668,10.732 h 13.777 4.236 8.064 c 4.614,0 6.531,-1.924 6.531,-6.535 V 33.383 c 0,-3.941 -0.667,-9.61 -0.667,-9.61 h 0.188 c 0,0 2.979,5.766 5.672,9.61 l 25.942,37.67 h 11.244 V 15.605 c 0,-1.343 0.769,-2.114 2.117,-2.114 h 4.13 V 2.823 Z"
   id="path68"
   inkscape:connector-curvature="0"
   style="fill:#00adee" />
	<path
   d="m 274.079,13.49 h -6.246 V 2.823 h 29.504 c 12.299,0 21.139,6.344 21.139,17.588 0,7.59 -4.129,12.491 -8.264,14.605 v 0.189 c 7.402,2.211 10.957,9.13 10.957,16.048 0,13.646 -10.859,19.798 -23.545,19.798 h -17.012 c -4.517,0 -6.533,-1.923 -6.533,-6.534 z m 23.352,17.202 c 5.284,0 8.265,-3.842 8.265,-8.743 0,-4.901 -2.881,-8.458 -8.453,-8.458 h -10.574 v 17.201 z m -8.647,29.694 h 9.803 c 6.146,0 9.607,-4.134 9.607,-9.897 0,-5.67 -3.555,-9.801 -9.607,-9.801 h -11.92 v 17.583 c 0,1.345 0.769,2.115 2.117,2.115"
   id="path70"
   inkscape:connector-curvature="0"
   style="fill:#00adee" />
	<polygon
   points="346.493,60.386 353.321,60.386 353.321,71.053 326.752,71.053 326.752,60.386 334.579,60.386 334.579,13.49 326.752,13.49 326.752,2.823 353.321,2.823 353.321,13.49 346.493,13.49 "
   id="polygon72"
   style="fill:#00adee" />
	<path
   d="m 127.028,71.179 -0.187,-0.138 c -3.789,-3.002 -7.058,-6.625 -9.654,-10.721 H 82.255 82.254 80.956 c -5.758,-0.63 -8.17,-3.946 -9.028,-11.658 h 33.827 c 0,0 0.287,-3.076 0.287,-4.516 0,-12.976 -7.685,-23.256 -21.714,-23.256 -14.704,0 -24.895,10.571 -24.895,25.658 0,13.935 7.078,24.649 23.314,24.649 0.803,0 1.58,-0.01 2.349,-0.021 z M 84.329,30.308 c 4.998,0 9.032,4.037 9.221,9.897 H 72.315 c 1.345,-6.149 5.767,-9.897 12.014,-9.897"
   id="path74"
   inkscape:connector-curvature="0"
   style="fill:#005aa9" />
	<path
   d="M 7.279,91.325 6.782,91.459 6.315,90.961 C 6.04,91.131 5.75,91.257 5.447,91.337 5.145,91.419 4.8,91.459 4.407,91.459 3.331,91.459 2.519,91.09 1.974,90.352 1.43,89.615 1.159,88.519 1.159,87.064 c 0,-0.908 0.147,-1.703 0.445,-2.39 0.297,-0.684 0.728,-1.21 1.283,-1.578 0.557,-0.368 1.213,-0.553 1.966,-0.553 0.396,0 0.775,0.021 1.144,0.066 0.364,0.045 0.771,0.122 1.22,0.232 v 1.756 H 6.583 C 6.468,84.213 6.332,83.913 6.174,83.7 6.017,83.485 5.829,83.333 5.61,83.241 5.391,83.15 5.115,83.104 4.778,83.104 c -0.465,0 -0.87,0.147 -1.221,0.445 -0.348,0.3 -0.618,0.737 -0.812,1.318 -0.194,0.581 -0.291,1.281 -0.291,2.104 0,0.834 0.083,1.547 0.245,2.139 0.164,0.591 0.407,1.037 0.73,1.337 0.324,0.301 0.722,0.45 1.193,0.45 0.503,0 0.875,-0.109 1.117,-0.329 0.241,-0.219 0.363,-0.556 0.363,-1.011 V 89.172 C 6.102,88.788 6.081,88.513 6.04,88.342 6,88.173 5.93,88.039 5.827,87.946 5.724,87.853 5.556,87.777 5.323,87.717 V 87.405 H 7.9 v 0.312 C 7.748,87.77 7.631,87.827 7.555,87.894 7.478,87.959 7.419,88.04 7.379,88.14 7.338,88.238 7.312,88.358 7.296,88.498 7.281,88.643 7.275,88.845 7.275,89.108 Z"
   id="path76"
   inkscape:connector-curvature="0"
   style="fill:#231f20" />
	<path
   d="m 15.124,82.646 v 1.928 h -0.625 c -0.065,-0.209 -0.131,-0.391 -0.198,-0.548 -0.069,-0.159 -0.139,-0.29 -0.211,-0.397 -0.072,-0.104 -0.152,-0.189 -0.24,-0.255 -0.086,-0.062 -0.188,-0.106 -0.308,-0.131 -0.12,-0.023 -0.264,-0.034 -0.43,-0.034 h -2.017 v 3.345 h 1.366 c 0.187,0 0.333,-0.026 0.438,-0.08 0.107,-0.054 0.194,-0.145 0.268,-0.271 0.067,-0.127 0.136,-0.327 0.199,-0.6 h 0.601 v 2.451 h -0.601 c -0.061,-0.256 -0.126,-0.447 -0.197,-0.577 -0.072,-0.129 -0.158,-0.225 -0.258,-0.278 -0.102,-0.055 -0.25,-0.082 -0.45,-0.082 h -1.366 v 3.682 h 1.985 c 0.208,0 0.377,-0.017 0.508,-0.054 0.129,-0.036 0.24,-0.099 0.334,-0.186 0.094,-0.088 0.176,-0.2 0.249,-0.343 0.072,-0.139 0.134,-0.284 0.182,-0.437 0.05,-0.151 0.117,-0.371 0.201,-0.66 h 0.632 l -0.121,2.238 H 9.156 v -0.312 c 0.264,-0.069 0.439,-0.146 0.528,-0.228 0.09,-0.084 0.148,-0.201 0.177,-0.355 0.027,-0.151 0.041,-0.387 0.041,-0.7 V 84.24 C 9.902,83.947 9.891,83.733 9.871,83.599 9.85,83.463 9.814,83.361 9.766,83.287 9.717,83.212 9.652,83.152 9.573,83.107 9.491,83.062 9.353,83.012 9.157,82.957 v -0.312 h 5.967 z"
   id="path78"
   inkscape:connector-curvature="0"
   style="fill:#231f20" />
	<path
   d="m 18.621,87.573 v 2.171 c 0,0.307 0.013,0.528 0.036,0.666 0.021,0.139 0.059,0.243 0.104,0.312 0.046,0.07 0.11,0.127 0.19,0.173 0.082,0.045 0.22,0.095 0.416,0.15 v 0.312 h -2.694 v -0.312 c 0.264,-0.069 0.44,-0.146 0.53,-0.228 0.09,-0.084 0.146,-0.201 0.176,-0.355 0.027,-0.151 0.041,-0.387 0.041,-0.7 V 84.24 c 0,-0.293 -0.011,-0.507 -0.032,-0.641 -0.021,-0.136 -0.056,-0.238 -0.104,-0.312 -0.049,-0.075 -0.113,-0.135 -0.194,-0.18 -0.081,-0.045 -0.219,-0.096 -0.415,-0.15 v -0.312 h 3.159 c 0.996,0 1.741,0.181 2.233,0.542 0.493,0.361 0.74,0.924 0.74,1.686 0,0.584 -0.161,1.078 -0.48,1.487 -0.322,0.407 -0.805,0.729 -1.446,0.958 v 0.052 c 0.26,0.105 0.483,0.257 0.667,0.455 0.186,0.197 0.391,0.505 0.616,0.923 l 0.573,1.047 c 0.165,0.308 0.31,0.54 0.43,0.701 0.118,0.162 0.239,0.285 0.361,0.371 0.124,0.084 0.288,0.145 0.492,0.18 v 0.312 H 22.251 C 22.09,91.132 21.937,90.89 21.792,90.63 21.646,90.371 21.505,90.108 21.363,89.839 l -0.562,-1.064 c -0.171,-0.323 -0.31,-0.562 -0.419,-0.715 -0.107,-0.153 -0.208,-0.263 -0.299,-0.321 -0.092,-0.063 -0.189,-0.106 -0.294,-0.13 -0.104,-0.022 -0.26,-0.034 -0.47,-0.034 h -0.7 v -0.002 z m 0,-4.341 v 3.792 h 0.722 c 0.37,0 0.67,-0.027 0.899,-0.081 0.229,-0.052 0.442,-0.153 0.639,-0.303 0.196,-0.148 0.353,-0.354 0.47,-0.621 0.117,-0.267 0.175,-0.594 0.175,-0.98 0,-0.405 -0.068,-0.74 -0.207,-1.008 -0.139,-0.269 -0.348,-0.473 -0.628,-0.613 -0.281,-0.14 -0.659,-0.21 -1.137,-0.21 -0.384,-0.001 -0.696,0.007 -0.933,0.024"
   id="path80"
   inkscape:connector-curvature="0"
   style="fill:#231f20" />
	<path
   d="m 33.908,82.957 c -0.188,0.048 -0.322,0.095 -0.405,0.142 -0.083,0.048 -0.148,0.104 -0.198,0.176 -0.048,0.069 -0.085,0.175 -0.107,0.315 -0.023,0.141 -0.035,0.357 -0.035,0.65 v 5.522 c 0,0.283 0.01,0.493 0.028,0.625 0.021,0.132 0.051,0.234 0.097,0.312 0.044,0.076 0.109,0.142 0.197,0.192 0.088,0.052 0.229,0.103 0.425,0.151 v 0.312 h -2.661 v -0.312 c 0.242,-0.06 0.41,-0.127 0.503,-0.203 0.095,-0.076 0.157,-0.188 0.191,-0.339 0.034,-0.151 0.053,-0.396 0.053,-0.739 v -2.444 c 0,-0.645 0.009,-1.294 0.028,-1.952 0.019,-0.656 0.04,-1.104 0.065,-1.349 H 31.98 l -2.526,6.323 H 28.72 l -2.349,-6.426 h -0.107 c 0.021,0.259 0.041,0.729 0.061,1.41 0.02,0.682 0.027,1.381 0.027,2.1 v 2.339 c 0,0.283 0.01,0.493 0.029,0.625 0.019,0.132 0.051,0.234 0.096,0.312 0.045,0.076 0.11,0.142 0.198,0.192 0.087,0.052 0.229,0.103 0.424,0.151 v 0.312 H 24.77 v -0.312 c 0.264,-0.067 0.439,-0.144 0.529,-0.226 0.09,-0.084 0.147,-0.201 0.176,-0.355 0.027,-0.152 0.041,-0.387 0.041,-0.7 V 84.24 c 0,-0.293 -0.01,-0.508 -0.031,-0.641 -0.021,-0.136 -0.057,-0.238 -0.104,-0.312 -0.049,-0.075 -0.114,-0.135 -0.195,-0.18 -0.08,-0.045 -0.219,-0.096 -0.414,-0.15 v -0.312 h 2.277 l 2.241,6.211 2.463,-6.211 h 2.158 v 0.312 z"
   id="path82"
   inkscape:connector-curvature="0"
   style="fill:#231f20" />
	<path
   d="m 39.761,91.357 v -0.312 c 0.212,-0.042 0.371,-0.09 0.475,-0.14 0.104,-0.052 0.183,-0.122 0.233,-0.214 0.05,-0.092 0.076,-0.214 0.076,-0.367 0,-0.145 -0.018,-0.302 -0.051,-0.469 -0.034,-0.169 -0.083,-0.356 -0.147,-0.565 l -0.235,-0.823 h -2.974 l -0.218,0.625 c -0.11,0.315 -0.184,0.555 -0.217,0.716 -0.034,0.162 -0.053,0.31 -0.053,0.439 0,0.256 0.065,0.443 0.195,0.562 0.13,0.118 0.329,0.195 0.596,0.234 v 0.312 h -2.725 v -0.312 c 0.239,-0.039 0.445,-0.176 0.623,-0.415 0.176,-0.236 0.348,-0.578 0.514,-1.021 l 2.662,-7.064 h 1.008 l 2.17,7.116 c 0.103,0.332 0.191,0.586 0.271,0.759 0.079,0.176 0.174,0.312 0.284,0.409 0.109,0.097 0.262,0.171 0.453,0.217 v 0.312 h -2.94 z m -2.452,-3.446 h 2.668 l -1.213,-4.116 z"
   id="path84"
   inkscape:connector-curvature="0"
   style="fill:#231f20" />
	<path
   d="m 48.722,87.905 c 0.152,0.256 0.281,0.479 0.386,0.669 0.104,0.192 0.214,0.408 0.323,0.646 h 0.082 C 49.492,88.96 49.473,88.447 49.455,87.671 49.437,86.9 49.431,86.203 49.431,85.583 V 84.24 c 0,-0.293 -0.01,-0.508 -0.025,-0.645 -0.019,-0.138 -0.049,-0.24 -0.094,-0.312 -0.044,-0.072 -0.105,-0.131 -0.185,-0.176 -0.08,-0.045 -0.217,-0.096 -0.411,-0.15 v -0.312 h 2.297 v 0.312 c -0.19,0.053 -0.327,0.1 -0.405,0.142 -0.078,0.043 -0.143,0.099 -0.189,0.166 -0.05,0.067 -0.087,0.17 -0.113,0.307 -0.023,0.137 -0.038,0.359 -0.038,0.67 v 7.155 H 49.47 L 45.914,85.435 C 45.691,85.066 45.536,84.793 45.44,84.623 45.346,84.452 45.26,84.285 45.178,84.119 h -0.107 c 0.029,0.328 0.051,0.921 0.063,1.777 0.012,0.856 0.02,1.712 0.02,2.562 v 1.305 c 0,0.283 0.01,0.493 0.027,0.625 0.021,0.132 0.052,0.234 0.096,0.312 0.047,0.076 0.112,0.142 0.198,0.192 0.087,0.052 0.229,0.103 0.424,0.151 v 0.312 h -2.328 v -0.312 c 0.265,-0.067 0.439,-0.144 0.528,-0.226 0.09,-0.084 0.147,-0.201 0.177,-0.355 0.026,-0.151 0.041,-0.387 0.041,-0.7 V 84.24 c 0,-0.293 -0.012,-0.507 -0.031,-0.641 -0.021,-0.136 -0.058,-0.238 -0.105,-0.312 -0.048,-0.075 -0.113,-0.135 -0.194,-0.18 -0.081,-0.045 -0.22,-0.096 -0.414,-0.15 v -0.312 h 1.996 z"
   id="path86"
   inkscape:connector-curvature="0"
   style="fill:#231f20" />
	<path
   d="m 60.498,87.905 c 0.151,0.256 0.281,0.479 0.387,0.669 0.104,0.192 0.212,0.408 0.322,0.646 H 61.29 C 61.269,88.96 61.25,88.447 61.231,87.671 61.214,86.9 61.207,86.203 61.207,85.583 V 84.24 c 0,-0.293 -0.009,-0.508 -0.025,-0.645 -0.018,-0.138 -0.048,-0.24 -0.093,-0.312 -0.044,-0.072 -0.107,-0.131 -0.187,-0.176 -0.078,-0.045 -0.216,-0.096 -0.41,-0.15 v -0.312 h 2.298 v 0.312 c -0.192,0.053 -0.327,0.1 -0.405,0.142 -0.08,0.043 -0.143,0.099 -0.191,0.166 -0.048,0.067 -0.086,0.17 -0.111,0.307 -0.025,0.137 -0.038,0.359 -0.038,0.67 v 7.155 h -0.798 l -3.556,-5.962 c -0.222,-0.369 -0.379,-0.642 -0.474,-0.812 -0.093,-0.171 -0.179,-0.338 -0.261,-0.504 h -0.108 c 0.03,0.328 0.051,0.921 0.064,1.777 0.012,0.856 0.019,1.712 0.019,2.562 v 1.305 c 0,0.283 0.01,0.493 0.028,0.625 0.018,0.132 0.052,0.234 0.096,0.312 0.045,0.076 0.111,0.142 0.198,0.192 0.087,0.052 0.229,0.103 0.424,0.151 v 0.312 h -2.33 v -0.312 c 0.266,-0.067 0.441,-0.144 0.53,-0.226 0.09,-0.084 0.147,-0.201 0.176,-0.355 0.027,-0.151 0.042,-0.387 0.042,-0.7 V 84.24 c 0,-0.293 -0.012,-0.507 -0.033,-0.641 -0.021,-0.136 -0.056,-0.238 -0.104,-0.312 -0.048,-0.075 -0.112,-0.135 -0.193,-0.18 -0.082,-0.045 -0.219,-0.096 -0.416,-0.15 v -0.312 h 1.999 z"
   id="path88"
   inkscape:connector-curvature="0"
   style="fill:#231f20" />
	<path
   d="m 70.237,82.646 v 1.928 h -0.626 c -0.062,-0.209 -0.129,-0.391 -0.196,-0.548 -0.069,-0.159 -0.141,-0.29 -0.21,-0.397 -0.073,-0.104 -0.153,-0.189 -0.24,-0.255 -0.087,-0.062 -0.19,-0.106 -0.31,-0.131 -0.119,-0.023 -0.262,-0.034 -0.429,-0.034 h -2.017 v 3.345 h 1.365 c 0.188,0 0.334,-0.026 0.44,-0.08 0.105,-0.054 0.193,-0.145 0.266,-0.271 0.068,-0.127 0.137,-0.327 0.199,-0.6 h 0.602 v 2.451 H 68.48 c -0.06,-0.256 -0.126,-0.447 -0.195,-0.577 -0.073,-0.129 -0.16,-0.225 -0.26,-0.278 -0.101,-0.055 -0.251,-0.082 -0.45,-0.082 H 66.21 v 3.682 h 1.984 c 0.208,0 0.378,-0.017 0.509,-0.054 0.13,-0.036 0.239,-0.099 0.335,-0.186 0.093,-0.088 0.176,-0.2 0.248,-0.343 0.071,-0.139 0.134,-0.284 0.182,-0.437 0.05,-0.151 0.117,-0.371 0.201,-0.66 H 70.3 l -0.121,2.239 h -5.91 v -0.312 c 0.265,-0.069 0.44,-0.146 0.529,-0.228 0.091,-0.084 0.148,-0.201 0.177,-0.355 0.026,-0.151 0.041,-0.387 0.041,-0.7 v -5.521 c 0,-0.293 -0.012,-0.507 -0.032,-0.641 -0.021,-0.136 -0.056,-0.238 -0.104,-0.312 -0.048,-0.075 -0.113,-0.135 -0.194,-0.18 -0.081,-0.045 -0.219,-0.096 -0.415,-0.15 v -0.312 z"
   id="path90"
   inkscape:connector-curvature="0"
   style="fill:#231f20" />
	<path
   d="m 71.437,82.646 h 6.906 v 2.222 H 77.717 C 77.623,84.502 77.53,84.213 77.44,84 c -0.092,-0.213 -0.188,-0.374 -0.291,-0.483 -0.102,-0.111 -0.211,-0.19 -0.329,-0.236 -0.115,-0.048 -0.292,-0.07 -0.524,-0.07 h -0.812 v 6.536 c 0,0.25 0.016,0.45 0.041,0.599 0.028,0.149 0.071,0.268 0.128,0.354 0.06,0.087 0.137,0.155 0.233,0.204 0.096,0.049 0.251,0.098 0.459,0.146 v 0.312 H 73.428 V 91.05 c 0.128,-0.031 0.241,-0.062 0.339,-0.097 0.099,-0.035 0.179,-0.076 0.239,-0.126 0.062,-0.049 0.113,-0.111 0.153,-0.187 0.041,-0.077 0.071,-0.183 0.096,-0.313 0.023,-0.132 0.035,-0.325 0.035,-0.58 v -6.536 h -0.805 c -0.199,0 -0.364,0.02 -0.493,0.058 -0.132,0.039 -0.251,0.118 -0.361,0.239 -0.11,0.12 -0.211,0.294 -0.303,0.518 -0.094,0.224 -0.179,0.505 -0.26,0.846 h -0.632 z"
   id="path92"
   inkscape:connector-curvature="0"
   style="fill:#231f20" />
	<path
   d="m 84.77,84.272 -2.042,7.131 H 81.693 L 79.838,84.47 C 79.761,84.182 79.691,83.945 79.627,83.762 79.563,83.579 79.5,83.435 79.435,83.33 79.373,83.226 79.303,83.146 79.229,83.095 79.154,83.04 79.046,82.995 78.908,82.956 v -0.312 h 2.729 v 0.312 c -0.263,0.052 -0.447,0.128 -0.552,0.229 -0.104,0.103 -0.155,0.245 -0.155,0.429 0,0.148 0.02,0.324 0.057,0.529 0.039,0.204 0.094,0.437 0.161,0.695 l 1.281,5.041 2.055,-7.236 h 1.074 l 1.665,7.245 1.507,-4.869 c 0.184,-0.595 0.273,-1.016 0.273,-1.268 0,-0.257 -0.054,-0.444 -0.163,-0.562 -0.107,-0.113 -0.287,-0.192 -0.539,-0.235 v -0.312 h 2.516 v 0.312 c -0.128,0.043 -0.229,0.091 -0.307,0.146 -0.077,0.052 -0.15,0.125 -0.221,0.216 -0.07,0.092 -0.147,0.232 -0.229,0.426 -0.084,0.19 -0.18,0.448 -0.29,0.771 l -2.324,6.889 h -0.912 z"
   id="path94"
   inkscape:connector-curvature="0"
   style="fill:#231f20" />
	<path
   d="m 94.727,91.459 c -0.509,0 -0.975,-0.084 -1.393,-0.252 -0.42,-0.168 -0.779,-0.429 -1.08,-0.785 -0.299,-0.354 -0.531,-0.81 -0.695,-1.361 -0.163,-0.554 -0.246,-1.215 -0.246,-1.986 0,-0.948 0.146,-1.763 0.436,-2.443 0.289,-0.681 0.703,-1.198 1.241,-1.555 0.537,-0.354 1.162,-0.532 1.874,-0.532 0.757,0 1.395,0.168 1.91,0.501 0.518,0.334 0.906,0.825 1.168,1.475 0.262,0.648 0.394,1.439 0.394,2.371 0,0.996 -0.148,1.836 -0.447,2.521 -0.298,0.686 -0.718,1.196 -1.261,1.538 -0.544,0.339 -1.176,0.508 -1.901,0.508 m -2.099,-4.563 c 0,1.307 0.188,2.301 0.57,2.979 0.382,0.683 0.938,1.021 1.67,1.021 0.463,0 0.856,-0.147 1.181,-0.443 0.323,-0.295 0.565,-0.729 0.728,-1.297 0.162,-0.571 0.242,-1.237 0.242,-1.999 0,-0.928 -0.095,-1.696 -0.284,-2.308 -0.188,-0.61 -0.446,-1.055 -0.774,-1.331 -0.327,-0.275 -0.708,-0.415 -1.144,-0.415 -0.383,0 -0.711,0.089 -0.983,0.269 -0.276,0.18 -0.503,0.434 -0.686,0.764 -0.181,0.329 -0.312,0.728 -0.395,1.195 -0.083,0.467 -0.125,0.991 -0.125,1.565"
   id="path96"
   inkscape:connector-curvature="0"
   style="fill:#231f20" />
	<path
   d="m 101.812,87.573 v 2.171 c 0,0.307 0.014,0.528 0.035,0.666 0.022,0.139 0.059,0.243 0.105,0.312 0.046,0.07 0.11,0.127 0.189,0.173 0.082,0.045 0.221,0.095 0.416,0.15 v 0.312 h -2.692 v -0.312 c 0.264,-0.069 0.44,-0.146 0.529,-0.228 0.09,-0.084 0.147,-0.201 0.177,-0.355 0.026,-0.151 0.04,-0.387 0.04,-0.7 V 84.24 c 0,-0.293 -0.011,-0.507 -0.031,-0.641 -0.021,-0.136 -0.057,-0.238 -0.105,-0.312 -0.048,-0.075 -0.113,-0.135 -0.192,-0.18 -0.082,-0.045 -0.221,-0.096 -0.416,-0.15 v -0.312 h 3.159 c 0.995,0 1.74,0.181 2.233,0.542 0.493,0.361 0.741,0.925 0.741,1.686 0,0.584 -0.161,1.078 -0.482,1.487 -0.321,0.407 -0.804,0.729 -1.444,0.958 v 0.052 c 0.259,0.105 0.481,0.257 0.666,0.455 0.187,0.197 0.391,0.505 0.616,0.923 l 0.573,1.047 c 0.166,0.308 0.31,0.54 0.429,0.701 0.119,0.162 0.239,0.285 0.363,0.371 0.123,0.084 0.287,0.145 0.491,0.18 v 0.312 h -1.769 c -0.161,-0.227 -0.314,-0.469 -0.46,-0.729 -0.145,-0.259 -0.286,-0.522 -0.428,-0.791 l -0.562,-1.064 c -0.171,-0.323 -0.311,-0.562 -0.418,-0.715 -0.108,-0.153 -0.208,-0.263 -0.301,-0.321 -0.092,-0.063 -0.188,-0.106 -0.294,-0.13 -0.104,-0.022 -0.26,-0.034 -0.47,-0.034 h -0.7 v -0.002 z m 0,-4.341 v 3.792 h 0.722 c 0.369,0 0.67,-0.027 0.898,-0.081 0.23,-0.052 0.443,-0.153 0.641,-0.303 0.194,-0.148 0.352,-0.354 0.469,-0.621 0.117,-0.267 0.176,-0.594 0.176,-0.98 0,-0.405 -0.069,-0.74 -0.208,-1.008 -0.139,-0.269 -0.348,-0.473 -0.628,-0.613 -0.282,-0.14 -0.659,-0.21 -1.137,-0.21 -0.384,-0.001 -0.694,0.007 -0.933,0.024"
   id="path98"
   inkscape:connector-curvature="0"
   style="fill:#231f20" />
	<path
   d="m 109.919,86.583 h 0.189 c 0.162,0 0.311,-0.025 0.444,-0.077 0.134,-0.05 0.283,-0.146 0.449,-0.285 0.166,-0.143 0.42,-0.402 0.76,-0.786 0.409,-0.455 0.688,-0.786 0.837,-0.989 0.188,-0.242 0.312,-0.446 0.376,-0.613 0.051,-0.122 0.077,-0.241 0.077,-0.356 0,-0.17 -0.05,-0.294 -0.146,-0.372 -0.099,-0.08 -0.231,-0.127 -0.401,-0.146 v -0.312 h 2.781 v 0.312 c -0.136,0.029 -0.27,0.082 -0.401,0.156 -0.131,0.074 -0.267,0.177 -0.405,0.306 -0.138,0.13 -0.341,0.346 -0.608,0.643 l -2.146,2.415 2.324,3.375 c 0.248,0.356 0.44,0.605 0.581,0.751 0.141,0.142 0.274,0.246 0.401,0.312 0.128,0.064 0.265,0.109 0.408,0.13 v 0.312 h -2.814 v -0.312 c 0.158,-0.013 0.271,-0.042 0.345,-0.09 0.072,-0.045 0.109,-0.116 0.109,-0.21 0,-0.077 -0.024,-0.169 -0.074,-0.276 -0.048,-0.108 -0.126,-0.239 -0.233,-0.393 l -1.485,-2.216 c -0.175,-0.265 -0.303,-0.438 -0.383,-0.523 -0.082,-0.086 -0.168,-0.146 -0.263,-0.188 -0.094,-0.04 -0.219,-0.061 -0.376,-0.061 h -0.34 v 2.674 c 0,0.283 0.011,0.493 0.029,0.625 0.02,0.132 0.052,0.234 0.096,0.312 0.046,0.076 0.111,0.142 0.198,0.192 0.088,0.052 0.229,0.103 0.424,0.151 v 0.312 h -2.687 v -0.312 c 0.264,-0.067 0.439,-0.144 0.529,-0.226 0.089,-0.084 0.146,-0.201 0.175,-0.355 0.028,-0.151 0.041,-0.387 0.041,-0.7 V 84.24 c 0,-0.293 -0.01,-0.507 -0.029,-0.641 -0.021,-0.136 -0.059,-0.238 -0.106,-0.312 -0.049,-0.075 -0.113,-0.135 -0.194,-0.18 -0.08,-0.045 -0.22,-0.096 -0.414,-0.15 v -0.312 h 2.687 v 0.312 c -0.188,0.048 -0.32,0.095 -0.404,0.142 -0.082,0.048 -0.148,0.104 -0.198,0.176 -0.049,0.069 -0.086,0.175 -0.107,0.315 -0.023,0.141 -0.036,0.357 -0.036,0.65 z"
   id="path100"
   inkscape:connector-curvature="0"
   style="fill:#231f20" />
	<path
   d="m 124.912,82.646 v 1.928 h -0.625 c -0.095,-0.289 -0.186,-0.521 -0.272,-0.702 -0.087,-0.178 -0.179,-0.313 -0.272,-0.407 -0.097,-0.096 -0.208,-0.159 -0.335,-0.198 -0.129,-0.038 -0.297,-0.058 -0.506,-0.058 h -1.868 v 3.473 h 1.313 c 0.188,0 0.333,-0.031 0.44,-0.094 0.105,-0.062 0.193,-0.166 0.265,-0.31 0.069,-0.146 0.137,-0.369 0.201,-0.669 h 0.6 v 2.69 h -0.6 c -0.064,-0.287 -0.133,-0.507 -0.205,-0.652 -0.071,-0.146 -0.157,-0.251 -0.259,-0.312 -0.1,-0.062 -0.247,-0.093 -0.442,-0.093 h -1.313 v 2.503 c 0,0.255 0.014,0.459 0.044,0.612 0.029,0.153 0.079,0.272 0.146,0.363 0.067,0.09 0.159,0.155 0.273,0.2 0.114,0.044 0.258,0.085 0.428,0.126 v 0.312 h -2.833 v -0.312 c 0.264,-0.069 0.439,-0.146 0.529,-0.228 0.09,-0.084 0.146,-0.201 0.176,-0.355 0.027,-0.151 0.042,-0.387 0.042,-0.7 v -5.521 c 0,-0.293 -0.012,-0.507 -0.033,-0.641 -0.021,-0.136 -0.056,-0.238 -0.104,-0.312 -0.049,-0.075 -0.113,-0.135 -0.193,-0.18 -0.082,-0.045 -0.219,-0.096 -0.415,-0.15 v -0.312 z"
   id="path102"
   inkscape:connector-curvature="0"
   style="fill:#231f20" />
	<path
   d="m 129.412,91.459 c -0.511,0 -0.977,-0.084 -1.395,-0.252 -0.42,-0.168 -0.78,-0.429 -1.08,-0.785 -0.299,-0.354 -0.53,-0.81 -0.694,-1.361 -0.164,-0.553 -0.246,-1.215 -0.246,-1.986 0,-0.948 0.145,-1.763 0.435,-2.443 0.289,-0.681 0.702,-1.198 1.241,-1.555 0.538,-0.354 1.163,-0.532 1.874,-0.532 0.757,0 1.394,0.168 1.911,0.501 0.517,0.334 0.904,0.825 1.169,1.475 0.26,0.648 0.392,1.439 0.392,2.371 0,0.996 -0.148,1.836 -0.447,2.521 -0.298,0.686 -0.718,1.196 -1.26,1.538 -0.545,0.339 -1.177,0.508 -1.9,0.508 m -2.101,-4.563 c 0,1.307 0.189,2.301 0.57,2.979 0.382,0.683 0.938,1.021 1.669,1.021 0.464,0 0.858,-0.147 1.181,-0.443 0.324,-0.295 0.566,-0.729 0.729,-1.297 0.162,-0.571 0.243,-1.237 0.243,-1.999 0,-0.928 -0.097,-1.696 -0.285,-2.308 -0.189,-0.61 -0.447,-1.055 -0.775,-1.331 -0.327,-0.275 -0.708,-0.415 -1.143,-0.415 -0.383,0 -0.712,0.089 -0.985,0.269 -0.274,0.18 -0.503,0.434 -0.684,0.764 -0.182,0.329 -0.312,0.728 -0.396,1.195 -0.082,0.469 -0.124,0.991 -0.124,1.565"
   id="path104"
   inkscape:connector-curvature="0"
   style="fill:#231f20" />
	<path
   d="m 136.497,87.573 v 2.171 c 0,0.307 0.012,0.528 0.035,0.666 0.022,0.139 0.058,0.243 0.104,0.312 0.047,0.07 0.11,0.127 0.191,0.173 0.081,0.045 0.219,0.095 0.415,0.15 v 0.312 h -2.693 v -0.312 c 0.264,-0.069 0.438,-0.146 0.528,-0.228 0.091,-0.084 0.147,-0.201 0.177,-0.355 0.027,-0.151 0.042,-0.387 0.042,-0.7 V 84.24 c 0,-0.293 -0.012,-0.507 -0.033,-0.641 -0.021,-0.136 -0.056,-0.238 -0.104,-0.312 -0.049,-0.075 -0.113,-0.135 -0.193,-0.18 -0.082,-0.045 -0.22,-0.096 -0.415,-0.15 v -0.312 h 3.159 c 0.994,0 1.74,0.181 2.233,0.542 0.492,0.361 0.74,0.924 0.74,1.686 0,0.584 -0.162,1.078 -0.482,1.487 -0.319,0.407 -0.803,0.729 -1.445,0.958 v 0.052 c 0.26,0.105 0.483,0.257 0.668,0.455 0.185,0.197 0.391,0.505 0.614,0.923 l 0.574,1.047 c 0.165,0.308 0.31,0.54 0.429,0.701 0.119,0.162 0.238,0.285 0.362,0.371 0.124,0.084 0.288,0.145 0.492,0.18 v 0.312 h -1.769 c -0.16,-0.227 -0.313,-0.469 -0.459,-0.729 -0.146,-0.259 -0.286,-0.522 -0.428,-0.791 l -0.562,-1.064 c -0.171,-0.323 -0.31,-0.562 -0.418,-0.715 -0.109,-0.153 -0.209,-0.263 -0.3,-0.321 -0.091,-0.063 -0.188,-0.106 -0.294,-0.13 -0.104,-0.022 -0.262,-0.034 -0.471,-0.034 h -0.698 v -0.002 z m 0,-4.341 v 3.792 h 0.721 c 0.37,0 0.671,-0.027 0.899,-0.081 0.229,-0.052 0.442,-0.153 0.639,-0.303 0.196,-0.148 0.353,-0.354 0.469,-0.621 0.119,-0.267 0.176,-0.594 0.176,-0.98 0,-0.405 -0.068,-0.74 -0.206,-1.008 -0.14,-0.269 -0.349,-0.473 -0.629,-0.613 -0.281,-0.14 -0.659,-0.21 -1.136,-0.21 -0.385,-0.001 -0.697,0.007 -0.933,0.024"
   id="path106"
   inkscape:connector-curvature="0"
   style="fill:#231f20" />
	<path
   d="m 145.546,91.357 v -0.312 c 0.265,-0.067 0.439,-0.144 0.53,-0.226 0.09,-0.084 0.147,-0.201 0.176,-0.355 0.026,-0.151 0.041,-0.387 0.041,-0.7 v -5.521 c 0,-0.293 -0.01,-0.508 -0.032,-0.641 -0.021,-0.136 -0.056,-0.238 -0.104,-0.312 -0.051,-0.075 -0.115,-0.135 -0.195,-0.18 -0.08,-0.045 -0.219,-0.096 -0.415,-0.15 v -0.312 h 3.492 c 0.676,0 1.221,0.072 1.631,0.216 0.41,0.146 0.716,0.36 0.916,0.643 0.199,0.283 0.3,0.648 0.3,1.096 0,0.371 -0.071,0.691 -0.215,0.965 -0.143,0.271 -0.328,0.496 -0.56,0.676 -0.229,0.179 -0.524,0.343 -0.886,0.498 v 0.057 c 0.577,0.175 1.018,0.444 1.314,0.809 0.298,0.361 0.446,0.797 0.446,1.3 0,0.578 -0.129,1.05 -0.387,1.416 -0.258,0.366 -0.618,0.632 -1.081,0.795 -0.464,0.164 -1.025,0.245 -1.687,0.245 h -3.286 v -0.007 z m 3.057,-4.805 c 0.647,0 1.143,-0.156 1.484,-0.47 0.343,-0.312 0.514,-0.767 0.514,-1.362 0,-0.293 -0.048,-0.537 -0.144,-0.73 -0.098,-0.193 -0.229,-0.348 -0.396,-0.464 -0.168,-0.113 -0.366,-0.196 -0.596,-0.245 -0.23,-0.05 -0.48,-0.072 -0.747,-0.072 -0.163,0 -0.375,0.004 -0.64,0.013 -0.265,0.008 -0.461,0.018 -0.595,0.024 v 3.308 z m -1.117,4.198 c 0.312,0.03 0.657,0.045 1.041,0.045 0.559,0 0.991,-0.069 1.3,-0.21 0.309,-0.142 0.529,-0.349 0.67,-0.622 0.139,-0.273 0.207,-0.618 0.207,-1.03 0,-0.413 -0.074,-0.754 -0.227,-1.021 -0.15,-0.269 -0.384,-0.469 -0.7,-0.601 -0.313,-0.132 -0.749,-0.197 -1.302,-0.197 h -0.989 z"
   id="path108"
   inkscape:connector-curvature="0"
   style="fill:#231f20" />
	<path
   d="m 155.484,89.763 c 0,0.283 0.012,0.493 0.028,0.625 0.021,0.132 0.051,0.234 0.097,0.312 0.044,0.076 0.108,0.142 0.196,0.192 0.088,0.052 0.229,0.103 0.426,0.151 v 0.312 h -2.693 v -0.312 c 0.264,-0.067 0.44,-0.144 0.529,-0.226 0.091,-0.084 0.148,-0.201 0.177,-0.355 0.026,-0.151 0.042,-0.388 0.042,-0.7 V 84.24 c 0,-0.293 -0.013,-0.507 -0.033,-0.641 -0.021,-0.136 -0.057,-0.238 -0.105,-0.312 -0.049,-0.075 -0.112,-0.135 -0.192,-0.18 -0.082,-0.045 -0.221,-0.096 -0.416,-0.15 v -0.312 h 2.693 v 0.312 c -0.187,0.048 -0.322,0.095 -0.404,0.142 -0.084,0.048 -0.15,0.104 -0.198,0.176 -0.049,0.069 -0.084,0.175 -0.108,0.315 -0.021,0.141 -0.035,0.357 -0.035,0.65 v 5.522 h -0.004 z"
   id="path110"
   inkscape:connector-curvature="0"
   style="fill:#231f20" />
	<path
   d="m 161.178,91.459 c -0.511,0 -0.976,-0.084 -1.395,-0.252 -0.419,-0.168 -0.779,-0.429 -1.079,-0.785 -0.301,-0.354 -0.531,-0.81 -0.694,-1.361 -0.165,-0.554 -0.247,-1.215 -0.247,-1.986 0,-0.948 0.146,-1.763 0.436,-2.443 0.288,-0.681 0.702,-1.198 1.24,-1.555 0.539,-0.354 1.163,-0.532 1.874,-0.532 0.757,0 1.395,0.168 1.91,0.501 0.52,0.334 0.906,0.825 1.169,1.475 0.261,0.648 0.394,1.439 0.394,2.371 0,0.996 -0.149,1.836 -0.448,2.521 -0.296,0.686 -0.717,1.196 -1.259,1.538 -0.544,0.339 -1.178,0.508 -1.901,0.508 m -2.1,-4.563 c 0,1.307 0.189,2.301 0.57,2.979 0.381,0.683 0.938,1.021 1.67,1.021 0.464,0 0.856,-0.147 1.181,-0.443 0.324,-0.295 0.566,-0.729 0.729,-1.297 0.161,-0.571 0.242,-1.237 0.242,-1.999 0,-0.928 -0.095,-1.696 -0.284,-2.308 -0.188,-0.61 -0.446,-1.055 -0.774,-1.331 -0.327,-0.275 -0.709,-0.415 -1.144,-0.415 -0.383,0 -0.711,0.089 -0.985,0.269 -0.274,0.18 -0.504,0.434 -0.683,0.764 -0.182,0.329 -0.312,0.728 -0.396,1.195 -0.083,0.469 -0.126,0.991 -0.126,1.565"
   id="path112"
   inkscape:connector-curvature="0"
   style="fill:#231f20" />
	<path
   d="m 168.264,89.763 c 0,0.283 0.01,0.493 0.027,0.625 0.021,0.132 0.052,0.234 0.097,0.312 0.045,0.076 0.11,0.142 0.197,0.192 0.088,0.052 0.229,0.103 0.426,0.151 v 0.312 h -2.695 v -0.312 c 0.266,-0.067 0.441,-0.144 0.53,-0.226 0.091,-0.084 0.148,-0.201 0.177,-0.355 0.027,-0.151 0.042,-0.388 0.042,-0.7 V 84.24 c 0,-0.293 -0.012,-0.507 -0.033,-0.641 -0.021,-0.136 -0.056,-0.238 -0.104,-0.312 -0.049,-0.075 -0.113,-0.135 -0.193,-0.18 -0.082,-0.045 -0.22,-0.096 -0.417,-0.15 v -0.312 h 2.695 v 0.312 c -0.188,0.048 -0.323,0.095 -0.405,0.142 -0.084,0.048 -0.148,0.104 -0.197,0.176 -0.05,0.069 -0.085,0.175 -0.108,0.315 -0.023,0.14 -0.035,0.357 -0.035,0.65 v 5.522 h -0.004 z"
   id="path114"
   inkscape:connector-curvature="0"
   style="fill:#231f20" />
	<path
   d="m 175.68,87.905 c 0.154,0.256 0.282,0.479 0.386,0.669 0.105,0.192 0.213,0.408 0.324,0.646 h 0.082 c -0.021,-0.26 -0.04,-0.773 -0.059,-1.549 -0.018,-0.771 -0.023,-1.468 -0.023,-2.088 V 84.24 c 0,-0.293 -0.009,-0.508 -0.025,-0.645 -0.018,-0.138 -0.049,-0.24 -0.094,-0.312 -0.045,-0.072 -0.104,-0.131 -0.186,-0.176 -0.078,-0.045 -0.216,-0.096 -0.411,-0.15 v -0.312 h 2.299 v 0.312 c -0.193,0.053 -0.327,0.1 -0.407,0.142 -0.077,0.043 -0.142,0.099 -0.188,0.166 -0.051,0.067 -0.087,0.17 -0.113,0.307 -0.024,0.137 -0.037,0.359 -0.037,0.67 v 7.155 h -0.799 l -3.555,-5.962 c -0.223,-0.369 -0.38,-0.642 -0.474,-0.812 -0.093,-0.171 -0.181,-0.338 -0.262,-0.504 h -0.107 c 0.027,0.328 0.051,0.921 0.063,1.777 0.012,0.856 0.018,1.712 0.018,2.562 v 1.305 c 0,0.283 0.011,0.493 0.029,0.625 0.021,0.132 0.051,0.234 0.096,0.312 0.046,0.076 0.111,0.142 0.197,0.192 0.088,0.052 0.229,0.103 0.425,0.151 v 0.312 h -2.328 v -0.312 c 0.264,-0.067 0.438,-0.144 0.528,-0.226 0.09,-0.084 0.148,-0.201 0.176,-0.355 0.027,-0.151 0.042,-0.387 0.042,-0.7 V 84.24 c 0,-0.293 -0.012,-0.507 -0.031,-0.641 -0.021,-0.136 -0.059,-0.238 -0.106,-0.312 -0.048,-0.075 -0.113,-0.135 -0.192,-0.18 -0.081,-0.045 -0.221,-0.096 -0.415,-0.15 v -0.312 h 1.997 z"
   id="path116"
   inkscape:connector-curvature="0"
   style="fill:#231f20" />
	<path
   d="m 185.272,82.646 v 1.928 h -0.625 c -0.094,-0.289 -0.186,-0.521 -0.271,-0.702 -0.088,-0.178 -0.18,-0.313 -0.273,-0.407 -0.098,-0.096 -0.209,-0.159 -0.336,-0.198 -0.128,-0.038 -0.295,-0.058 -0.504,-0.058 h -1.87 v 3.473 h 1.315 c 0.187,0 0.334,-0.031 0.439,-0.094 0.105,-0.062 0.193,-0.166 0.266,-0.31 0.068,-0.146 0.137,-0.369 0.199,-0.669 h 0.602 v 2.69 h -0.602 c -0.062,-0.287 -0.132,-0.507 -0.203,-0.652 -0.072,-0.146 -0.16,-0.251 -0.26,-0.312 -0.1,-0.061 -0.246,-0.093 -0.441,-0.093 h -1.315 v 2.503 c 0,0.255 0.017,0.459 0.045,0.612 0.028,0.153 0.078,0.272 0.146,0.363 0.068,0.09 0.16,0.155 0.273,0.2 0.116,0.044 0.26,0.085 0.43,0.126 v 0.312 h -2.836 v -0.312 c 0.266,-0.069 0.441,-0.146 0.531,-0.228 0.09,-0.084 0.148,-0.201 0.176,-0.355 0.027,-0.151 0.041,-0.387 0.041,-0.7 v -5.521 c 0,-0.293 -0.012,-0.507 -0.031,-0.641 -0.021,-0.136 -0.057,-0.238 -0.104,-0.312 -0.051,-0.075 -0.114,-0.135 -0.194,-0.18 -0.082,-0.045 -0.22,-0.096 -0.416,-0.15 v -0.312 z"
   id="path118"
   inkscape:connector-curvature="0"
   style="fill:#231f20" />
	<path
   d="m 189.772,91.459 c -0.51,0 -0.975,-0.084 -1.395,-0.252 -0.42,-0.168 -0.777,-0.429 -1.078,-0.785 -0.301,-0.354 -0.531,-0.81 -0.694,-1.361 -0.165,-0.554 -0.247,-1.215 -0.247,-1.986 0,-0.948 0.145,-1.763 0.436,-2.443 0.287,-0.681 0.703,-1.198 1.24,-1.555 0.539,-0.354 1.162,-0.532 1.873,-0.532 0.758,0 1.396,0.168 1.912,0.501 0.518,0.334 0.905,0.825 1.168,1.475 0.262,0.648 0.393,1.439 0.393,2.371 0,0.996 -0.149,1.836 -0.446,2.521 -0.299,0.686 -0.72,1.196 -1.261,1.538 -0.544,0.339 -1.176,0.508 -1.901,0.508 m -2.1,-4.563 c 0,1.307 0.191,2.301 0.572,2.979 0.381,0.683 0.938,1.021 1.67,1.021 0.463,0 0.855,-0.147 1.18,-0.443 0.324,-0.295 0.566,-0.729 0.729,-1.297 0.161,-0.571 0.242,-1.237 0.242,-1.999 0,-0.928 -0.095,-1.696 -0.283,-2.308 -0.189,-0.61 -0.447,-1.055 -0.775,-1.331 -0.327,-0.275 -0.709,-0.415 -1.143,-0.415 -0.384,0 -0.713,0.089 -0.986,0.269 -0.275,0.18 -0.502,0.434 -0.684,0.764 -0.181,0.329 -0.312,0.728 -0.396,1.195 -0.084,0.467 -0.126,0.991 -0.126,1.565"
   id="path120"
   inkscape:connector-curvature="0"
   style="fill:#231f20" />
	<path
   d="m 196.857,87.573 v 2.171 c 0,0.307 0.013,0.528 0.036,0.666 0.021,0.139 0.057,0.243 0.104,0.312 0.049,0.07 0.111,0.127 0.191,0.173 0.081,0.045 0.219,0.095 0.415,0.15 v 0.312 h -2.692 v -0.312 c 0.264,-0.069 0.439,-0.146 0.528,-0.228 0.09,-0.084 0.149,-0.201 0.177,-0.355 0.027,-0.151 0.041,-0.387 0.041,-0.7 V 84.24 c 0,-0.293 -0.011,-0.507 -0.033,-0.641 -0.02,-0.136 -0.055,-0.238 -0.104,-0.312 -0.049,-0.075 -0.113,-0.135 -0.193,-0.18 -0.082,-0.045 -0.22,-0.096 -0.416,-0.15 v -0.312 h 3.159 c 0.996,0 1.741,0.181 2.234,0.542 0.493,0.361 0.739,0.924 0.739,1.686 0,0.584 -0.16,1.078 -0.481,1.487 -0.321,0.407 -0.803,0.729 -1.444,0.958 v 0.052 c 0.258,0.105 0.482,0.257 0.666,0.455 0.187,0.197 0.391,0.505 0.616,0.923 l 0.575,1.047 c 0.164,0.308 0.309,0.54 0.428,0.701 0.117,0.162 0.239,0.285 0.363,0.371 0.123,0.084 0.286,0.145 0.49,0.18 v 0.312 h -1.768 c -0.162,-0.227 -0.314,-0.469 -0.46,-0.729 -0.146,-0.259 -0.288,-0.522 -0.429,-0.791 l -0.562,-1.064 c -0.168,-0.323 -0.309,-0.562 -0.416,-0.715 -0.108,-0.153 -0.209,-0.263 -0.302,-0.321 -0.091,-0.063 -0.188,-0.106 -0.293,-0.13 -0.104,-0.022 -0.261,-0.034 -0.47,-0.034 h -0.7 v -0.002 z m 0,-4.341 v 3.792 h 0.722 c 0.371,0 0.67,-0.027 0.899,-0.081 0.229,-0.052 0.442,-0.153 0.64,-0.303 0.194,-0.148 0.353,-0.354 0.469,-0.621 0.117,-0.267 0.176,-0.594 0.176,-0.98 0,-0.405 -0.069,-0.74 -0.207,-1.008 -0.139,-0.269 -0.35,-0.473 -0.629,-0.613 -0.281,-0.14 -0.659,-0.21 -1.137,-0.21 -0.383,-0.001 -0.694,0.007 -0.933,0.024"
   id="path122"
   inkscape:connector-curvature="0"
   style="fill:#231f20" />
	<path
   d="m 212.144,82.957 c -0.187,0.048 -0.321,0.095 -0.403,0.142 -0.084,0.048 -0.148,0.104 -0.199,0.176 -0.049,0.069 -0.084,0.175 -0.107,0.315 -0.021,0.141 -0.035,0.357 -0.035,0.65 v 5.522 c 0,0.283 0.01,0.493 0.028,0.625 0.021,0.132 0.051,0.234 0.097,0.312 0.044,0.076 0.109,0.142 0.197,0.192 0.087,0.052 0.229,0.103 0.424,0.151 v 0.312 h -2.661 v -0.312 c 0.243,-0.06 0.411,-0.127 0.505,-0.203 0.094,-0.076 0.158,-0.188 0.19,-0.339 0.034,-0.15 0.052,-0.396 0.052,-0.739 v -2.444 c 0,-0.645 0.01,-1.294 0.029,-1.952 0.02,-0.656 0.041,-1.104 0.066,-1.349 h -0.108 l -2.527,6.323 h -0.733 l -2.35,-6.426 H 204.5 c 0.021,0.259 0.043,0.729 0.06,1.41 0.021,0.682 0.028,1.381 0.028,2.1 v 2.339 c 0,0.283 0.011,0.493 0.029,0.625 0.02,0.132 0.053,0.234 0.096,0.312 0.046,0.076 0.111,0.142 0.197,0.192 0.088,0.052 0.229,0.103 0.426,0.151 v 0.312 h -2.33 v -0.312 c 0.264,-0.067 0.439,-0.144 0.527,-0.226 0.092,-0.084 0.15,-0.201 0.178,-0.355 0.027,-0.152 0.041,-0.387 0.041,-0.7 V 84.24 c 0,-0.293 -0.01,-0.508 -0.032,-0.641 -0.021,-0.136 -0.056,-0.238 -0.104,-0.312 -0.049,-0.075 -0.113,-0.135 -0.193,-0.18 -0.08,-0.045 -0.219,-0.096 -0.416,-0.15 v -0.312 h 2.279 l 2.24,6.211 2.465,-6.211 h 2.155 v 0.312 z"
   id="path124"
   inkscape:connector-curvature="0"
   style="fill:#231f20" />
	<path
   d="m 217.999,91.357 v -0.312 c 0.211,-0.042 0.371,-0.09 0.475,-0.14 0.104,-0.052 0.182,-0.122 0.232,-0.214 0.05,-0.092 0.078,-0.214 0.078,-0.367 0,-0.145 -0.02,-0.302 -0.053,-0.469 -0.033,-0.169 -0.083,-0.356 -0.146,-0.565 l -0.235,-0.823 h -2.976 l -0.217,0.625 c -0.111,0.315 -0.183,0.555 -0.219,0.716 -0.031,0.162 -0.05,0.31 -0.05,0.439 0,0.256 0.065,0.443 0.194,0.562 0.131,0.118 0.328,0.195 0.597,0.234 v 0.312 h -2.726 v -0.312 c 0.238,-0.039 0.445,-0.176 0.623,-0.415 0.178,-0.236 0.348,-0.578 0.514,-1.021 l 2.66,-7.064 h 1.01 l 2.171,7.116 c 0.103,0.332 0.192,0.586 0.271,0.759 0.078,0.176 0.174,0.312 0.285,0.409 0.11,0.098 0.262,0.171 0.451,0.217 v 0.312 h -2.939 z m -2.452,-3.446 h 2.666 l -1.211,-4.116 z"
   id="path126"
   inkscape:connector-curvature="0"
   style="fill:#231f20" />
	<path
   d="m 220.717,82.646 h 6.904 v 2.222 h -0.625 c -0.094,-0.366 -0.187,-0.655 -0.277,-0.868 -0.092,-0.213 -0.188,-0.374 -0.291,-0.483 -0.104,-0.111 -0.211,-0.19 -0.328,-0.236 -0.116,-0.048 -0.293,-0.07 -0.525,-0.07 h -0.812 v 6.536 c 0,0.25 0.014,0.45 0.042,0.599 0.025,0.149 0.07,0.268 0.127,0.354 0.059,0.087 0.136,0.155 0.234,0.204 0.097,0.049 0.25,0.098 0.459,0.146 v 0.312 h -2.918 V 91.05 c 0.129,-0.031 0.24,-0.062 0.34,-0.097 0.097,-0.035 0.176,-0.076 0.238,-0.126 0.062,-0.049 0.112,-0.111 0.152,-0.187 0.04,-0.077 0.072,-0.183 0.098,-0.313 0.022,-0.132 0.033,-0.325 0.033,-0.58 v -6.536 h -0.804 c -0.2,0 -0.366,0.02 -0.495,0.058 -0.13,0.039 -0.25,0.118 -0.359,0.239 -0.111,0.12 -0.213,0.294 -0.305,0.518 -0.091,0.224 -0.177,0.505 -0.259,0.846 h -0.632 v -2.224 h 0.003 z"
   id="path128"
   inkscape:connector-curvature="0"
   style="fill:#231f20" />
	<path
   d="m 230.763,89.763 c 0,0.283 0.01,0.493 0.028,0.625 0.02,0.132 0.051,0.234 0.097,0.312 0.044,0.076 0.108,0.142 0.196,0.192 0.088,0.052 0.229,0.103 0.426,0.151 v 0.312 h -2.694 v -0.312 c 0.265,-0.067 0.44,-0.144 0.53,-0.226 0.089,-0.084 0.148,-0.201 0.176,-0.355 0.027,-0.151 0.041,-0.388 0.041,-0.7 V 84.24 c 0,-0.293 -0.011,-0.507 -0.031,-0.641 -0.021,-0.136 -0.058,-0.238 -0.105,-0.312 -0.049,-0.075 -0.113,-0.135 -0.194,-0.18 -0.081,-0.045 -0.22,-0.096 -0.415,-0.15 v -0.312 h 2.694 v 0.312 c -0.188,0.048 -0.323,0.095 -0.405,0.142 -0.084,0.048 -0.15,0.104 -0.199,0.176 -0.049,0.069 -0.084,0.175 -0.106,0.315 -0.024,0.141 -0.035,0.357 -0.035,0.65 v 5.522 h -0.004 z"
   id="path130"
   inkscape:connector-curvature="0"
   style="fill:#231f20" />
	<path
   d="m 238.933,82.83 v 1.769 h -0.632 c -0.102,-0.37 -0.232,-0.665 -0.391,-0.885 -0.156,-0.22 -0.341,-0.376 -0.549,-0.47 -0.207,-0.093 -0.459,-0.14 -0.754,-0.14 -0.438,0 -0.828,0.146 -1.17,0.438 -0.344,0.292 -0.613,0.729 -0.809,1.314 -0.196,0.585 -0.293,1.293 -0.293,2.122 0,0.833 0.08,1.545 0.242,2.135 0.162,0.59 0.399,1.034 0.715,1.334 0.314,0.301 0.701,0.45 1.162,0.45 0.348,0 0.633,-0.05 0.854,-0.149 0.221,-0.101 0.408,-0.259 0.561,-0.477 0.15,-0.216 0.293,-0.536 0.43,-0.957 h 0.633 v 1.825 c -0.4,0.105 -0.809,0.187 -1.229,0.239 -0.42,0.054 -0.881,0.079 -1.383,0.079 -1.08,0 -1.898,-0.366 -2.451,-1.097 -0.554,-0.732 -0.828,-1.824 -0.828,-3.274 0,-0.912 0.143,-1.709 0.43,-2.394 0.287,-0.688 0.71,-1.215 1.268,-1.59 0.559,-0.374 1.223,-0.562 1.998,-0.562 0.387,0 0.744,0.021 1.071,0.062 0.329,0.043 0.703,0.118 1.125,0.228"
   id="path132"
   inkscape:connector-curvature="0"
   style="fill:#231f20" />
	<path
   d="m 240.905,89.372 c 0.086,0.375 0.2,0.67 0.346,0.889 0.144,0.217 0.332,0.378 0.562,0.48 0.229,0.104 0.524,0.156 0.886,0.156 0.5,0 0.881,-0.129 1.146,-0.39 0.267,-0.261 0.4,-0.639 0.4,-1.137 0,-0.317 -0.057,-0.587 -0.168,-0.804 -0.109,-0.218 -0.291,-0.422 -0.541,-0.612 -0.252,-0.192 -0.636,-0.416 -1.148,-0.672 -0.498,-0.246 -0.893,-0.488 -1.182,-0.724 -0.291,-0.235 -0.506,-0.492 -0.647,-0.771 -0.144,-0.274 -0.215,-0.577 -0.215,-0.905 0,-0.478 0.112,-0.89 0.336,-1.239 0.224,-0.353 0.551,-0.623 0.981,-0.814 0.434,-0.19 0.928,-0.287 1.484,-0.287 0.322,0 0.641,0.018 0.947,0.053 0.309,0.032 0.693,0.108 1.158,0.229 v 1.723 h -0.631 c -0.1,-0.375 -0.222,-0.667 -0.371,-0.874 -0.148,-0.209 -0.322,-0.354 -0.522,-0.438 -0.201,-0.083 -0.46,-0.123 -0.778,-0.123 -0.277,0 -0.525,0.051 -0.744,0.152 -0.22,0.103 -0.393,0.256 -0.521,0.463 -0.129,0.206 -0.19,0.452 -0.19,0.736 0,0.304 0.055,0.559 0.162,0.768 0.108,0.207 0.275,0.4 0.508,0.581 0.229,0.178 0.57,0.378 1.021,0.599 0.544,0.272 0.967,0.526 1.267,0.76 0.301,0.234 0.535,0.5 0.702,0.803 0.169,0.299 0.252,0.648 0.252,1.049 0,0.445 -0.069,0.825 -0.21,1.134 -0.141,0.308 -0.335,0.56 -0.584,0.753 -0.249,0.193 -0.547,0.334 -0.895,0.422 -0.346,0.086 -0.728,0.13 -1.139,0.13 -0.668,0 -1.438,-0.112 -2.311,-0.338 v -1.75 h 0.639 z"
   id="path134"
   inkscape:connector-curvature="0"
   style="fill:#231f20" />
	<path
   d="m 251.633,89.763 c 0,0.283 0.01,0.493 0.027,0.625 0.021,0.132 0.053,0.234 0.098,0.312 0.044,0.076 0.109,0.142 0.197,0.192 0.086,0.052 0.229,0.103 0.424,0.151 v 0.312 h -2.692 v -0.312 c 0.265,-0.067 0.44,-0.144 0.528,-0.226 0.09,-0.084 0.148,-0.201 0.177,-0.355 0.028,-0.151 0.042,-0.388 0.042,-0.7 V 84.24 c 0,-0.293 -0.012,-0.507 -0.033,-0.641 -0.021,-0.136 -0.057,-0.238 -0.105,-0.312 -0.049,-0.075 -0.112,-0.135 -0.192,-0.18 -0.081,-0.045 -0.219,-0.096 -0.415,-0.15 v -0.312 h 2.693 v 0.312 c -0.188,0.048 -0.323,0.095 -0.405,0.142 -0.084,0.048 -0.149,0.104 -0.198,0.176 -0.049,0.069 -0.085,0.175 -0.107,0.315 -0.023,0.141 -0.035,0.357 -0.035,0.65 v 5.522 h -0.004 z"
   id="path136"
   inkscape:connector-curvature="0"
   style="fill:#231f20" />
	<path
   d="m 259.049,87.905 c 0.154,0.256 0.281,0.479 0.387,0.669 0.104,0.192 0.212,0.408 0.322,0.646 h 0.082 c -0.021,-0.26 -0.039,-0.773 -0.057,-1.549 -0.018,-0.771 -0.025,-1.468 -0.025,-2.088 V 84.24 c 0,-0.293 -0.008,-0.508 -0.025,-0.645 -0.018,-0.138 -0.048,-0.24 -0.093,-0.312 -0.044,-0.072 -0.106,-0.131 -0.185,-0.176 -0.08,-0.045 -0.217,-0.096 -0.412,-0.15 v -0.312 h 2.299 v 0.312 c -0.193,0.053 -0.327,0.1 -0.405,0.142 -0.08,0.043 -0.144,0.099 -0.192,0.166 -0.048,0.067 -0.086,0.17 -0.111,0.307 -0.025,0.137 -0.037,0.359 -0.037,0.67 v 7.155 h -0.799 l -3.555,-5.962 c -0.222,-0.369 -0.381,-0.642 -0.474,-0.812 -0.093,-0.171 -0.181,-0.338 -0.263,-0.504 H 255.4 c 0.029,0.328 0.052,0.921 0.063,1.777 0.011,0.856 0.018,1.712 0.018,2.562 v 1.305 c 0,0.283 0.01,0.493 0.029,0.625 0.019,0.132 0.052,0.234 0.096,0.312 0.045,0.076 0.111,0.142 0.197,0.192 0.09,0.052 0.229,0.103 0.425,0.151 v 0.312 h -2.329 v -0.312 c 0.264,-0.067 0.441,-0.144 0.53,-0.226 0.089,-0.084 0.147,-0.201 0.176,-0.355 0.026,-0.151 0.041,-0.387 0.041,-0.7 V 84.24 c 0,-0.293 -0.011,-0.507 -0.032,-0.641 -0.021,-0.136 -0.057,-0.238 -0.104,-0.312 -0.05,-0.075 -0.113,-0.135 -0.194,-0.18 -0.08,-0.045 -0.22,-0.096 -0.415,-0.15 v -0.312 h 1.999 z"
   id="path138"
   inkscape:connector-curvature="0"
   style="fill:#231f20" />
	<path
   d="m 268.644,82.646 v 1.928 h -0.625 c -0.095,-0.289 -0.185,-0.521 -0.272,-0.702 -0.086,-0.178 -0.178,-0.313 -0.272,-0.407 -0.097,-0.096 -0.208,-0.159 -0.335,-0.198 -0.129,-0.038 -0.296,-0.058 -0.506,-0.058 h -1.869 v 3.473 h 1.316 c 0.186,0 0.332,-0.031 0.438,-0.094 0.106,-0.062 0.194,-0.166 0.265,-0.31 0.069,-0.146 0.139,-0.369 0.2,-0.669 h 0.603 v 2.69 h -0.603 c -0.062,-0.287 -0.132,-0.507 -0.204,-0.652 -0.07,-0.146 -0.158,-0.251 -0.259,-0.312 -0.101,-0.061 -0.246,-0.093 -0.44,-0.093 h -1.316 v 2.503 c 0,0.255 0.016,0.459 0.046,0.612 0.028,0.153 0.078,0.272 0.146,0.363 0.068,0.09 0.16,0.155 0.274,0.2 0.114,0.044 0.256,0.085 0.427,0.126 v 0.312 h -2.834 v -0.312 c 0.264,-0.069 0.44,-0.146 0.529,-0.228 0.091,-0.084 0.148,-0.201 0.176,-0.355 0.028,-0.151 0.042,-0.387 0.042,-0.7 v -5.521 c 0,-0.293 -0.011,-0.507 -0.032,-0.641 -0.021,-0.136 -0.056,-0.238 -0.104,-0.312 -0.049,-0.075 -0.115,-0.135 -0.195,-0.18 -0.08,-0.045 -0.219,-0.096 -0.415,-0.15 v -0.312 z"
   id="path140"
   inkscape:connector-curvature="0"
   style="fill:#231f20" />
	<path
   d="m 271.782,87.573 v 2.171 c 0,0.307 0.012,0.528 0.035,0.666 0.023,0.139 0.059,0.243 0.105,0.312 0.047,0.07 0.109,0.127 0.191,0.173 0.079,0.045 0.219,0.095 0.414,0.15 v 0.312 h -2.695 v -0.312 c 0.267,-0.069 0.441,-0.146 0.533,-0.228 0.088,-0.084 0.146,-0.201 0.176,-0.355 0.025,-0.151 0.039,-0.387 0.039,-0.7 V 84.24 c 0,-0.293 -0.01,-0.507 -0.03,-0.641 -0.021,-0.136 -0.058,-0.238 -0.104,-0.312 -0.051,-0.075 -0.115,-0.135 -0.195,-0.18 -0.08,-0.045 -0.219,-0.096 -0.416,-0.15 v -0.312 h 3.16 c 0.996,0 1.74,0.181 2.234,0.542 0.493,0.361 0.739,0.924 0.739,1.686 0,0.584 -0.161,1.078 -0.481,1.487 -0.32,0.407 -0.804,0.729 -1.445,0.958 v 0.052 c 0.261,0.105 0.481,0.257 0.668,0.455 0.186,0.197 0.391,0.505 0.615,0.923 l 0.574,1.047 c 0.165,0.308 0.309,0.54 0.428,0.701 0.119,0.162 0.24,0.285 0.364,0.371 0.122,0.084 0.286,0.145 0.491,0.18 v 0.312 h -1.768 c -0.162,-0.227 -0.315,-0.469 -0.461,-0.729 -0.146,-0.259 -0.287,-0.522 -0.428,-0.791 l -0.562,-1.064 c -0.171,-0.323 -0.31,-0.562 -0.419,-0.715 -0.108,-0.153 -0.209,-0.263 -0.299,-0.321 -0.092,-0.063 -0.19,-0.106 -0.295,-0.13 -0.104,-0.022 -0.262,-0.034 -0.469,-0.034 h -0.701 v -0.002 z m 0,-4.341 v 3.792 h 0.723 c 0.369,0 0.67,-0.027 0.898,-0.081 0.23,-0.052 0.443,-0.153 0.639,-0.303 0.195,-0.148 0.354,-0.354 0.471,-0.621 0.117,-0.267 0.175,-0.594 0.175,-0.98 0,-0.405 -0.067,-0.74 -0.208,-1.008 -0.139,-0.269 -0.348,-0.473 -0.629,-0.613 -0.28,-0.14 -0.659,-0.21 -1.135,-0.21 -0.385,-0.001 -0.695,0.007 -0.934,0.024"
   id="path142"
   inkscape:connector-curvature="0"
   style="fill:#231f20" />
	<path
   d="m 282.265,91.357 v -0.312 c 0.211,-0.042 0.368,-0.09 0.474,-0.14 0.104,-0.052 0.184,-0.122 0.234,-0.214 0.05,-0.092 0.074,-0.214 0.074,-0.367 0,-0.145 -0.016,-0.302 -0.049,-0.469 -0.035,-0.169 -0.084,-0.356 -0.147,-0.565 l -0.235,-0.823 h -2.977 l -0.215,0.625 c -0.111,0.315 -0.186,0.555 -0.219,0.716 -0.033,0.162 -0.051,0.31 -0.051,0.439 0,0.256 0.064,0.443 0.194,0.562 0.129,0.118 0.329,0.195 0.597,0.234 v 0.312 h -2.726 v -0.312 c 0.239,-0.039 0.444,-0.176 0.622,-0.415 0.177,-0.236 0.348,-0.578 0.514,-1.021 l 2.661,-7.064 h 1.011 l 2.17,7.116 c 0.102,0.332 0.191,0.586 0.271,0.759 0.078,0.176 0.172,0.312 0.283,0.409 0.111,0.097 0.263,0.171 0.453,0.217 v 0.312 h -2.939 z m -2.454,-3.446 h 2.669 l -1.214,-4.116 z"
   id="path144"
   inkscape:connector-curvature="0"
   style="fill:#231f20" />
	<path
   d="m 286.489,89.372 c 0.086,0.375 0.2,0.67 0.344,0.889 0.146,0.217 0.332,0.378 0.562,0.48 0.23,0.104 0.525,0.156 0.889,0.156 0.498,0 0.879,-0.129 1.146,-0.39 0.266,-0.261 0.399,-0.639 0.399,-1.137 0,-0.317 -0.058,-0.587 -0.168,-0.804 -0.109,-0.218 -0.291,-0.422 -0.543,-0.612 -0.25,-0.192 -0.633,-0.416 -1.147,-0.672 -0.498,-0.246 -0.892,-0.488 -1.181,-0.724 -0.289,-0.236 -0.506,-0.492 -0.647,-0.771 -0.142,-0.274 -0.214,-0.577 -0.214,-0.905 0,-0.478 0.111,-0.89 0.334,-1.239 0.225,-0.353 0.552,-0.623 0.982,-0.814 0.432,-0.19 0.928,-0.287 1.485,-0.287 0.322,0 0.64,0.018 0.947,0.053 0.309,0.032 0.694,0.108 1.157,0.229 v 1.723 h -0.631 c -0.099,-0.375 -0.223,-0.667 -0.371,-0.874 -0.148,-0.209 -0.322,-0.354 -0.522,-0.438 -0.2,-0.084 -0.459,-0.123 -0.778,-0.123 -0.277,0 -0.523,0.051 -0.744,0.152 -0.219,0.103 -0.394,0.256 -0.521,0.463 -0.128,0.206 -0.19,0.452 -0.19,0.736 0,0.304 0.053,0.559 0.164,0.768 0.106,0.207 0.274,0.4 0.506,0.581 0.229,0.178 0.569,0.378 1.021,0.599 0.546,0.272 0.969,0.526 1.269,0.76 0.299,0.234 0.533,0.5 0.703,0.803 0.168,0.299 0.25,0.648 0.25,1.049 0,0.445 -0.068,0.825 -0.209,1.134 -0.141,0.308 -0.336,0.56 -0.585,0.753 -0.247,0.193 -0.547,0.334 -0.894,0.422 -0.348,0.086 -0.727,0.13 -1.141,0.13 -0.666,0 -1.438,-0.112 -2.311,-0.338 v -1.75 h 0.639 z"
   id="path146"
   inkscape:connector-curvature="0"
   style="fill:#231f20" />
	<path
   d="m 291.881,82.646 h 6.906 v 2.222 h -0.625 c -0.095,-0.366 -0.188,-0.655 -0.277,-0.868 -0.092,-0.213 -0.188,-0.374 -0.291,-0.483 -0.102,-0.111 -0.211,-0.19 -0.328,-0.236 -0.116,-0.048 -0.292,-0.07 -0.525,-0.07 h -0.812 v 6.536 c 0,0.25 0.014,0.45 0.042,0.599 0.025,0.149 0.07,0.268 0.127,0.354 0.059,0.087 0.135,0.155 0.234,0.204 0.096,0.049 0.25,0.098 0.459,0.146 v 0.312 h -2.918 V 91.05 c 0.127,-0.031 0.24,-0.062 0.34,-0.097 0.096,-0.035 0.177,-0.076 0.236,-0.126 0.062,-0.049 0.114,-0.111 0.154,-0.187 0.04,-0.077 0.072,-0.183 0.098,-0.313 0.021,-0.132 0.033,-0.325 0.033,-0.58 v -6.536 h -0.804 c -0.2,0 -0.366,0.02 -0.495,0.058 -0.13,0.039 -0.251,0.118 -0.359,0.239 -0.111,0.12 -0.213,0.294 -0.304,0.518 -0.092,0.224 -0.179,0.505 -0.26,0.846 h -0.632 v -2.226 z"
   id="path148"
   inkscape:connector-curvature="0"
   style="fill:#231f20" />
	<path
   d="m 301.928,87.573 v 2.171 c 0,0.307 0.014,0.528 0.035,0.666 0.023,0.139 0.059,0.243 0.105,0.312 0.047,0.07 0.109,0.127 0.191,0.173 0.08,0.045 0.219,0.095 0.414,0.15 v 0.312 h -2.693 v -0.312 c 0.264,-0.069 0.439,-0.146 0.529,-0.228 0.09,-0.084 0.148,-0.201 0.178,-0.355 0.025,-0.151 0.041,-0.387 0.041,-0.7 V 84.24 c 0,-0.293 -0.012,-0.507 -0.033,-0.641 -0.021,-0.136 -0.057,-0.238 -0.105,-0.312 -0.049,-0.075 -0.111,-0.135 -0.193,-0.18 -0.082,-0.045 -0.219,-0.096 -0.414,-0.15 v -0.312 h 3.158 c 0.996,0 1.74,0.181 2.234,0.542 0.494,0.361 0.74,0.924 0.74,1.686 0,0.584 -0.162,1.078 -0.482,1.487 -0.32,0.407 -0.803,0.729 -1.443,0.958 v 0.052 c 0.258,0.105 0.48,0.257 0.666,0.455 0.186,0.197 0.391,0.505 0.613,0.923 l 0.576,1.047 c 0.166,0.308 0.309,0.54 0.428,0.701 0.119,0.162 0.24,0.285 0.363,0.371 0.123,0.084 0.287,0.145 0.492,0.18 v 0.312 h -1.77 c -0.16,-0.227 -0.314,-0.469 -0.459,-0.729 -0.145,-0.259 -0.287,-0.522 -0.428,-0.791 l -0.562,-1.064 c -0.17,-0.323 -0.309,-0.562 -0.418,-0.715 -0.107,-0.153 -0.207,-0.263 -0.301,-0.321 -0.092,-0.063 -0.188,-0.106 -0.293,-0.13 -0.104,-0.022 -0.262,-0.034 -0.469,-0.034 h -0.701 v -0.002 z m 0,-4.341 v 3.792 h 0.723 c 0.369,0 0.67,-0.027 0.898,-0.081 0.23,-0.052 0.443,-0.153 0.641,-0.303 0.193,-0.148 0.352,-0.354 0.469,-0.621 0.117,-0.267 0.174,-0.594 0.174,-0.98 0,-0.405 -0.068,-0.74 -0.207,-1.008 -0.139,-0.269 -0.348,-0.473 -0.629,-0.613 -0.279,-0.14 -0.66,-0.21 -1.135,-0.21 -0.385,-0.001 -0.695,0.007 -0.934,0.024"
   id="path150"
   inkscape:connector-curvature="0"
   style="fill:#231f20" />
	<path
   d="m 314.215,88.345 c 0,0.464 -0.043,0.863 -0.129,1.199 -0.08,0.32 -0.201,0.603 -0.363,0.85 -0.148,0.222 -0.334,0.41 -0.555,0.565 -0.223,0.155 -0.488,0.275 -0.805,0.366 -0.314,0.089 -0.686,0.134 -1.109,0.134 -0.516,0 -0.957,-0.057 -1.326,-0.173 -0.365,-0.112 -0.672,-0.302 -0.912,-0.563 -0.24,-0.261 -0.412,-0.569 -0.52,-0.926 -0.107,-0.355 -0.16,-0.809 -0.16,-1.355 v -4.2 c 0,-0.332 -0.01,-0.557 -0.031,-0.673 -0.021,-0.117 -0.053,-0.21 -0.094,-0.278 -0.041,-0.066 -0.1,-0.127 -0.178,-0.176 -0.074,-0.049 -0.217,-0.102 -0.426,-0.156 v -0.312 h 2.682 v 0.312 c -0.238,0.061 -0.404,0.128 -0.498,0.201 -0.094,0.075 -0.156,0.187 -0.191,0.335 -0.033,0.15 -0.051,0.397 -0.051,0.747 v 4.52 c 0,0.412 0.043,0.76 0.131,1.039 0.086,0.281 0.209,0.5 0.365,0.654 0.158,0.155 0.346,0.27 0.564,0.34 0.217,0.069 0.484,0.104 0.811,0.104 0.297,0 0.559,-0.052 0.783,-0.156 0.227,-0.104 0.414,-0.264 0.564,-0.476 0.15,-0.213 0.256,-0.476 0.312,-0.785 0.055,-0.311 0.08,-0.729 0.08,-1.251 v -3.989 c 0,-0.37 -0.018,-0.623 -0.053,-0.76 -0.037,-0.137 -0.098,-0.24 -0.18,-0.313 -0.084,-0.069 -0.254,-0.142 -0.514,-0.21 v -0.312 h 2.547 v 0.312 c -0.246,0.064 -0.416,0.135 -0.508,0.21 -0.092,0.077 -0.154,0.188 -0.189,0.332 -0.031,0.146 -0.051,0.393 -0.051,0.741 v 4.104 h 0.004 z"
   id="path152"
   inkscape:connector-curvature="0"
   style="fill:#231f20" />
	<path
   d="m 322.155,82.83 v 1.769 h -0.631 c -0.104,-0.37 -0.234,-0.665 -0.391,-0.885 -0.158,-0.22 -0.342,-0.376 -0.551,-0.47 -0.207,-0.093 -0.459,-0.14 -0.754,-0.14 -0.438,0 -0.826,0.146 -1.17,0.438 -0.342,0.292 -0.611,0.729 -0.809,1.314 -0.195,0.585 -0.293,1.293 -0.293,2.122 0,0.833 0.08,1.545 0.242,2.135 0.162,0.59 0.4,1.034 0.715,1.334 0.316,0.301 0.703,0.45 1.162,0.45 0.35,0 0.635,-0.05 0.855,-0.149 0.221,-0.101 0.408,-0.259 0.559,-0.477 0.152,-0.216 0.295,-0.536 0.432,-0.957 h 0.631 v 1.825 c -0.398,0.105 -0.811,0.187 -1.229,0.239 -0.42,0.054 -0.881,0.079 -1.383,0.079 -1.08,0 -1.896,-0.366 -2.451,-1.097 -0.553,-0.732 -0.828,-1.824 -0.828,-3.274 0,-0.912 0.145,-1.709 0.432,-2.394 0.287,-0.688 0.709,-1.215 1.266,-1.59 0.557,-0.374 1.225,-0.562 1.998,-0.562 0.387,0 0.744,0.021 1.072,0.062 0.331,0.043 0.704,0.118 1.126,0.228"
   id="path154"
   inkscape:connector-curvature="0"
   style="fill:#231f20" />
	<path
   d="m 323.278,82.646 h 6.906 v 2.222 h -0.627 c -0.094,-0.366 -0.186,-0.655 -0.275,-0.868 -0.092,-0.213 -0.189,-0.374 -0.291,-0.483 -0.104,-0.111 -0.211,-0.19 -0.33,-0.236 -0.115,-0.048 -0.291,-0.07 -0.525,-0.07 h -0.811 v 6.536 c 0,0.25 0.014,0.45 0.041,0.599 0.027,0.149 0.07,0.268 0.129,0.354 0.057,0.087 0.135,0.155 0.23,0.204 0.098,0.049 0.252,0.098 0.461,0.146 v 0.312 h -2.918 V 91.05 c 0.127,-0.031 0.24,-0.062 0.34,-0.097 0.098,-0.035 0.178,-0.076 0.238,-0.126 0.062,-0.049 0.111,-0.111 0.152,-0.187 0.041,-0.077 0.074,-0.183 0.096,-0.313 0.023,-0.132 0.035,-0.325 0.035,-0.58 v -6.536 h -0.803 c -0.201,0 -0.365,0.02 -0.494,0.058 -0.131,0.039 -0.252,0.118 -0.361,0.239 -0.109,0.12 -0.213,0.294 -0.303,0.518 -0.092,0.224 -0.18,0.505 -0.26,0.846 h -0.633 v -2.224 h 0.003 z"
   id="path156"
   inkscape:connector-curvature="0"
   style="fill:#231f20" />
	<path
   d="m 337.786,88.345 c 0,0.464 -0.043,0.863 -0.129,1.199 -0.08,0.32 -0.201,0.603 -0.361,0.85 -0.15,0.222 -0.336,0.41 -0.557,0.565 -0.223,0.155 -0.488,0.275 -0.805,0.366 -0.314,0.089 -0.684,0.134 -1.109,0.134 -0.518,0 -0.957,-0.057 -1.324,-0.173 -0.369,-0.112 -0.674,-0.302 -0.914,-0.563 -0.24,-0.261 -0.412,-0.569 -0.52,-0.926 -0.107,-0.354 -0.158,-0.809 -0.158,-1.355 v -4.2 c 0,-0.332 -0.012,-0.557 -0.033,-0.673 -0.02,-0.117 -0.053,-0.21 -0.094,-0.278 -0.039,-0.066 -0.1,-0.127 -0.176,-0.176 -0.076,-0.049 -0.219,-0.102 -0.428,-0.156 v -0.312 h 2.684 v 0.312 c -0.24,0.061 -0.406,0.128 -0.498,0.201 -0.096,0.075 -0.158,0.187 -0.193,0.335 -0.033,0.15 -0.051,0.397 -0.051,0.747 v 4.52 c 0,0.412 0.043,0.76 0.131,1.039 0.088,0.281 0.211,0.5 0.367,0.654 0.158,0.155 0.344,0.27 0.562,0.34 0.217,0.069 0.486,0.104 0.811,0.104 0.299,0 0.559,-0.052 0.785,-0.156 0.227,-0.104 0.414,-0.264 0.564,-0.476 0.15,-0.213 0.254,-0.476 0.311,-0.785 0.055,-0.311 0.082,-0.729 0.082,-1.251 v -3.989 c 0,-0.37 -0.018,-0.623 -0.055,-0.76 -0.035,-0.137 -0.096,-0.24 -0.178,-0.313 -0.084,-0.069 -0.256,-0.142 -0.514,-0.21 v -0.312 h 2.545 v 0.312 c -0.246,0.064 -0.416,0.135 -0.508,0.21 -0.09,0.077 -0.152,0.188 -0.188,0.332 -0.033,0.146 -0.053,0.393 -0.053,0.741 v 4.104 h 0.004 z"
   id="path158"
   inkscape:connector-curvature="0"
   style="fill:#231f20" />
	<path
   d="m 341.793,87.573 v 2.171 c 0,0.307 0.012,0.528 0.035,0.666 0.023,0.139 0.059,0.243 0.104,0.312 0.051,0.07 0.111,0.127 0.191,0.173 0.082,0.045 0.221,0.095 0.416,0.15 v 0.312 h -2.695 v -0.312 c 0.268,-0.069 0.441,-0.146 0.531,-0.228 0.09,-0.084 0.148,-0.201 0.176,-0.355 0.027,-0.151 0.041,-0.387 0.041,-0.7 V 84.24 c 0,-0.293 -0.01,-0.507 -0.031,-0.641 -0.021,-0.136 -0.057,-0.238 -0.105,-0.312 -0.049,-0.075 -0.113,-0.135 -0.195,-0.18 -0.078,-0.045 -0.217,-0.096 -0.414,-0.15 v -0.312 h 3.16 c 0.996,0 1.74,0.181 2.234,0.542 0.494,0.361 0.74,0.924 0.74,1.686 0,0.584 -0.16,1.078 -0.482,1.487 -0.322,0.407 -0.805,0.729 -1.445,0.958 v 0.052 c 0.26,0.105 0.482,0.257 0.668,0.455 0.186,0.197 0.391,0.505 0.615,0.923 l 0.574,1.047 c 0.164,0.308 0.309,0.54 0.428,0.701 0.119,0.162 0.24,0.285 0.365,0.371 0.121,0.084 0.285,0.145 0.49,0.18 v 0.312 h -1.77 c -0.162,-0.227 -0.312,-0.469 -0.459,-0.729 -0.146,-0.259 -0.287,-0.522 -0.428,-0.791 l -0.562,-1.064 c -0.172,-0.323 -0.311,-0.562 -0.418,-0.715 -0.109,-0.153 -0.209,-0.263 -0.301,-0.321 -0.09,-0.063 -0.189,-0.106 -0.293,-0.13 -0.104,-0.022 -0.262,-0.034 -0.469,-0.034 h -0.701 z m 0,-4.341 v 3.792 h 0.723 c 0.369,0 0.668,-0.027 0.898,-0.081 0.229,-0.052 0.443,-0.153 0.639,-0.303 0.195,-0.148 0.354,-0.354 0.471,-0.621 0.115,-0.267 0.174,-0.594 0.174,-0.98 0,-0.405 -0.068,-0.74 -0.207,-1.008 -0.139,-0.269 -0.348,-0.473 -0.627,-0.613 -0.283,-0.14 -0.66,-0.21 -1.139,-0.21 -0.383,-0.001 -0.693,0.007 -0.932,0.024"
   id="path160"
   inkscape:connector-curvature="0"
   style="fill:#231f20" />
	<path
   d="m 353.932,82.646 v 1.928 h -0.625 c -0.062,-0.209 -0.129,-0.391 -0.195,-0.548 -0.068,-0.159 -0.139,-0.29 -0.211,-0.397 -0.072,-0.104 -0.152,-0.189 -0.24,-0.255 -0.088,-0.062 -0.189,-0.106 -0.311,-0.131 -0.117,-0.023 -0.26,-0.034 -0.428,-0.034 h -2.016 v 3.345 h 1.365 c 0.188,0 0.334,-0.026 0.439,-0.08 0.105,-0.054 0.193,-0.145 0.266,-0.271 0.068,-0.127 0.139,-0.327 0.199,-0.6 h 0.602 v 2.451 h -0.602 c -0.059,-0.256 -0.125,-0.447 -0.197,-0.577 -0.07,-0.129 -0.156,-0.225 -0.258,-0.278 -0.1,-0.055 -0.25,-0.082 -0.449,-0.082 h -1.365 v 3.682 h 1.982 c 0.209,0 0.381,-0.017 0.51,-0.054 0.129,-0.036 0.24,-0.099 0.334,-0.186 0.094,-0.088 0.178,-0.2 0.25,-0.343 0.07,-0.139 0.133,-0.284 0.182,-0.437 0.049,-0.151 0.115,-0.371 0.201,-0.66 h 0.631 l -0.119,2.239 h -5.912 v -0.312 c 0.266,-0.069 0.439,-0.146 0.531,-0.228 0.088,-0.084 0.146,-0.201 0.176,-0.355 0.025,-0.151 0.039,-0.387 0.039,-0.7 v -5.521 c 0,-0.293 -0.01,-0.507 -0.031,-0.641 -0.02,-0.136 -0.057,-0.238 -0.104,-0.312 -0.051,-0.075 -0.115,-0.135 -0.195,-0.18 -0.08,-0.045 -0.219,-0.096 -0.416,-0.15 v -0.312 z"
   id="path162"
   inkscape:connector-curvature="0"
   style="fill:#231f20" />
	<path
   d="m 127.541,18.281 c 0.402,1.925 -0.831,3.812 -2.756,4.215 -1.927,0.404 -3.814,-0.83 -4.219,-2.755 -0.402,-1.926 0.831,-3.812 2.758,-4.216 1.926,-0.404 3.812,0.831 4.217,2.756"
   id="path164"
   inkscape:connector-curvature="0"
   style="fill:#929497" />
	<path
   d="m 156.069,71.913 c 0.402,1.926 -0.83,3.813 -2.757,4.217 -1.926,0.404 -3.812,-0.83 -4.217,-2.757 -0.403,-1.925 0.831,-3.812 2.757,-4.216 1.926,-0.403 3.815,0.832 4.217,2.756"
   id="path166"
   inkscape:connector-curvature="0"
   style="fill:#929497" />
	<path
   d="m 175.172,66.916 c 0.403,1.925 -0.83,3.812 -2.756,4.216 -1.926,0.404 -3.814,-0.83 -4.218,-2.756 -0.403,-1.927 0.832,-3.812 2.758,-4.217 1.926,-0.402 3.813,0.831 4.216,2.757"
   id="path168"
   inkscape:connector-curvature="0"
   style="fill:#929497" />
	<path
   d="m 165.957,3.275 c 0.402,1.926 -0.83,3.812 -2.756,4.216 -1.927,0.403 -3.813,-0.831 -4.218,-2.756 -0.402,-1.925 0.831,-3.813 2.758,-4.216 1.926,-0.404 3.813,0.83 4.216,2.756"
   id="path170"
   inkscape:connector-curvature="0"
   style="fill:#929497" />
	<path
   d="m 122.396,30.449 c 0.403,1.926 -0.83,3.813 -2.756,4.216 -1.926,0.403 -3.812,-0.831 -4.217,-2.756 -0.404,-1.926 0.831,-3.812 2.757,-4.216 1.926,-0.404 3.814,0.831 4.216,2.756"
   id="path172"
   inkscape:connector-curvature="0"
   style="fill:#929497" />
	<path
   d="m 191.763,32.101 c 0.403,1.925 -0.83,3.812 -2.755,4.216 -1.928,0.403 -3.815,-0.83 -4.219,-2.756 -0.403,-1.927 0.832,-3.813 2.758,-4.216 1.926,-0.404 3.813,0.829 4.216,2.756"
   id="path174"
   inkscape:connector-curvature="0"
   style="fill:#929497" />
</g>
</svg>