<?xml version="1.0" encoding="UTF-8" standalone="no"?>
<svg
   xmlns:dc="http://purl.org/dc/elements/1.1/"
   xmlns:cc="http://creativecommons.org/ns#"
   xmlns:rdf="http://www.w3.org/1999/02/22-rdf-syntax-ns#"
   xmlns:svg="http://www.w3.org/2000/svg"
   xmlns="http://www.w3.org/2000/svg"
   xmlns:sodipodi="http://sodipodi.sourceforge.net/DTD/sodipodi-0.dtd"
   xmlns:inkscape="http://www.inkscape.org/namespaces/inkscape"
   viewBox="0 0 1939.2213 361.42859"
   version="1.1"
   id="svg68"
   sodipodi:docname="mpi.svg"
   width="1939.2212"
   height="361.42859"
   inkscape:version="0.92.4 5da689c313, 2019-01-14">
  <metadata
     id="metadata72">
    <rdf:RDF>
      <cc:Work
         rdf:about="">
        <dc:format>image/svg+xml</dc:format>
        <dc:type
           rdf:resource="http://purl.org/dc/dcmitype/StillImage" />
        <dc:title></dc:title>
      </cc:Work>
    </rdf:RDF>
  </metadata>
  <sodipodi:namedview
     pagecolor="#ffffff"
     bordercolor="#666666"
     borderopacity="1"
     objecttolerance="10"
     gridtolerance="10"
     guidetolerance="10"
     inkscape:pageopacity="0"
     inkscape:pageshadow="2"
     inkscape:window-width="2556"
     inkscape:window-height="1384"
     id="namedview70"
     showgrid="false"
     fit-margin-top="0"
     fit-margin-left="0"
     fit-margin-right="0"
     fit-margin-bottom="0"
     inkscape:zoom="1.497935"
     inkscape:cx="-43.535212"
     inkscape:cy="383.37372"
     inkscape:window-x="0"
     inkscape:window-y="26"
     inkscape:window-maximized="0"
     inkscape:current-layer="svg68"
     showguides="false" />
  <defs
     id="defs4225" />
  <defs
     id="defs5">
    <style
       id="style3">.minerva-base-style{}</style>
  </defs>
  <rect
     style="opacity:1;fill:#ffffff;fill-opacity:1;stroke:#ffffff;stroke-width:4.77437019;stroke-linecap:butt;stroke-linejoin:round;stroke-miterlimit:6.30000019;stroke-dasharray:none;stroke-dashoffset:0;stroke-opacity:1;paint-order:stroke markers fill"
     id="rect11404-3"
     width="342.20535"
     height="341.75803"
     x="1594.6287"
     y="9.7966604"
     ry="11.032669"
     rx="11.032683" />
  <rect
     style="opacity:1;fill:#ffffff;fill-opacity:1;stroke:#ffffff;stroke-width:7.05871344;stroke-linecap:butt;stroke-linejoin:round;stroke-miterlimit:6.30000019;stroke-dasharray:none;stroke-dashoffset:0;stroke-opacity:1;paint-order:stroke markers fill"
     id="rect11404"
     width="1364.7736"
     height="187.31125"
     x="271.31952"
     y="84.934792"
     ry="20.236553" />
  <g
     transform="matrix(1.4285714,0,0,1.4285714,28.701609,30.715929)"
     style="fill:#006c66"
     id="g51">
    <title
       id="title7">minerva</title>
    <path
       style="fill:#ffffff;stroke-width:1.19802797"
       d="M 137.06051,-17.269931 C 88.154623,-30.382637 36.252522,-12.413885 5.5579526,28.256821 -25.136557,68.927447 -28.578274,124.29 -3.1660673,168.53094 22.24614,212.77186 71.508058,237.17921 121.65244,230.36953 171.79693,223.55983 212.94803,186.87428 225.91548,137.42057 243.55186,69.902111 203.79742,0.69235361 137.06051,-17.269931 Z"
       id="path9-6"
       inkscape:connector-curvature="0"
       sodipodi:nodetypes="cssscc" />
    <path
       d="M 105,0 A 105,105 0 1 0 210,105 105.1,105.1 0 0 0 105,0 Z m 0,207.1 A 102.1,102.1 0 1 1 207.1,105 102.2,102.2 0 0 1 105,207.1 Z"
       id="path9"
       inkscape:connector-curvature="0" />
    <path
       class="minerva-base-style"
       d="m 166.6,97 c -1.4,-3.1 -0.5,-5.1 -0.9,-7.3 -0.4,-2.2 -2.7,-7 -4.3,-10.8 -0.7,-1.7 3.8,-1.3 0.4,-7.6 0,-0.2 4.7,-2 0,-5.5 a 26.4,26.4 0 0 1 -6,-6.7 1,1 0 0 1 0,-1.3 c 2.7,-2.4 2.8,-5.8 -0.1,-7.5 -2.9,-1.7 -4.5,0 -6.7,1.4 -0.7,0.5 -1.1,0.8 -1.9,0.5 L 145.3,51 c 2.7,-2.6 3.3,-5.2 3.1,-5.6 -0.2,-0.4 -4.6,-1.3 -10.2,1 l -0.4,-0.3 c 2.3,-3.9 1,-6.7 0.9,-6.9 h -0.1 A 81,81 0 0 1 151,25.9 h 0.1 c 0.2,-0.3 0.3,-0.6 -0.2,-0.9 l -1,-0.6 A 92.4,92.4 0 0 0 12.7,105 c 0,29.5 15,57.9 39.4,75.6 a 13.5,13.5 0 0 0 2.8,1.6 1.1,1.1 0 0 0 1.1,-0.2 l 0.3,-0.5 a 1,1 0 0 0 0.3,-0.8 c 0,-0.7 -0.9,-1.3 -2.1,-3 a 27.7,27.7 0 0 1 -4.7,-15.1 22.1,22.1 0 0 1 4.5,-13.7 c 3.7,3.9 11.7,10.9 11.5,17.4 -0.2,6.5 -6.9,6.8 -5.4,12.2 0.9,3.4 3.4,2 3.9,4.6 0.7,4.4 6.7,7.3 9.3,6.9 0.7,-0.1 1.2,0.4 2.4,1.7 1.2,1.3 6.2,1.6 8.2,1.2 2,-0.4 4.1,1.4 8,0.9 3.9,-0.5 6.1,-0.9 8.2,-0.9 2.1,0 22.5,-0.3 36,1.8 2.4,0.4 3.1,-0.7 2.1,-2.5 -4.9,-8.6 -5.6,-15.8 -2.8,-25 5,0.4 12.2,1.7 21.6,-4 a 11,11 0 0 0 5.1,-9.5 c -0.1,-2.1 -1,-4.7 -0.5,-6.7 0.5,-2 1.3,-2.7 2.1,-3.2 3.6,-2.6 1,-4.6 0.4,-4.8 a 3.4,3.4 0 0 0 1.1,-4.6 c -0.7,-0.7 -2.7,-6.2 -0.4,-7.3 2.3,-1.1 5.3,-1.8 8.1,-3.1 a 4.5,4.5 0 0 0 2.4,-6 c -1.4,-3.6 -8.8,-20.6 -9,-21 z M 64.7,179.1 c -0.7,0.2 -2.9,0.3 -2.4,-2.7 0.5,-3 2.3,-2.6 3.3,-1.6 1,1 -0.7,2.8 -0.9,4.3 z m 87,-125.9 c 1.2,-0.8 2.5,-1.1 3.3,-0.4 2.6,2.6 -2.9,4.1 -1.8,6.1 a 30.7,30.7 0 0 0 7.5,8.4 c 1.2,1 1.4,3.1 -3.3,4.1 -4.7,1 -23.6,5.9 -33.6,16.5 -12.5,13.2 -20.4,30.3 -21.5,28 -1.1,-2.3 -3.6,-2.8 -3.2,-3.5 17.9,-30.8 46,-55.1 52.6,-59.2 z m 8.2,21.7 c -1,2.9 -9.1,5.5 -8.7,3.5 0.4,-2 0,-2.2 0.6,-2.3 0.6,-0.1 3.5,-1.1 7.5,-2.1 0.4,-0.1 0.9,0.1 0.6,0.9 z m -20.6,5.3 c -0.2,-1.2 8.5,-4.1 8.8,-3.3 0.3,0.8 -1.8,6 -4.7,7 -2.9,1 -4.7,0.9 -4.6,0.4 a 11,11 0 0 0 0.5,-4.1 z M 119,125.8 c -4,2.5 -6.2,-2.2 -6.8,-3.1 a 3.7,3.7 0 0 1 -0.5,-3.1 c 0.3,-1.4 0.5,-3.3 -0.4,-9.3 -0.4,-2.7 5,-9.2 6.3,-10.4 1.3,-1.2 3.1,0.6 3.2,2.6 0.3,3.6 -1.8,5.6 -3.9,7.2 -2.1,1.6 -3.1,4.4 -2.6,5.1 a 1.5,1.5 0 0 0 1.9,-0.9 c 1.5,-3.3 6,-4.9 6.7,-6.7 0.7,-1.8 0.3,-4.4 0.2,-5.6 -0.1,-1.2 0.9,-1.2 1.6,-1.1 0.7,0.1 1.4,1.4 1.8,2.7 2.9,7.5 -4.3,12 -5.5,13.8 -1.2,1.8 1.1,6.9 -2,8.8 z m 6.1,-29.1 c -2.2,1.5 -5.3,-0.5 -4.7,-1.4 a 43.7,43.7 0 0 1 11.5,-11 c 3.4,-2.1 3.8,-2.3 4,-1.1 a 10.6,10.6 0 0 1 -2.6,7.5 c -2.3,2.5 -4.6,2.3 -5.8,2.6 -1.2,0.3 -0.8,2.3 -2.4,3.4 z m -19.3,25.6 c -1,-0.2 -1.4,-2.1 -1.2,-2.9 0.2,-0.8 3.1,-5.2 4,-6.4 a 0.5,0.5 0 0 1 0.8,0.3 c 0.6,4.1 0,9.8 -3.6,9 z M 138,48.2 a 17.7,17.7 0 0 1 7.5,-1.6 c 0.8,0.1 -1.9,4.8 -6.6,6.8 -4.7,2 -8.5,2.5 -8.9,2.3 -0.4,-0.2 4.1,-5.8 8,-7.5 z m -83.3,78.3 c -1.5,-1.7 -2.8,-2.6 -2.9,-2.5 A 22.4,22.4 0 0 0 48.2,132.9 65.4,65.4 0 0 1 40.7,105 C 39.3,69.6 69,41.1 105.2,41.2 a 56.8,56.8 0 0 1 22.4,4.6 31.3,31.3 0 0 0 -3.7,6.6 c 0,-1.9 -0.5,-3.4 -0.4,-4.6 0.1,-1.2 -5.1,0.9 -9.7,8.3 a 19.9,19.9 0 0 0 -2.2,5.3 c -0.1,-2.8 -0.7,-4.9 -0.9,-4.9 a 16.1,16.1 0 0 0 -8.5,8.8 22.4,22.4 0 0 0 -1.1,3.4 c -0.2,-1.9 -0.7,-3.2 -0.9,-3.2 -0.2,0 -5.9,2.3 -8.6,8.9 A 15.4,15.4 0 0 0 90.5,79 C 90,76.7 89.1,75.3 88.8,75.6 86.9,78 83.1,79.1 81.2,85.2 a 13.2,13.2 0 0 0 -0.7,4.2 c -0.8,-2 -2,-3.2 -2.3,-3.2 -0.3,0 -6.1,5.5 -7,10.9 a 15.8,15.8 0 0 0 0.2,5.8 c -1.1,-1.8 -2.5,-3 -3.1,-4.8 -0.9,0.5 -5.7,5 -5.8,10.7 a 19.7,19.7 0 0 0 0.7,6.1 c -1.6,-2.9 -3.8,-4.2 -4.1,-4.1 -0.3,0.1 -4,4.1 -4.8,11.1 a 11.8,11.8 0 0 0 0.4,4.6 z m 74.1,-79.7 c 2.8,-3.4 7.6,-6.1 8.2,-5.8 0.6,0.3 -0.8,5.6 -3.9,8.6 -3.1,3 -8.1,6.2 -8.6,6.1 -0.5,-0.1 1.7,-5.9 4.3,-8.9 z m -9.3,13 a 21,21 0 0 0 -5.6,6.4 c -0.5,0.9 -1.9,-5 1.7,-10.6 2.2,-3.5 6.6,-6.6 6.5,-6.2 -0.1,0.4 2.1,6.6 -2.6,10.4 z m -10.1,7.5 c -3.4,5.1 -3.6,3.3 -7.3,8.3 -0.2,0.2 -0.2,-6.5 1.1,-9.4 2.1,-4.7 5.7,-7.4 6.2,-7.5 0.5,-0.1 1.9,5.8 0,8.6 z M 98.3,77.4 c -1.7,3 -3.3,2.3 -6.2,6.7 -0.3,0.4 -1.1,-3.6 0.7,-9.1 a 12.6,12.6 0 0 1 5.9,-6.9 c 0.6,-0.1 1.7,5.7 -0.4,9.3 z M 88,88.1 c -1.8,3.9 -2.9,4 -5,6.4 -0.3,0.4 -1.8,-3.7 -0.4,-8.8 1.4,-5.1 4,-5.6 5.3,-7 1.3,-1.4 2,5.3 0.1,9.4 z m -8.4,6.6 a 10.3,10.3 0 0 1 -0.4,3 c -1.3,4.3 -3.9,6.2 -5.3,8.1 A 15.7,15.7 0 0 1 72.3,100 15.2,15.2 0 0 1 77.5,88.8 c 0.8,0 2.1,3.2 2.1,5.9 z m -8.5,12.8 a 14.9,14.9 0 0 1 -5.1,10.8 17.7,17.7 0 0 1 -2.2,-7.6 c -0.2,-6.3 2.4,-8.5 3.6,-9.7 0.5,1.8 3.7,3.2 3.7,6.5 z M 59,113.8 c 1.8,0.9 3.9,3.4 4.1,8.2 0.2,4.8 -3.2,8.7 -4.6,9.4 -0.9,-3.7 -2.6,-4.4 -2.6,-8 a 18,18 0 0 1 3.1,-9.6 z m 7.3,12.5 c 4.6,-2 9.6,-1.7 9.8,-1.5 0.2,0.2 -1.5,5.9 -5.9,8.2 -4.4,2.3 -9.5,2.7 -10,2.1 -0.5,-0.6 1.5,-6.8 6.1,-8.8 z m -0.4,-3.4 c 0.3,-1.5 3,-6.5 7.1,-8.3 v 0 a 18.4,18.4 0 0 1 9.4,-1.5 c 0.5,0.2 -1.7,5.6 -5.8,7.6 -4.1,2 -6.5,0.9 -10.7,2.2 z m 6.9,-11.8 c 0.2,-0.4 3.5,-6.4 7.4,-8.2 a 17.5,17.5 0 0 1 8.9,-1.4 c 0.3,0.1 -1.8,5.4 -6.2,7.6 -4.4,2.2 -10.3,2.5 -10.1,2 z m 8.9,-11.9 c -0.3,-0.2 4.4,-6.4 8.4,-8.3 a 15.6,15.6 0 0 1 8.4,-1 c 0.3,0.3 -1.9,5.5 -6.5,7.5 A 24.2,24.2 0 0 1 81.7,99.2 Z M 92.4,87.4 c -0.2,-0.2 3.4,-6.3 7.4,-7.9 4,-1.6 7.7,-0.1 8.9,0 1.2,0.1 -1.3,4.5 -6.6,6.4 -5.3,1.9 -9,1.8 -9.7,1.5 z m 12,-11.4 c 0.1,-0.3 4.1,-5.9 8.1,-7.3 a 16.4,16.4 0 0 1 9.2,-0.2 c 0.5,0.2 -2.8,5 -7.7,6.5 -4.9,1.5 -9.7,1.3 -9.6,1 z m 12.1,-9.9 c -0.5,-0.3 4.3,-5.7 8.2,-7.2 a 18,18 0 0 1 8.3,-1 c 0.3,0.2 -2.5,4.9 -7.1,6.7 -4.6,1.8 -8.8,1.9 -9.4,1.5 z M 50.2,175.3 C 28.6,158.1 15.6,132.1 15.6,105 a 89.3,89.3 0 0 1 130.8,-79.2 0.4,0.4 0 0 1 0.1,0.7 97.3,97.3 0 0 0 -10.2,11.4 73.1,73.1 0 0 0 -31.3,-7 74.3,74.3 0 0 0 -74.1,74.1 72.1,72.1 0 0 0 17.9,48.2 23.1,23.1 0 0 0 -1.9,9.4 25.6,25.6 0 0 0 3.3,12.7 z m 0.2,-24.8 H 50.3 A 69.2,69.2 0 0 1 33.9,105 71.2,71.2 0 0 1 105,33.9 70.1,70.1 0 0 1 134.6,40.3 22.6,22.6 0 0 0 130.5,42.9 63.1,63.1 0 0 0 105,37.8 67.3,67.3 0 0 0 37.8,105 c 0,16.1 5,30.2 14.8,42 -0.5,0.9 -1.3,2.1 -2.2,3.5 z m 3.5,-5.6 c -1.3,-1.2 -4.1,-4.3 -4.4,-8.3 V 136 c 0,-4.3 1.9,-8.6 2.4,-9 0.5,-0.4 5.3,3.3 5.4,8.7 a 14.4,14.4 0 0 1 -3.4,9.2 z m 8,-7.2 c 3.9,-1.8 9.6,-1.4 9.3,-1.1 -0.3,0.3 -1.8,5.8 -6.2,8 a 12.1,12.1 0 0 1 -8.7,1.3 c 2.3,-2.6 1.8,-6.4 5.6,-8.2 z m 5.2,46.5 c -0.6,-2.7 -0.4,-6.3 0.5,-7.3 0.9,-1 4.9,-1.2 5,-0.1 0.1,1.1 -1.1,5.4 0.3,10.2 -0.3,0.7 -4.6,0.4 -5.8,-2.8 z m 0.3,-11.1 c -0.3,-2 1.6,-3.9 1.6,-8.2 0,-4.3 -6.6,-12.6 -11.1,-17.3 a 19.5,19.5 0 0 0 7.9,-1.9 c 6.6,-3.1 7.9,-10.1 8.1,-10.4 a 11,11 0 0 0 -3.8,-0.4 l 0.8,-0.4 c 6.4,-3.5 8.1,-11 7.8,-11.1 a 17,17 0 0 0 -4,-0.3 l 2,-0.7 c 6.8,-2.7 8.7,-10.3 8.5,-10.6 a 16.1,16.1 0 0 0 -3.5,-0.4 l 1.9,-0.8 c 6.2,-3.1 8.4,-10.1 8.1,-10.3 a 10.5,10.5 0 0 0 -3.3,-0.4 23.7,23.7 0 0 0 4.5,-1.5 c 6.7,-2.9 8.9,-9.3 8.6,-9.6 a 10.9,10.9 0 0 0 -3,-0.5 34.5,34.5 0 0 0 4.4,-1.3 c 6.6,-2.2 9.2,-8.5 8.8,-8.6 L 108,77.6 a 24.5,24.5 0 0 0 6.6,-1.3 c 7.1,-2.4 9.6,-6.7 9.8,-8.6 a 6,6 0 0 0 -2.3,-0.8 29.3,29.3 0 0 0 4.7,-1.2 c 6.6,-2.7 9.4,-9.3 9.6,-9.8 a 29.3,29.3 0 0 0 3.9,-1.6 l 1.9,-0.9 1.6,1.1 c 1,0.6 1.4,0.8 0.9,1.2 C 122,75 105,99.5 97.6,111.3 c -0.2,0.4 -0.6,0.3 -1.3,0.3 -7.9,-0.6 -12.4,8.9 -8.9,17.8 -0.4,1.8 -4.2,5.3 -4.5,5.5 -0.3,0.2 -1,1.4 0.3,1.3 1.3,-0.1 4.2,-3.2 5.4,-4.5 0.4,0.6 2.2,2 1.3,2.8 A 63.6,63.6 0 0 1 76,145 c -2.6,1.2 4.2,2.1 15.7,-8.3 0.7,-0.6 1.5,2.4 2.5,3.7 -2,6.5 2.9,19.1 2.1,23 a 2.8,2.8 0 0 1 -2.8,2.7 c -11.4,0.3 -12.5,-0.3 -18.3,1.4 -2.7,0.8 -2,2.6 -0.1,2.1 1.9,-0.5 4.6,-1.5 16.9,-0.7 3.1,0.1 6.5,-0.6 6.5,-5.7 0,-5.1 -3.6,-18.4 -2.4,-20.3 a 6.9,6.9 0 0 0 3.5,1.4 c -0.2,4.5 7,19 3.8,27 -1.2,3 -6.4,2.7 -15.4,1.8 -15.3,-1.5 -20.3,1.8 -20.6,0 z m 35.1,9.9 c -5.9,2 -8.3,-4.9 -7.3,-6.4 1,-1.5 4.4,1 7.3,-0.9 2.9,-1.9 3.5,6.1 0,7.3 z m -27,4.3 c -0.8,-3.7 -1.1,-10 0.4,-11.5 1.5,-1.5 4.9,-0.9 4.8,0.2 -0.3,4.3 -2.1,9.2 1.2,14.1 1.3,1.9 -5.2,2.2 -6.4,-2.8 z m 11.4,4.2 c -1.6,-0.4 -6,-7.4 -2.4,-15.8 0.3,-0.8 5.8,-0.3 6.8,0 1,0.3 -0.8,6.8 6.8,9.8 0.7,0.3 -0.1,8.8 -11.2,6 z m 47.2,-23.3 c -2.5,8.8 -3.8,12.3 0,21.9 0.5,1.3 0.9,2.3 -0.2,2.1 -7.7,-1.4 -9.4,-2.6 -33.7,-0.6 -1.7,0.2 0.6,-3.4 0.3,-5.8 2.2,-0.3 5.8,-1.3 6.5,-4.9 0.7,-3.6 -2.1,-7.6 -1.8,-8.2 3.5,-6.7 -0.2,-14.1 -3.1,-26.6 -0.3,-1.2 0.4,-1.7 0.9,-1.1 15.6,16.9 25.5,20.2 30.9,21.8 0.5,0.2 0.4,0.8 0.2,1.4 z M 174,122.1 c -3.3,2.9 -8.3,3.1 -10.3,4.9 -2,1.8 -1.5,2.5 -0.4,5.2 1.1,2.7 1.1,1.7 -1.1,2.3 -2.2,0.6 -4.1,5.8 -8.8,4.9 -1.8,-0.3 -0.5,0.8 0.2,0.9 2.6,0.3 3.7,-0.5 4.6,-1.4 0.9,-0.9 2.2,-2.4 3.6,-2.9 1.4,-0.5 2.9,-0.5 3,0.6 0.1,1.1 -1.9,2.1 -2.7,2.5 1,0.5 3.9,1.9 1.4,3.6 -2.5,1.7 -4.6,-0.5 -4.9,-0.7 -0.3,-0.2 -1.7,-0.2 -1.3,0.3 0.4,0.5 5.2,1.3 4.5,2.2 -3.5,4.7 -0.6,7.5 -1.7,12.3 -1.1,4.8 -7.7,7.5 -12.8,8.4 -17.4,3.1 -34.3,-11.6 -44.2,-22.8 0.9,-2.1 0.8,-4.8 -0.1,-3.8 -0.9,1 -0.7,2.4 -2.8,2.9 -3.9,1 -5.7,-5.9 -6.9,-7.1 -4.8,-4.7 -6.7,-11.4 -3.9,-17.3 2.8,-5.9 9,-4.7 11.4,-1.1 2.4,3.6 1.7,7 3.4,8.3 1.7,1.3 4.8,0.2 5.4,0 0.6,-0.2 1.7,4.3 8,4.1 6.3,-0.2 5.9,-10.7 6.9,-11.6 8.6,-8.4 4.2,-15.9 2.6,-17.6 -1.6,-1.7 1,-3.6 1.5,-3.7 a 13,13 0 0 0 9.4,-7.7 c 0,0 8.4,-0.2 11.4,-6.2 0.8,-1.6 3.3,1.5 8.9,-2.9 a 0.8,0.8 0 0 1 1.4,0.3 c 3.7,8.9 5.2,11.3 4.9,15.8 -0.3,4.5 8.7,21.5 9.4,23.1 0.7,1.6 0.8,3.4 0,4.2 z"
       id="path11"
       inkscape:connector-curvature="0" />
    <path
       class="minerva-base-style"
       d="m 153.8,90 c -4.9,0.2 -10.6,6.2 -12.4,7 -1.8,0.8 -1.3,1.5 -0.2,1.1 1.1,-0.4 5.9,-4.7 10.7,-6.4 4.8,-1.7 3.6,1.8 5,1.6 1.4,-0.2 -0.3,-3.4 -3.1,-3.3 z"
       id="path13"
       inkscape:connector-curvature="0" />
    <path
       class="minerva-base-style"
       d="m 154.9,94.8 c -0.4,0.1 0.4,2.2 -1.7,2.3 -4.6,0.3 -8.3,4.7 -11.1,6 a 12.9,12.9 0 0 1 -3.8,1.4 0.30413813,0.30413813 0 0 0 0.1,0.6 c 11.7,1.6 16.2,1.1 16.3,0.7 0.1,-0.4 -0.6,-1.2 -0.4,-1.7 a 11.3,11.3 0 0 0 0.1,-5.5 c -0.2,-0.8 1.8,-0.3 1.8,-1.3 0,-1 -0.6,-2.6 -1.3,-2.5 z m -1.8,9.3 c -0.2,0.9 -5.5,0.5 -8.3,0.2 -0.7,0 -1.8,-0.1 0.3,-1.4 2.1,-1.3 4.1,-2.8 7.2,-3.4 a 0.8,0.8 0 0 1 0.8,0.6 10.6,10.6 0 0 1 0,4 z"
       id="path15"
       inkscape:connector-curvature="0" />
    <path
       class="minerva-base-style"
       d="m 168.4,120.8 c -0.9,0 -4.5,1.6 -5.9,2.5 -1.4,0.9 -4.4,2.7 -4.2,-0.8 0.1,-1.3 0.9,-4.4 0.9,-5.3 0,-0.9 -1,-0.7 -1.1,0 a 36.9,36.9 0 0 1 -0.7,5.3 c -0.4,1.8 1.2,4 3.6,2.7 2.4,-1.3 4.8,-2.9 7.3,-3.4 0.6,-0.1 0.7,-1 0.1,-1 z"
       id="path17"
       inkscape:connector-curvature="0" />
    <path
       class="minerva-base-style"
       d="m 100.5,133.6 c -0.7,-0.3 -0.5,1.2 -1.4,1 -0.9,-0.2 -0.2,-1.3 -1.8,-3 -1.6,-1.7 -2.8,-1.2 -4.3,-3.6 -1.5,-2.4 -0.3,-12 3.1,-10.8 3.4,1.2 1.6,5 1,8 -0.6,3 2.5,2.8 2.8,2.1 0.3,-0.7 -1.1,-0.9 -1.4,-1.9 -0.3,-1 3.5,-7.6 -1.8,-9.4 -3.8,-1.3 -6.4,3.6 -5.9,8.9 a 8,8 0 0 0 5.1,7.1 c 2.3,0.8 0.6,4 3.7,4 1.4,0 1.7,-2.1 0.9,-2.4 z"
       id="path19"
       inkscape:connector-curvature="0" />
    <path
       class="minerva-base-style"
       d="m 131.3,33.4 c 0.2,0.1 0.3,0 0.5,-0.1 l 6.5,-8.3 a 0.5,0.5 0 0 0 -0.2,-0.6 L 137,24 a 0.4,0.4 0 0 0 -0.5,0.1 l -6.5,8.3 c -0.2,0.2 -0.1,0.5 0.2,0.6 z"
       id="path21"
       inkscape:connector-curvature="0" />
    <path
       class="minerva-base-style"
       d="m 119.2,30 1.1,0.3 a 0.5,0.5 0 0 0 0.5,-0.3 l 3.8,-9.4 A 0.4,0.4 0 0 0 124.3,20 l -1.2,-0.2 h -0.3 l -3.9,9.6 a 0.4,0.4 0 0 0 0.3,0.6 z"
       id="path23"
       inkscape:connector-curvature="0" />
    <path
       class="minerva-base-style"
       d="m 105.8,28.7 h 1.1 c 0.2,0.1 0.4,-0.1 0.4,-0.3 l 1,-10 a 0.5,0.5 0 0 0 -0.4,-0.5 h -1.1 c -0.3,0 -0.4,0.2 -0.5,0.4 l -0.9,10 a 0.4,0.4 0 0 0 0.4,0.4 z"
       id="path25"
       inkscape:connector-curvature="0" />
    <path
       class="minerva-base-style"
       d="m 92.8,29.7 1.1,-0.2 c 0.2,0 0.4,-0.2 0.3,-0.4 l -1.9,-9.9 c 0,-0.2 -0.2,-0.4 -0.4,-0.3 h -1.2 c -0.2,0.1 -0.4,0.3 -0.3,0.5 l 1.9,9.9 c 0,0.3 0.2,0.4 0.5,0.4 z"
       id="path27"
       inkscape:connector-curvature="0" />
    <path
       class="minerva-base-style"
       d="M 79.4,32.8 79.9,33 81,32.6 A 0.4,0.4 0 0 0 81.3,32 l -4.6,-9 a 0.4,0.4 0 0 0 -0.5,-0.2 l -1,0.3 a 0.4,0.4 0 0 0 -0.3,0.6 z"
       id="path29"
       inkscape:connector-curvature="0" />
    <path
       class="minerva-base-style"
       d="m 67,38.5 c 0.1,0.2 0.3,0.2 0.5,0.1 l 1,-0.6 a 0.4,0.4 0 0 0 0.1,-0.6 l -6.7,-7.7 c -0.2,-0.2 -0.4,-0.2 -0.5,-0.1 l -1,0.6 c -0.3,0.1 -0.3,0.4 -0.1,0.6 z"
       id="path31"
       inkscape:connector-curvature="0" />
    <path
       class="minerva-base-style"
       d="m 55.4,46.7 c 0.2,0.1 0.4,0.1 0.5,-0.1 l 0.9,-0.7 a 0.5,0.5 0 0 0 0,-0.7 l -8.5,-5.9 h -0.5 l -0.9,0.8 a 0.5,0.5 0 0 0 0,0.7 z"
       id="path33"
       inkscape:connector-curvature="0" />
    <path
       class="minerva-base-style"
       d="m 45.4,57.1 a 0.4,0.4 0 0 0 0.4,-0.2 L 46.6,56 c 0.2,-0.2 0.1,-0.5 -0.2,-0.6 l -9.8,-3.8 c -0.2,-0.1 -0.4,-0.1 -0.5,0.1 l -0.7,0.9 a 0.4,0.4 0 0 0 0.2,0.7 z"
       id="path35"
       inkscape:connector-curvature="0" />
    <path
       class="minerva-base-style"
       d="m 26.8,67.8 10.5,1.5 c 0.2,0 0.4,-0.1 0.4,-0.3 l 0.6,-1 A 0.4,0.4 0 0 0 38,67.4 L 27.5,65.9 27,66.1 a 5.4,5.4 0 0 1 -0.5,1.1 0.4,0.4 0 0 0 0.3,0.6 z"
       id="path37"
       inkscape:connector-curvature="0" />
    <path
       class="minerva-base-style"
       d="m 21.1,83.7 10.7,-1 a 0.3,0.3 0 0 0 0.3,-0.3 7.6,7.6 0 0 0 0.4,-1.1 0.4,0.4 0 0 0 -0.4,-0.6 l -10.8,1 -0.4,0.3 -0.3,1.2 c 0,0.3 0.2,0.6 0.5,0.5 z"
       id="path39"
       inkscape:connector-curvature="0" />
    <path
       class="minerva-base-style"
       d="m 29.2,96.5 c 0,-0.4 0.1,-0.9 0.1,-1.3 0,-0.4 -0.2,-0.5 -0.5,-0.4 l -10.4,3.6 c -0.2,0.1 -0.3,0.2 -0.3,0.4 0,0.2 -0.1,0.8 -0.1,1.2 a 0.4,0.4 0 0 0 0.6,0.4 l 10.3,-3.6 a 0.3,0.3 0 0 0 0.3,-0.3 z"
       id="path41"
       inkscape:connector-curvature="0" />
    <path
       class="minerva-base-style"
       d="m 28.9,110.8 v -1.3 a 0.5,0.5 0 0 0 -0.7,-0.4 l -9.4,6.3 c -0.2,0 -0.2,0.2 -0.2,0.4 0,0.2 0.1,0.8 0.1,1.2 a 0.5,0.5 0 0 0 0.7,0.3 l 9.4,-6.2 c 0.1,-0.1 0.2,-0.2 0.1,-0.3 z"
       id="path43"
       inkscape:connector-curvature="0" />
    <path
       class="minerva-base-style"
       d="M 31.3,125 31,123.7 a 0.4,0.4 0 0 0 -0.7,-0.2 l -7.7,8.5 c -0.1,0.1 -0.2,0.3 -0.1,0.4 0.1,0.1 0.3,0.8 0.4,1.2 a 0.4,0.4 0 0 0 0.7,0.2 l 7.6,-8.4 c 0.1,-0.1 0.1,-0.2 0.1,-0.4 z"
       id="path45"
       inkscape:connector-curvature="0" />
    <path
       class="minerva-base-style"
       d="M 35.2,137.7 29.8,148 c -0.1,0.1 0,0.3 0,0.4 l 0.7,1.2 a 0.4,0.4 0 0 0 0.7,-0.1 l 5.4,-10.2 c 0,-0.1 0.1,-0.2 0,-0.4 L 36,137.7 a 0.5,0.5 0 0 0 -0.8,0 z"
       id="path47"
       inkscape:connector-curvature="0" />
    <path
       class="minerva-base-style"
       d="m 42.9,149.3 c -0.2,-0.3 -0.7,-0.2 -0.7,0.1 l -2.9,12 c -0.1,0.2 0,0.3 0,0.4 l 1,1 a 0.4,0.4 0 0 0 0.7,-0.1 l 2.8,-11.9 c 0.1,-0.1 0,-0.2 0,-0.3 z"
       id="path49"
       inkscape:connector-curvature="0" />
  </g>
  <g
     transform="translate(395.36761,72.150548)"
     id="g61">
    <g
       transform="translate(0,99.060381)"
       style="fill:#006c66"
       id="g55">
      <path
         d="M 5.5,-62 H 22.094 L 37.922,-17.029 53.656,-62 H 70.328 V 0 H 57.594 V -16.951 L 58.859,-46.213 42.234,0 h -8.718 l -16.594,-46.166 1.281,29.215 V 0 H 5.5 Z m 124.063,62 -4.282,-12.719 h -22.25 L 98.797,0 h -13.5 l 22.937,-62 H 120 L 143.063,0 Z M 114.109,-46.339 106.453,-23 h 15.406 z M 168,-62 179.547,-40.631 191.109,-62 h 14.594 L 187.766,-31.259 206.172,0 H 191.391 L 179.547,-21.715 167.703,0 H 152.938 L 171.344,-31.259 153.391,-62 Z m 107.328,40.297 H 264.203 V 0 H 251.5 v -62 h 24.031 q 6.953,0 12.219,2.564 5.266,2.564 8.102,7.281 2.836,4.718 2.836,10.745 v 0 q 0,9.151 -6.204,14.429 -6.203,5.278 -17.156,5.278 z M 264.203,-51.719 V -32 h 11.328 q 5.047,0 7.688,-2.415 2.64,-2.415 2.64,-6.91 v 0 q 0,-4.607 -2.664,-7.461 -2.664,-2.853 -7.367,-2.933 v 0 z m 65,-10.281 v 51.797 h 26.953 V 0 H 316.5 v -62 z m 82.36,62 -4.282,-12.719 h -22.25 L 380.797,0 h -13.5 l 22.937,-62 H 402 L 425.063,0 Z M 396.109,-46.339 388.453,-23 h 15.406 z M 489.609,-62 V 0 H 476.906 L 452.203,-40.804 V 0 H 439.5 v -62 h 12.703 l 24.75,40.883 V -62 Z m 55.563,41.625 h 12.703 q -0.719,9.953 -7.344,15.664 Q 543.906,1 533.078,1 v 0 q -11.859,0 -18.648,-7.937 -6.789,-7.937 -6.789,-21.791 v 0 -3.747 q 0,-8.846 3.132,-15.579 3.133,-6.732 8.954,-10.339 5.82,-3.607 13.507,-3.607 v 0 q 10.672,0 17.188,5.719 6.516,5.718 7.531,16.047 v 0 h -12.687 q -0.469,-5.969 -3.328,-8.657 -2.86,-2.687 -8.704,-2.687 v 0 q -6.343,0 -9.492,4.513 -3.148,4.514 -3.242,14.006 v 0 4.622 q 0,9.911 3.031,14.494 3.032,4.584 9.547,4.584 v 0 q 5.875,0 8.774,-2.688 2.898,-2.687 3.32,-8.328 z M 609.625,0 l -15.828,-24.875 -6.594,7.154 V 0 H 574.5 v -62 h 12.703 v 28.099 l 5.578,-7.705 L 608.484,-62 h 15.61 L 602.219,-34.451 624.734,0 Z M 682,-62 V 0 h -12.687 v -62 z m 70.609,0 V 0 H 739.906 L 715.203,-40.804 V 0 H 702.5 v -62 h 12.703 l 24.75,40.883 V -62 Z m 51.844,46.037 v 0 q 0,-3.566 -2.539,-5.473 -2.539,-1.908 -9.141,-4.032 -6.601,-2.125 -10.46,-4.192 v 0 q -10.485,-5.629 -10.485,-15.191 v 0 q 0,-4.975 2.813,-8.87 2.812,-3.894 8.078,-6.087 Q 787.984,-62 794.547,-62 v 0 q 6.609,0 11.766,2.387 5.156,2.386 8.015,6.716 2.86,4.33 2.86,9.85 v 0 H 804.5 q 0,-4.19 -2.672,-6.509 -2.672,-2.319 -7.484,-2.319 v 0 q -4.656,0 -7.242,1.945 -2.586,1.945 -2.586,5.11 v 0 q 0,2.979 3.031,4.986 3.031,2.007 8.906,3.782 v 0 q 10.828,3.238 15.781,8.049 4.954,4.81 4.954,11.971 v 0 q 0,7.971 -6.047,12.502 Q 805.094,1 794.844,1 v 0 q -7.11,0 -12.946,-2.589 -5.835,-2.588 -8.906,-7.097 -3.07,-4.509 -3.07,-10.433 v 0 h 12.734 q 0,10.088 12.188,10.088 v 0 q 4.531,0 7.07,-1.822 2.539,-1.822 2.539,-5.11 z M 880.875,-62 v 10.281 H 862.016 V 0 H 849.313 V -51.719 H 830.688 V -62 Z M 910,-62 V 0 h -12.687 v -62 z m 65.875,0 v 10.281 H 957.016 V 0 H 944.313 V -51.719 H 925.688 V -62 Z m 49.516,0 h 12.75 v 40.933 q 0,10.198 -6.328,16.133 Q 1025.484,1 1014.516,1 v 0 q -10.782,0 -17.133,-5.761 -6.352,-5.761 -6.477,-15.833 v 0 V -62 h 12.703 v 41.082 q 0,6.126 2.899,8.92 2.898,2.795 8.008,2.795 v 0 q 10.718,0 10.875,-11.368 v 0 z m 78.484,0 v 10.281 h -18.859 V 0 h -12.703 v -51.719 h -18.625 V -62 Z m 52.703,25 v 9.937 h -24.375 v 16.86 h 28.594 V 0 H 1119.5 v -62 h 41.219 v 10.281 h -28.516 V -37 Z"
         id="path53"
         inkscape:connector-curvature="0" />
    </g>
    <g
       transform="translate(0,179.07038)"
       style="fill:#006c66"
       id="g59">
      <path
         d="m 33.219,-27 v 5.359 H 12.344 V 0 H 5.781 v -50 h 30.828 v 5.406 H 12.344 V -27 Z m 51.844,0.965 v 3.132 q 0,7.293 -2.461,12.731 -2.461,5.438 -6.977,8.305 Q 71.109,1 65.094,1 v 0 q -5.875,0 -10.422,-2.883 -4.547,-2.882 -7.055,-8.219 -2.508,-5.337 -2.586,-12.349 v 0 -3.584 q 0,-7.152 2.5,-12.645 2.5,-5.492 7.063,-8.406 Q 59.156,-50 65.031,-50 v 0 q 5.985,0 10.547,2.883 4.563,2.882 7.024,8.352 2.461,5.469 2.461,12.73 z m -6.532,3.614 v -3.675 q 0,-8.828 -3.554,-13.546 -3.555,-4.717 -9.946,-4.717 v 0 q -6.218,0 -9.789,4.717 -3.57,4.718 -3.679,13.095 v 0 3.643 q 0,8.548 3.609,13.437 3.609,4.889 9.922,4.889 v 0 q 6.359,0 9.844,-4.617 3.484,-4.616 3.593,-13.226 z M 126.828,0 116.031,-20.625 H 104.344 V 0 H 97.75 v -50 h 16.469 q 8.406,0 12.937,3.794 4.532,3.794 4.532,11.041 v 0 q 0,4.614 -2.516,8.029 -2.516,3.414 -6.984,5.117 v 0 l 11.687,21.604 V 0 Z M 104.344,-44.594 V -26 h 10.078 q 4.891,0 7.781,-2.496 2.891,-2.495 2.891,-6.67 v 0 q 0,-4.544 -2.758,-6.971 -2.758,-2.426 -7.945,-2.457 v 0 z M 163.781,-50 h 8.469 L 188.516,-9.199 204.797,-50 h 8.5 V 0 h -6.563 V -19.466 L 207.359,-40.487 191.016,0 H 186 l -16.312,-40.392 0.656,20.926 V 0 h -6.563 z m 102.282,23.965 v 3.132 q 0,7.293 -2.461,12.731 -2.461,5.438 -6.977,8.305 Q 252.109,1 246.094,1 v 0 q -5.875,0 -10.422,-2.883 -4.547,-2.882 -7.055,-8.219 -2.508,-5.337 -2.586,-12.349 v 0 -3.584 q 0,-7.152 2.5,-12.645 2.5,-5.492 7.063,-8.406 Q 240.156,-50 246.031,-50 v 0 q 5.985,0 10.547,2.883 4.563,2.882 7.024,8.352 2.461,5.469 2.461,12.73 z m -6.532,3.614 v -3.675 q 0,-8.828 -3.554,-13.546 -3.555,-4.717 -9.946,-4.717 v 0 q -6.218,0 -9.789,4.717 -3.57,4.718 -3.679,13.095 v 0 3.643 q 0,8.548 3.609,13.437 3.609,4.889 9.922,4.889 v 0 q 6.359,0 9.844,-4.617 3.484,-4.616 3.593,-13.226 z M 285.375,-50 v 44.641 h 23.578 V 0 h -30.172 v -50 z m 62.531,21 v 5.375 h -21.562 v 18.266 h 25.047 V 0 h -31.61 v -50 h 31.266 v 5.406 H 326.344 V -29 Z m 43.875,13.516 h 6.61 q -0.938,7.906 -5.836,12.195 Q 387.656,1 379.516,1 v 0 q -8.813,0 -14.133,-6.311 -5.32,-6.31 -5.32,-16.875 v 0 -4.768 q 0,-6.919 2.484,-12.17 2.484,-5.251 7.023,-8.063 Q 374.109,-50 380.094,-50 v 0 q 7.937,0 12.719,4.43 4.781,4.429 5.578,12.257 v 0 h -6.61 q -0.843,-5.953 -3.703,-8.617 -2.859,-2.664 -7.984,-2.664 v 0 q -6.281,0 -9.852,4.632 -3.57,4.633 -3.57,13.181 v 0 4.796 q 0,8.081 3.383,12.845 3.383,4.765 9.461,4.765 v 0 q 5.468,0 8.39,-2.477 2.922,-2.476 3.875,-8.632 z M 439.219,-50 h 6.594 v 34.211 q -0.032,7.107 -4.422,11.632 Q 437,0.368 429.469,0.921 v 0 L 427.734,1 q -8.171,0 -13.023,-4.462 -4.852,-4.462 -4.93,-12.264 v 0 V -50 h 6.5 v 34.112 q 0,5.456 2.977,8.485 2.976,3.028 8.476,3.028 v 0 q 5.563,0 8.524,-3.005 2.961,-3.005 2.961,-8.476 v 0 z m 26.156,0 v 44.641 h 23.578 V 0 H 458.781 V -50 Z M 532.016,0 527.25,-12.594 H 506.406 L 501.719,0 h -6.766 l 19.016,-50 h 5.734 L 538.734,0 Z M 516.828,-41.868 508.391,-18 h 16.922 z M 576.828,0 566.031,-20.625 H 554.344 V 0 h -6.594 v -50 h 16.469 q 8.406,0 12.937,3.794 4.532,3.794 4.532,11.041 v 0 q 0,4.614 -2.516,8.029 -2.516,3.414 -6.984,5.117 v 0 l 11.687,21.604 V 0 Z M 554.344,-44.594 V -26 h 10.078 q 4.891,0 7.781,-2.496 2.891,-2.495 2.891,-6.67 v 0 q 0,-4.544 -2.758,-6.971 -2.758,-2.426 -7.945,-2.457 v 0 z M 650.516,-24 v 17.914 q -2.532,3.558 -7.055,5.322 Q 638.938,1 632.922,1 v 0 q -6.094,0 -10.805,-2.852 -4.711,-2.851 -7.297,-8.094 -2.586,-5.244 -2.648,-12.162 v 0 -4.332 q 0,-11.219 5.242,-17.39 5.242,-6.17 14.758,-6.17 v 0 q 7.781,0 12.531,3.984 4.75,3.985 5.813,11.297 v 0 h -6.563 q -1.844,-9.875 -11.75,-9.875 v 0 q -6.594,0 -10,4.617 -3.406,4.617 -3.437,13.367 v 0 4.049 q 0,8.345 3.828,13.266 3.828,4.92 10.359,4.92 v 0 q 3.688,0 6.461,-0.794 2.774,-0.795 4.57,-2.671 v 0 -10.832 H 632.469 V -24 Z m 42.39,-5 v 5.375 h -21.562 v 18.266 h 25.047 V 0 h -31.61 v -50 h 31.266 v 5.406 H 671.344 V -29 Z m 53.125,-21 V 0 h -6.609 L 714.375,-38.524 V 0 h -6.594 v -50 h 6.594 L 739.5,-11.303 V -50 Z m 41.875,21 v 5.375 h -21.562 v 18.266 h 25.047 V 0 h -31.61 v -50 h 31.266 v 5.406 H 766.344 V -29 Z m 50.25,-21 v 5.406 H 822.172 V 0 h -6.531 V -44.594 H 799.672 V -50 Z m 16.657,0 V 0 h -6.563 v -50 z m 44.968,34.516 h 6.61 q -0.938,7.906 -5.836,12.195 Q 895.656,1 887.516,1 v 0 q -8.813,0 -14.133,-6.311 -5.32,-6.31 -5.32,-16.875 v 0 -4.768 q 0,-6.919 2.484,-12.17 2.484,-5.251 7.023,-8.063 Q 882.109,-50 888.094,-50 v 0 q 7.937,0 12.719,4.43 4.781,4.429 5.578,12.257 v 0 h -6.61 q -0.843,-5.953 -3.703,-8.617 -2.859,-2.664 -7.984,-2.664 v 0 q -6.281,0 -9.852,4.632 -3.57,4.633 -3.57,13.181 v 0 4.796 q 0,8.081 3.383,12.845 3.383,4.765 9.461,4.765 v 0 q 5.468,0 8.39,-2.477 2.922,-2.476 3.875,-8.632 z m 32.657,-6.328 v 0 q -8.438,-2.415 -12.282,-5.945 -3.843,-3.529 -3.843,-8.702 v 0 q 0,-5.875 4.695,-9.708 Q 925.703,-50 933.219,-50 v 0 q 5.14,0 9.156,1.984 4.016,1.985 6.219,5.469 2.203,3.484 2.203,7.625 v 0 h -6.594 q 0,-4.516 -2.875,-7.094 -2.875,-2.578 -8.109,-2.578 v 0 q -4.844,0 -7.563,2.124 -2.718,2.123 -2.718,5.903 v 0 q 0,3.034 2.578,5.126 2.578,2.092 8.781,3.827 6.203,1.734 9.711,3.831 3.508,2.097 5.195,4.896 1.688,2.799 1.688,6.587 v 0 q 0,6.034 -4.711,9.667 Q 941.469,1 933.563,1 v 0 q -5.125,0 -9.571,-1.969 -4.445,-1.969 -6.851,-5.383 -2.407,-3.414 -2.407,-7.757 v 0 h 6.594 q 0,4.515 3.336,7.125 3.336,2.609 8.899,2.609 v 0 q 5.203,0 7.968,-2.109 2.766,-2.11 2.766,-5.752 0,-3.643 -2.563,-5.636 -2.562,-1.992 -9.296,-3.94 z"
         id="path57"
         inkscape:connector-curvature="0" />
    </g>
  </g>
  <g
     transform="matrix(1.5965585,0,0,1.5965585,1617.3305,30.715929)"
     id="g66">
    <g
       transform="matrix(1.3333333,0,0,-1.3333333,-2.2952443,189.65838)"
       id="g4229">
      <path
         d="m 138.65764,7.7600216 c -1.60938,0 -2.91465,-1.3063001 -2.91465,-2.9157553 0,-1.6102253 1.30527,-2.915376 2.91465,-2.915376 1.60937,0 2.91563,1.3051507 2.91563,2.915376 0,1.6094552 -1.30626,2.9157553 -2.91563,2.9157553 z m -7.88298,0 c -1.60938,0 -2.91465,-1.3063001 -2.91465,-2.9157553 0,-1.6102253 1.30527,-2.915376 2.91465,-2.915376 1.61036,0 2.91563,1.3051507 2.91563,2.915376 0,1.6094552 -1.30527,2.9157553 -2.91563,2.9157553 z m -7.88298,0 c -1.61037,0 -2.91465,-1.3063001 -2.91465,-2.9157553 0,-1.6102253 1.30428,-2.915376 2.91465,-2.915376 1.61036,0 2.91464,1.3051507 2.91464,2.915376 0,1.6094552 -1.30428,2.9157553 -2.91464,2.9157553 z m -7.88397,0.082927 c -1.6548,0 -2.99759,-1.3425653 -2.99759,-2.9986826 0,-1.6565121 1.34279,-2.9982984 2.99759,-2.9982984 1.65677,0 2.99857,1.3417863 2.99857,2.9982984 0,1.6561173 -1.3418,2.9986826 -2.99857,2.9986826 z M 99.241238,8.306153 c -1.91219,0 -3.46223,-1.5512214 -3.46223,-3.4618867 0,-1.9122153 1.55004,-3.4622741 3.46223,-3.4622741 1.912012,0 3.461162,1.5500588 3.461162,3.4622741 0,1.9106653 -1.54915,3.4618867 -3.461162,3.4618867 z M 91.357958,7.48156 c -1.45673,0 -2.63809,-1.1817264 -2.63809,-2.6372937 0,-1.4571074 1.18136,-2.6380707 2.63809,-2.6380707 1.45595,0 2.63731,1.1809633 2.63731,2.6380707 0,1.4555673 -1.18136,2.6372937 -2.63731,2.6372937 z M 83.4734,6.6473305 c -0.994654,0 -1.803094,-0.8076205 -1.803094,-1.8030642 0,-0.9962236 0.80844,-1.802679 1.803094,-1.802679 0.996233,0 1.803488,0.8064554 1.803488,1.802679 0,0.9954437 -0.807255,1.8030642 -1.803488,1.8030642 z m -7.883377,0 c -0.995838,0 -1.8026,-0.8076205 -1.8026,-1.8030642 0,-0.9962236 0.806762,-1.802679 1.8026,-1.802679 0.995049,0 1.803489,0.8064554 1.803489,1.802679 0,0.9954437 -0.80844,1.8030642 -1.803489,1.8030642 z m -7.884067,0 c -0.995049,0 -1.803094,-0.8076205 -1.803094,-1.8030642 0,-0.9962236 0.808045,-1.802679 1.803094,-1.802679 0.996234,0 1.803785,0.8064554 1.803785,1.802679 0,0.9954437 -0.807551,1.8030642 -1.803785,1.8030642 z m -7.883376,0.092949 c -1.047082,0 -1.895608,-0.8492768 -1.895608,-1.8960131 0,-1.0475163 0.848526,-1.896398 1.895608,-1.896398 1.04718,0 1.895608,0.8488817 1.895608,1.896398 0,1.0467363 -0.848428,1.8960131 -1.895608,1.8960131 z m -7.883376,0.5646442 c -1.359479,0 -2.461359,-1.1007442 -2.461359,-2.4606573 0,-1.3595279 1.10188,-2.4621974 2.461359,-2.4621974 1.358392,0 2.461851,1.1026695 2.461851,2.4621974 0,1.3599131 -1.103459,2.4606573 -2.461851,2.4606573 z m -7.884068,0.8739505 c -1.840909,0 -3.334667,-1.494133 -3.334667,-3.3346078 0,-1.8412547 1.493758,-3.3342276 3.334667,-3.3342276 1.841205,0 3.334963,1.4929729 3.334963,3.3342276 0,1.8404748 -1.493758,3.3346078 -3.334963,3.3346078 z m -7.883376,-0.03278 c -1.823532,0 -3.302578,-1.4779405 -3.302578,-3.3018278 0,-1.8242822 1.479046,-3.3026018 3.302578,-3.3026018 1.823137,0 3.302183,1.4783196 3.302183,3.3026018 0,1.8238873 -1.479046,3.3018278 -3.302183,3.3018278 z M 28.287989,8.037328 c -1.763304,0 -3.194168,-1.4304985 -3.194168,-3.1930617 0,-1.7641132 1.430864,-3.1938386 3.194168,-3.1938386 1.763797,0 3.193476,1.4297254 3.193476,3.1938386 0,1.7625632 -1.429679,3.1930617 -3.193476,3.1930617 z M 20.403921,7.7600216 c -1.610265,0 -2.915735,-1.3063001 -2.915735,-2.9157553 0,-1.6102253 1.30547,-2.915376 2.915735,-2.915376 1.610166,0 2.915736,1.3051507 2.915736,2.915376 0,1.6094552 -1.30557,2.9157553 -2.915736,2.9157553 z m -7.883376,0 c -1.610225,0 -2.9157558,-1.3063001 -2.9157558,-2.9157553 0,-1.6102253 1.3055308,-2.915376 2.9157558,-2.915376 1.610265,0 2.915735,1.3051507 2.915735,2.915376 0,1.6094552 -1.30547,2.9157553 -2.915735,2.9157553 z m -7.8841268,0 c -1.609446,0 -2.9149849,-1.3063001 -2.9149849,-2.9157553 0,-1.6102253 1.3055389,-2.915376 2.9149849,-2.915376 1.610225,0 2.91538,1.3051507 2.91538,2.915376 0,1.6094552 -1.305155,2.9157553 -2.91538,2.9157553 z M 138.65764,15.642954 c -1.60938,0 -2.91465,-1.305076 -2.91465,-2.915736 0,-1.610215 1.30527,-2.9153602 2.91465,-2.9153602 1.60937,0 2.91563,1.3051452 2.91563,2.9153602 0,1.61066 -1.30626,2.915736 -2.91563,2.915736 z m -7.88298,0 c -1.60938,0 -2.91465,-1.305076 -2.91465,-2.915736 0,-1.610215 1.30527,-2.9153602 2.91465,-2.9153602 1.61036,0 2.91563,1.3051452 2.91563,2.9153602 0,1.61066 -1.30527,2.915736 -2.91563,2.915736 z m -7.88298,0 c -1.61037,0 -2.91465,-1.305076 -2.91465,-2.915736 0,-1.610215 1.30428,-2.9153602 2.91465,-2.9153602 1.61036,0 2.91464,1.3051452 2.91464,2.9153602 0,1.61066 -1.30428,2.915736 -2.91464,2.915736 z M 91.357958,10.924549 c 0.99505,0 1.803,0.807621 1.803,1.802669 0,0.995444 -0.80795,1.803094 -1.803,1.803094 -0.99584,0 -1.80428,-0.80765 -1.80428,-1.803094 0,-0.995048 0.80844,-1.802669 1.80428,-1.802669 z M 83.4734,14.530312 c -0.994654,0 -1.803094,-0.80765 -1.803094,-1.803094 0,-0.995048 0.80844,-1.802669 1.803094,-1.802669 0.996233,0 1.803488,0.807621 1.803488,1.802669 0,0.995444 -0.807255,1.803094 -1.803488,1.803094 z m -7.883377,-3.512814 c 0.944201,0 1.710876,0.765224 1.710876,1.70972 0,0.944892 -0.766675,1.711271 -1.710876,1.711271 -0.944496,0 -1.71048,-0.766379 -1.71048,-1.711271 0,-0.944496 0.765984,-1.70972 1.71048,-1.70972 z m -7.884067,0 c 0.944891,0 1.710481,0.765224 1.710481,1.70972 0,0.944892 -0.76559,1.711271 -1.710481,1.711271 -0.9442,0 -1.710481,-0.766379 -1.710481,-1.711271 0,-0.944496 0.766281,-1.70972 1.710481,-1.70972 z m -7.883376,-0.09295 c 0.996233,0 1.803094,0.807621 1.803094,1.802669 0,0.995444 -0.806861,1.803094 -1.803094,1.803094 -0.996234,0 -1.803094,-0.80765 -1.803094,-1.803094 0,-0.995048 0.80686,-1.802669 1.803094,-1.802669 z m -7.883376,4.788605 c -1.648772,0 -2.985146,-1.337856 -2.985146,-2.985936 0,-1.648781 1.336374,-2.9843956 2.985146,-2.9843956 1.64808,0 2.985244,1.3356146 2.985244,2.9843956 0,1.64808 -1.337164,2.985936 -2.985244,2.985936 z M 36.17176,16.337947 c -1.993948,0 -3.611124,-1.615992 -3.611124,-3.61073 0,-1.993197 1.617176,-3.6115191 3.611124,-3.6115191 1.993553,0 3.610729,1.6183221 3.610729,3.6115191 0,1.994738 -1.617176,3.61073 -3.610729,3.61073 z M 28.287989,9.8118568 c 1.609475,0 2.915044,1.3051452 2.915044,2.9153602 0,1.61066 -1.305569,2.915736 -2.915044,2.915736 -1.609771,0 -2.915736,-1.305076 -2.915736,-2.915736 0,-1.610215 1.305965,-2.9153602 2.915736,-2.9153602 z m -7.884068,5.8310962 c -1.610265,0 -2.915735,-1.305076 -2.915735,-2.915736 0,-1.610215 1.30547,-2.9153602 2.915735,-2.9153602 1.610166,0 2.915736,1.3051452 2.915736,2.9153602 0,1.61066 -1.30557,2.915736 -2.915736,2.915736 z m -7.883376,0 c -1.610225,0 -2.9157558,-1.305076 -2.9157558,-2.915736 0,-1.610215 1.3055308,-2.9153602 2.9157558,-2.9153602 1.610265,0 2.915735,1.3051452 2.915735,2.9153602 0,1.61066 -1.30547,2.915736 -2.915735,2.915736 z m -7.8841268,0 c -1.609446,0 -2.9149849,-1.305076 -2.9149849,-2.915736 0,-1.610215 1.3055389,-2.9153602 2.9149849,-2.9153602 1.610225,0 2.91538,1.3051452 2.91538,2.9153602 0,1.61066 -1.305155,2.915736 -2.91538,2.915736 z M 138.65764,23.52712 c -1.60938,0 -2.91465,-1.306359 -2.91465,-2.915736 0,-1.609475 1.30527,-2.916525 2.91465,-2.916525 1.60937,0 2.91563,1.30705 2.91563,2.916525 0,1.609377 -1.30626,2.915736 -2.91563,2.915736 z m -7.88298,0 c -1.60938,0 -2.91465,-1.306359 -2.91465,-2.915736 0,-1.609475 1.30527,-2.916525 2.91465,-2.916525 1.61036,0 2.91563,1.30705 2.91563,2.916525 0,1.609377 -1.30527,2.915736 -2.91563,2.915736 z m -7.88298,0 c -1.61037,0 -2.91465,-1.306359 -2.91465,-2.915736 0,-1.609475 1.30428,-2.916525 2.91465,-2.916525 1.61036,0 2.91464,1.30705 2.91464,2.916525 0,1.609377 -1.30428,2.915736 -2.91464,2.915736 z M 95.299548,37.855209 c -0.39523,1.052512 -1.19439,1.903013 -2.21185,2.361932 1.21187,0.519542 2.13978,1.567809 2.50115,2.854421 0.41843,-1.282367 1.49336,-2.268924 2.82894,-2.561278 -1.44044,-0.285442 -2.61291,-1.305174 -3.11824,-2.655075 z m -8.11856,-0.942621 c -0.21139,1.47796 -1.28237,2.676699 -2.692102,3.073514 1.288193,0.303905 2.353442,1.174054 2.926602,2.333003 0.46355,-0.936795 1.24652,-1.687377 2.21146,-2.101964 -1.30745,-0.590434 -2.25817,-1.827778 -2.44596,-3.304553 z M 111.86498,18.40565 c 0.69509,-0.989322 1.84239,-1.638009 3.14273,-1.638009 2.12279,0 3.84275,1.720947 3.84275,3.843743 0,2.122007 -1.71996,3.842954 -3.84275,3.842954 -1.30034,0 -2.44764,-0.647996 -3.14273,-1.63722 -0.44727,0.959505 -1.17593,1.758269 -2.08133,2.294793 1.00117,0.788693 1.6469,2.008956 1.6469,3.382455 0,2.378421 -1.92829,4.306908 -4.30582,4.306908 -1.90953,0 -3.52483,-1.243071 -4.0896,-2.965202 -0.42061,1.191827 -1.38327,2.127832 -2.59327,2.504999 1.74119,0.517271 3.01191,2.127832 3.01191,4.037362 0,2.045685 -1.45634,3.748859 -3.38908,4.131851 1.72638,0.378352 3.01784,1.912591 3.01784,3.75271 0,2.121217 -1.71996,3.841374 -3.841292,3.841374 -1.70544,0 -3.15102,-1.112741 -3.65239,-2.65162 -0.51984,1.850585 -2.21492,3.208879 -4.23089,3.208879 -1.73101,0 -3.22359,-1.00275 -3.94247,-2.456027 -0.7185,1.453277 -2.21117,2.456027 -3.942088,2.456027 -1.859768,0 -3.44683,-1.156974 -4.090185,-2.788467 -0.626275,1.475295 -2.089227,2.50964 -3.793192,2.50964 -2.275539,0 -4.120595,-1.844365 -4.120595,-4.119806 0,-1.992072 1.414276,-3.654765 3.292606,-4.038152 -1.775349,-0.381017 -3.107478,-1.957712 -3.107478,-3.846409 0,-2.172164 1.762612,-3.934678 3.935467,-3.934678 2.173744,0 3.935172,1.762514 3.935172,3.934678 0,1.888697 -1.331734,3.465392 -3.106688,3.846409 1.33904,0.27389 2.442105,1.197949 2.964708,2.425913 0.522602,-1.324033 1.667333,-2.331029 3.076278,-2.664653 -1.57788,-0.444307 -2.735644,-1.887907 -2.735644,-3.607669 0,-2.069579 1.678491,-3.749945 3.749551,-3.749945 1.889091,0 3.448408,1.398084 3.707588,3.21658 0.26342,-2.074219 2.03058,-3.678659 4.17697,-3.678659 1.80616,0 3.34188,1.137326 3.94159,2.733669 0.4609,-1.226088 1.47411,-2.182926 2.74108,-2.559007 -1.63801,-0.510557 -2.82777,-2.03986 -2.82777,-3.846705 0,-2.223507 1.80418,-4.0266 4.02838,-4.0266 1.753052,0 3.240982,1.122712 3.793892,2.685881 0.26757,-0.815648 0.77112,-1.521503 1.43067,-2.041736 -1.18186,-0.699239 -2.0606,-1.847426 -2.40715,-3.213124 -0.48973,1.068309 -1.56595,1.812671 -2.817412,1.812671 -1.71236,0 -3.10086,-1.388013 -3.10086,-3.100074 0,-1.713245 1.3885,-3.101258 3.10086,-3.101258 1.251462,0 2.327682,0.744362 2.817412,1.812671 0.28238,-1.114616 0.91823,-2.086166 1.78709,-2.786195 -0.97451,-0.839245 -1.62122,-2.044895 -1.72983,-3.404374 -0.19944,1.417732 -1.40401,2.510726 -2.874672,2.510726 -1.61017,0 -2.91573,-1.305076 -2.91573,-2.915736 0,-1.610215 1.30556,-2.9153602 2.91573,-2.9153602 1.470662,0 2.675232,1.0937932 2.874672,2.5107452 0.16193,-2.029028 1.52545,-3.71523 3.37969,-4.3500648 -1.12755,-0.5897129 -1.89867,-1.7683588 -1.89867,-3.1282719 0,-1.9488558 1.57877,-3.5286115 3.5278,-3.5286115 1.94902,0 3.52779,1.5797557 3.52779,3.5286115 0,1.3599131 -0.77112,2.538559 -1.89966,3.1282719 1.37538,0.4697602 2.48121,1.5165063 3.02721,2.8540458 0.65263,-1.1057498 1.85226,-1.8501209 3.22764,-1.8501209 2.07145,0 3.74994,1.6804259 3.74994,3.7507549 0,2.071554 -1.67849,3.75113 -3.74994,3.75113 -1.37538,0 -2.57501,-0.744361 -3.22764,-1.850486 -0.30312,0.741695 -0.77902,1.393443 -1.37636,1.90874 0.62005,0.498709 1.12064,1.1393 1.46127,1.869048 z m -20.507022,0.494859 c 0.94371,0 1.71048,0.765885 1.71048,1.710875 0,0.944892 -0.76677,1.710086 -1.71048,1.710086 -0.94499,0 -1.71058,-0.765194 -1.71058,-1.710086 0,-0.94499 0.76559,-1.710875 1.71058,-1.710875 z m -7.884558,3.51387 c -0.994654,0 -1.803094,-0.808736 -1.803094,-1.802995 0,-0.995048 0.80844,-1.803883 1.803094,-1.803883 0.996233,0 1.803488,0.808835 1.803488,1.803883 0,0.994259 -0.807255,1.802995 -1.803488,1.802995 z m -7.883377,-3.420171 c 0.894043,0 1.617177,0.723528 1.617177,1.617176 0,0.89355 -0.723134,1.617177 -1.617177,1.617177 -0.893549,0 -1.617472,-0.723627 -1.617472,-1.617177 0,-0.893648 0.723923,-1.617176 1.617472,-1.617176 z m -7.884067,3.512785 c -1.046391,0 -1.895608,-0.848922 -1.895608,-1.895609 0,-1.047575 0.849217,-1.895707 1.895608,-1.895707 1.047082,0 1.896793,0.848132 1.896793,1.895707 0,1.046687 -0.849711,1.895609 -1.896793,1.895609 z m -7.883376,1.437775 c -1.840811,0 -3.332298,-1.492178 -3.332298,-3.333384 0,-1.840514 1.491487,-3.332297 3.332298,-3.332297 1.840909,0 3.333482,1.491783 3.333482,3.332297 0,1.841206 -1.492573,3.333384 -3.333482,3.333384 z m -7.883376,0.926033 c -2.198329,0 -4.007248,-1.665754 -4.234733,-3.803163 -0.225609,1.816521 -1.772289,3.224676 -3.649335,3.224676 -2.032553,0 -3.680633,-1.648771 -3.680633,-3.68093 0,-1.921476 1.473319,-3.496197 3.349674,-3.664046 -2.183716,-0.168935 -3.905748,-1.991677 -3.905748,-4.22012 0,-2.338769 1.897089,-4.2363224 4.236707,-4.2363224 2.339915,0 4.236708,1.8975534 4.236708,4.2363224 0,2.228443 -1.721342,4.051185 -3.906243,4.22012 1.725982,0.153928 3.106689,1.498794 3.31887,3.207793 0.227485,-2.137508 2.036404,-3.804052 4.234733,-3.804052 2.35196,0 4.25991,1.907654 4.25991,4.260305 0,2.351862 -1.90795,4.259417 -4.25991,4.259417 z M 36.17176,23.52712 c -1.61066,0 -2.915736,-1.306359 -2.915736,-2.915736 0,-1.609475 1.305076,-2.916525 2.915736,-2.916525 1.610265,0 2.91534,1.30705 2.91534,2.916525 0,1.609377 -1.305075,2.915736 -2.91534,2.915736 z m -7.883771,-5.832261 c 1.609475,0 2.915044,1.30705 2.915044,2.916525 0,1.609377 -1.305569,2.915736 -2.915044,2.915736 -1.609771,0 -2.915736,-1.306359 -2.915736,-2.915736 0,-1.609475 1.305965,-2.916525 2.915736,-2.916525 z m -7.884068,5.832261 c -1.610265,0 -2.915735,-1.306359 -2.915735,-2.915736 0,-1.609475 1.30547,-2.916525 2.915735,-2.916525 1.610166,0 2.915736,1.30705 2.915736,2.916525 0,1.609377 -1.30557,2.915736 -2.915736,2.915736 z m -7.883376,0 c -1.610225,0 -2.9157558,-1.306359 -2.9157558,-2.915736 0,-1.609475 1.3055308,-2.916525 2.9157558,-2.916525 1.610265,0 2.915735,1.30705 2.915735,2.916525 0,1.609377 -1.30547,2.915736 -2.915735,2.915736 z m -7.8841268,0 c -1.609446,0 -2.9149849,-1.306359 -2.9149849,-2.915736 0,-1.609475 1.3055389,-2.916525 2.9149849,-2.916525 1.610225,0 2.91538,1.30705 2.91538,2.916525 0,1.609377 -1.305155,2.915736 -2.91538,2.915736 z M 138.65764,31.410101 c -1.60938,0 -2.91465,-1.305569 -2.91465,-2.915735 0,-1.609475 1.30527,-2.91465 2.91465,-2.91465 1.60937,0 2.91563,1.305175 2.91563,2.91465 0,1.610166 -1.30626,2.915735 -2.91563,2.915735 z m -7.88298,0 c -1.60938,0 -2.91465,-1.305569 -2.91465,-2.915735 0,-1.609475 1.30527,-2.91465 2.91465,-2.91465 1.61036,0 2.91563,1.305175 2.91563,2.91465 0,1.610166 -1.30527,2.915735 -2.91563,2.915735 z m -7.88298,0 c -1.61037,0 -2.91465,-1.305569 -2.91465,-2.915735 0,-1.609475 1.30428,-2.91465 2.91465,-2.91465 1.61036,0 2.91464,1.305175 2.91464,2.91465 0,1.610166 -1.30428,2.915735 -2.91464,2.915735 z m -7.88397,-6.201825 c 1.81573,0 3.28589,1.471444 3.28589,3.28609 0,1.815732 -1.47016,3.28678 -3.28589,3.28678 -1.81475,0 -3.28491,-1.471048 -3.28491,-3.28678 0,-1.814646 1.47016,-3.28609 3.28491,-3.28609 z M 91.357958,31.13236 c -1.45673,0 -2.63809,-1.180571 -2.63809,-2.637994 0,-1.456338 1.18136,-2.636218 2.63809,-2.636218 1.45595,0 2.63731,1.17988 2.63731,2.636218 0,1.457423 -1.18136,2.637994 -2.63731,2.637994 z M 83.4734,30.297361 c -0.994654,0 -1.803094,-0.805676 -1.803094,-1.802995 0,-0.995148 0.80844,-1.801909 1.803094,-1.801909 0.996233,0 1.803488,0.806761 1.803488,1.801909 0,0.997319 -0.807255,1.802995 -1.803488,1.802995 z m -7.883377,1.11274 c -1.609771,0 -2.915735,-1.305569 -2.915735,-2.915735 0,-1.609475 1.305964,-2.91465 2.915735,-2.91465 1.61066,0 2.915045,1.305175 2.915045,2.91465 0,1.610166 -1.304385,2.915735 -2.915045,2.915735 z m -7.884067,0.835395 c -2.069974,0 -3.750044,-1.679676 -3.750044,-3.75113 0,-2.070369 1.68007,-3.748859 3.750044,-3.748859 2.07106,0 3.750735,1.67849 3.750735,3.748859 0,2.071454 -1.679675,3.75113 -3.750735,3.75113 z m -7.883376,0.370255 c -2.27554,0 -4.120991,-1.84555 -4.120991,-4.121385 0,-2.274849 1.845451,-4.1203 4.120991,-4.1203 2.275539,0 4.12099,1.845451 4.12099,4.1203 0,2.275835 -1.845451,4.121385 -4.12099,4.121385 z m -7.883376,-7.592997 c 1.916836,0 3.471217,1.555072 3.471217,3.471612 0,1.917527 -1.554381,3.472599 -3.471217,3.472599 -1.917923,0 -3.472304,-1.555072 -3.472304,-3.472599 0,-1.91654 1.554381,-3.471612 3.472304,-3.471612 z m -7.884068,6.387347 c -1.61066,0 -2.915834,-1.305569 -2.915834,-2.915735 0,-1.609475 1.305174,-2.91465 2.915834,-2.91465 1.609771,0 2.915736,1.305175 2.915736,2.91465 0,1.610166 -1.305965,2.915735 -2.915736,2.915735 z m -7.883376,0 c -1.61066,0 -2.915736,-1.305569 -2.915736,-2.915735 0,-1.609475 1.305076,-2.91465 2.915736,-2.91465 1.610265,0 2.91534,1.305175 2.91534,2.91465 0,1.610166 -1.305075,2.915735 -2.91534,2.915735 z m -7.883771,-5.830385 c 1.609475,0 2.915044,1.305175 2.915044,2.91465 0,1.610166 -1.305569,2.915735 -2.915044,2.915735 -1.609771,0 -2.915736,-1.305569 -2.915736,-2.915735 0,-1.609475 1.305965,-2.91465 2.915736,-2.91465 z m -7.884068,5.830385 c -1.610265,0 -2.915735,-1.305569 -2.915735,-2.915735 0,-1.609475 1.30547,-2.91465 2.915735,-2.91465 1.610166,0 2.915736,1.305175 2.915736,2.91465 0,1.610166 -1.30557,2.915735 -2.915736,2.915735 z m -7.883376,0 c -1.610225,0 -2.9157558,-1.305569 -2.9157558,-2.915735 0,-1.609475 1.3055308,-2.91465 2.9157558,-2.91465 1.610265,0 2.915735,1.305175 2.915735,2.91465 0,1.610166 -1.30547,2.915735 -2.915735,2.915735 z m -7.8841268,0 c -1.609446,0 -2.9149849,-1.305569 -2.9149849,-2.915735 0,-1.609475 1.3055389,-2.91465 2.9149849,-2.91465 1.610225,0 2.91538,1.305175 2.91538,2.91465 0,1.610166 -1.305155,2.915735 -2.91538,2.915735 z M 138.65764,39.293774 c -1.60938,0 -2.91465,-1.305866 -2.91465,-2.915341 0,-1.610561 1.30527,-2.915735 2.91465,-2.915735 1.60937,0 2.91563,1.305174 2.91563,2.915735 0,1.609475 -1.30626,2.915341 -2.91563,2.915341 z m -7.88298,0 c -1.60938,0 -2.91465,-1.305866 -2.91465,-2.915341 0,-1.610561 1.30527,-2.915735 2.91465,-2.915735 1.61036,0 2.91563,1.305174 2.91563,2.915735 0,1.609475 -1.30527,2.915341 -2.91563,2.915341 z m -7.88298,0 c -1.61037,0 -2.91465,-1.305866 -2.91465,-2.915341 0,-1.610561 1.30428,-2.915735 2.91465,-2.915735 1.61036,0 2.91464,1.305174 2.91464,2.915735 0,1.609475 -1.30428,2.915341 -2.91464,2.915341 z m -7.88397,-5.831076 c 1.61036,0 2.91465,1.305174 2.91465,2.915735 0,1.609475 -1.30429,2.915341 -2.91465,2.915341 -1.60938,0 -2.91465,-1.305866 -2.91465,-2.915341 0,-1.610561 1.30527,-2.915735 2.91465,-2.915735 z m -7.88298,-0.555778 c 1.91644,0 3.47151,1.553887 3.47151,3.471513 0,1.918416 -1.55507,3.472303 -3.47151,3.472303 -1.91743,0 -3.47152,-1.553887 -3.47152,-3.472303 0,-1.917626 1.55409,-3.471513 3.47152,-3.471513 z M 67.705956,32.81401 c 1.968869,0 3.564423,1.59664 3.564423,3.564423 0,1.967783 -1.595554,3.565213 -3.564423,3.565213 -1.968178,0 -3.563732,-1.59743 -3.563732,-3.565213 0,-1.967783 1.595554,-3.564423 3.563732,-3.564423 z m -7.883376,6.479764 c -1.610265,0 -2.915736,-1.305866 -2.915736,-2.915341 0,-1.610561 1.305471,-2.915735 2.915736,-2.915735 1.610265,0 2.915735,1.305174 2.915735,2.915735 0,1.609475 -1.30547,2.915341 -2.915735,2.915341 z m -7.883376,-5.831076 c 1.60908,0 2.915834,1.305174 2.915834,2.915735 0,1.609475 -1.306754,2.915341 -2.915834,2.915341 -1.610167,0 -2.915736,-1.305866 -2.915736,-2.915341 0,-1.610561 1.305569,-2.915735 2.915736,-2.915735 z m -7.884068,5.831076 c -1.61066,0 -2.915834,-1.305866 -2.915834,-2.915341 0,-1.610561 1.305174,-2.915735 2.915834,-2.915735 1.609771,0 2.915736,1.305174 2.915736,2.915735 0,1.609475 -1.305965,2.915341 -2.915736,2.915341 z m -7.883376,0 c -1.61066,0 -2.915736,-1.305866 -2.915736,-2.915341 0,-1.610561 1.305076,-2.915735 2.915736,-2.915735 1.610265,0 2.91534,1.305174 2.91534,2.915735 0,1.609475 -1.305075,2.915341 -2.91534,2.915341 z m -7.883771,-5.831076 c 1.609475,0 2.915044,1.305174 2.915044,2.915735 0,1.609475 -1.305569,2.915341 -2.915044,2.915341 -1.609771,0 -2.915736,-1.305866 -2.915736,-2.915341 0,-1.610561 1.305965,-2.915735 2.915736,-2.915735 z m -7.884068,5.831076 c -1.610265,0 -2.915735,-1.305866 -2.915735,-2.915341 0,-1.610561 1.30547,-2.915735 2.915735,-2.915735 1.610166,0 2.915736,1.305174 2.915736,2.915735 0,1.609475 -1.30557,2.915341 -2.915736,2.915341 z m -7.883376,0 c -1.610225,0 -2.9157558,-1.305866 -2.9157558,-2.915341 0,-1.610561 1.3055308,-2.915735 2.9157558,-2.915735 1.610265,0 2.915735,1.305174 2.915735,2.915735 0,1.609475 -1.30547,2.915341 -2.915735,2.915341 z m -7.8841268,0 c -1.609446,0 -2.9149849,-1.305866 -2.9149849,-2.915341 0,-1.610561 1.3055389,-2.915735 2.9149849,-2.915735 1.610225,0 2.91538,1.305174 2.91538,2.915735 0,1.609475 -1.305155,2.915341 -2.91538,2.915341 z M 138.65764,47.17873 c -1.60938,0 -2.91465,-1.30557 -2.91465,-2.915736 0,-1.60987 1.30527,-2.915439 2.91465,-2.915439 1.60937,0 2.91563,1.305569 2.91563,2.915439 0,1.610166 -1.30626,2.915736 -2.91563,2.915736 z m -7.88298,0 c -1.60938,0 -2.91465,-1.30557 -2.91465,-2.915736 0,-1.60987 1.30527,-2.915439 2.91465,-2.915439 1.61036,0 2.91563,1.305569 2.91563,2.915439 0,1.610166 -1.30527,2.915736 -2.91563,2.915736 z m -7.88298,0 c -1.61037,0 -2.91465,-1.30557 -2.91465,-2.915736 0,-1.60987 1.30428,-2.915439 2.91465,-2.915439 1.61036,0 2.91464,1.305569 2.91464,2.915439 0,1.610166 -1.30428,2.915736 -2.91464,2.915736 z m -7.88397,-5.831175 c 1.61036,0 2.91465,1.305569 2.91465,2.915439 0,1.610166 -1.30429,2.915736 -2.91465,2.915736 -1.60938,0 -2.91465,-1.30557 -2.91465,-2.915736 0,-1.60987 1.30527,-2.915439 2.91465,-2.915439 z m -7.88298,0 c 1.61036,0 2.91464,1.305569 2.91464,2.915439 0,1.610166 -1.30428,2.915736 -2.91464,2.915736 -1.61037,0 -2.91465,-1.30557 -2.91465,-2.915736 0,-1.60987 1.30428,-2.915439 2.91465,-2.915439 z M 67.705956,40.789901 c 1.918021,0 3.472303,1.555072 3.472303,3.473093 0,1.916836 -1.554282,3.471119 -3.472303,3.471119 -1.916836,0 -3.471118,-1.554283 -3.471118,-3.471119 0,-1.918021 1.554282,-3.473093 3.471118,-3.473093 z M 59.82258,47.17873 c -1.610265,0 -2.915736,-1.30557 -2.915736,-2.915736 0,-1.60987 1.305471,-2.915439 2.915736,-2.915439 1.610265,0 2.915735,1.305569 2.915735,2.915439 0,1.610166 -1.30547,2.915736 -2.915735,2.915736 z m -7.883376,-5.831175 c 1.60908,0 2.915834,1.305569 2.915834,2.915439 0,1.610166 -1.306754,2.915736 -2.915834,2.915736 -1.610167,0 -2.915736,-1.30557 -2.915736,-2.915736 0,-1.60987 1.305569,-2.915439 2.915736,-2.915439 z m -7.884068,5.831175 c -1.61066,0 -2.915834,-1.30557 -2.915834,-2.915736 0,-1.60987 1.305174,-2.915439 2.915834,-2.915439 1.609771,0 2.915736,1.305569 2.915736,2.915439 0,1.610166 -1.305965,2.915736 -2.915736,2.915736 z m -7.883376,0 c -1.61066,0 -2.915736,-1.30557 -2.915736,-2.915736 0,-1.60987 1.305076,-2.915439 2.915736,-2.915439 1.610265,0 2.91534,1.305569 2.91534,2.915439 0,1.610166 -1.305075,2.915736 -2.91534,2.915736 z m -7.883771,-5.831175 c 1.609475,0 2.915044,1.305569 2.915044,2.915439 0,1.610166 -1.305569,2.915736 -2.915044,2.915736 -1.609771,0 -2.915736,-1.30557 -2.915736,-2.915736 0,-1.60987 1.305965,-2.915439 2.915736,-2.915439 z m -7.884068,5.831175 c -1.610265,0 -2.915735,-1.30557 -2.915735,-2.915736 0,-1.60987 1.30547,-2.915439 2.915735,-2.915439 1.610166,0 2.915736,1.305569 2.915736,2.915439 0,1.610166 -1.30557,2.915736 -2.915736,2.915736 z m -7.883376,0 c -1.610225,0 -2.9157558,-1.30557 -2.9157558,-2.915736 0,-1.60987 1.3055308,-2.915439 2.9157558,-2.915439 1.610265,0 2.915735,1.305569 2.915735,2.915439 0,1.610166 -1.30547,2.915736 -2.915735,2.915736 z m -7.8841268,0 c -1.609446,0 -2.9149849,-1.30557 -2.9149849,-2.915736 0,-1.60987 1.3055389,-2.915439 2.9149849,-2.915439 1.610225,0 2.91538,1.305569 2.91538,2.915439 0,1.610166 -1.305155,2.915736 -2.91538,2.915736 z M 138.65764,55.061316 c -1.60938,0 -2.91465,-1.304779 -2.91465,-2.915044 0,-1.610166 1.30527,-2.915736 2.91465,-2.915736 1.60937,0 2.91563,1.30557 2.91563,2.915736 0,1.610265 -1.30626,2.915044 -2.91563,2.915044 z m -7.88298,0 c -1.60938,0 -2.91465,-1.304779 -2.91465,-2.915044 0,-1.610166 1.30527,-2.915736 2.91465,-2.915736 1.61036,0 2.91563,1.30557 2.91563,2.915736 0,1.610265 -1.30527,2.915044 -2.91563,2.915044 z m -7.88298,0 c -1.61037,0 -2.91465,-1.304779 -2.91465,-2.915044 0,-1.610166 1.30428,-2.915736 2.91465,-2.915736 1.61036,0 2.91464,1.30557 2.91464,2.915736 0,1.610265 -1.30428,2.915044 -2.91464,2.915044 z m -7.88397,-5.83078 c 1.61036,0 2.91465,1.30557 2.91465,2.915736 0,1.610265 -1.30429,2.915044 -2.91465,2.915044 -1.60938,0 -2.91465,-1.304779 -2.91465,-2.915044 0,-1.610166 1.30527,-2.915736 2.91465,-2.915736 z M 99.241238,48.117894 c 2.224012,0 4.027892,1.802996 4.027892,4.028378 0,2.223506 -1.80388,4.027291 -4.027892,4.027291 -2.2242,0 -4.02838,-1.803785 -4.02838,-4.027291 0,-2.225382 1.80418,-4.028378 4.02838,-4.028378 z m -7.88328,1.112642 c 1.60898,0 2.91574,1.30557 2.91574,2.915736 0,1.610265 -1.30676,2.915044 -2.91574,2.915044 -1.61026,0 -2.91652,-1.304779 -2.91652,-2.915044 0,-1.610166 1.30626,-2.915736 2.91652,-2.915736 z m -10.799899,2.915736 c 0,-1.610166 1.305175,-2.915736 2.915341,-2.915736 1.610659,0 2.915738,1.30557 2.915738,2.915736 0,1.610265 -1.305079,2.915044 -2.915738,2.915044 -1.610166,0 -2.915341,-1.304779 -2.915341,-2.915044 z m -4.968036,-3.563633 c 1.968179,0 3.564917,1.594763 3.564917,3.563633 0,1.968178 -1.596738,3.564916 -3.564917,3.564916 -1.786407,0 -3.261702,-1.317121 -3.52009,-3.031453 -0.264215,2.177101 -2.115491,3.865268 -4.363977,3.865268 -2.015176,0 -3.711044,-1.357603 -4.230981,-3.207694 -0.501375,1.537695 -1.945765,2.651126 -3.652395,2.651126 -2.122007,0 -3.842164,-1.720847 -3.842164,-3.842163 0,-2.122402 1.720157,-3.842559 3.842164,-3.842559 1.70663,0 3.15102,1.111951 3.652395,2.652015 0.519937,-1.850486 2.215805,-3.208089 4.230981,-3.208089 2.248486,0 4.099762,1.687278 4.363977,3.864478 0.258388,-1.714331 1.733683,-3.029478 3.52009,-3.029478 z m -23.650819,7.03485 c -1.917923,0 -3.472304,-1.554381 -3.472304,-3.471217 0,-1.917626 1.554381,-3.472303 3.472304,-3.472303 1.916836,0 3.471217,1.554677 3.471217,3.472303 0,1.916836 -1.554381,3.471217 -3.471217,3.471217 z m -7.884068,-0.556173 c -1.61066,0 -2.915834,-1.304779 -2.915834,-2.915044 0,-1.610166 1.305174,-2.915736 2.915834,-2.915736 1.609771,0 2.915736,1.30557 2.915736,2.915736 0,1.610265 -1.305965,2.915044 -2.915736,2.915044 z m -7.883376,0 c -1.61066,0 -2.915736,-1.304779 -2.915736,-2.915044 0,-1.610166 1.305076,-2.915736 2.915736,-2.915736 1.610265,0 2.91534,1.30557 2.91534,2.915736 0,1.610265 -1.305075,2.915044 -2.91534,2.915044 z m -7.883771,-5.83078 c 1.609475,0 2.915044,1.30557 2.915044,2.915736 0,1.610265 -1.305569,2.915044 -2.915044,2.915044 -1.609771,0 -2.915736,-1.304779 -2.915736,-2.915044 0,-1.610166 1.305965,-2.915736 2.915736,-2.915736 z m -7.884068,5.83078 c -1.610265,0 -2.915735,-1.304779 -2.915735,-2.915044 0,-1.610166 1.30547,-2.915736 2.915735,-2.915736 1.610166,0 2.915736,1.30557 2.915736,2.915736 0,1.610265 -1.30557,2.915044 -2.915736,2.915044 z m -7.883376,0 c -1.610225,0 -2.9157558,-1.304779 -2.9157558,-2.915044 0,-1.610166 1.3055308,-2.915736 2.9157558,-2.915736 1.610265,0 2.915735,1.30557 2.915735,2.915736 0,1.610265 -1.30547,2.915044 -2.915735,2.915044 z m -7.8841268,0 c -1.609446,0 -2.9149849,-1.304779 -2.9149849,-2.915044 0,-1.610166 1.3055389,-2.915736 2.9149849,-2.915736 1.610225,0 2.91538,1.30557 2.91538,2.915736 0,1.610265 -1.305155,2.915044 -2.91538,2.915044 z M 138.65764,62.944692 c -1.60938,0 -2.91465,-1.305569 -2.91465,-2.916229 0,-1.60908 1.30527,-2.914551 2.91465,-2.914551 1.60937,0 2.91563,1.305471 2.91563,2.914551 0,1.61066 -1.30626,2.916229 -2.91563,2.916229 z m -7.88298,0 c -1.60938,0 -2.91465,-1.305569 -2.91465,-2.916229 0,-1.60908 1.30527,-2.914551 2.91465,-2.914551 1.61036,0 2.91563,1.305471 2.91563,2.914551 0,1.61066 -1.30527,2.916229 -2.91563,2.916229 z m -7.88298,0 c -1.61037,0 -2.91465,-1.305569 -2.91465,-2.916229 0,-1.60908 1.30428,-2.914551 2.91465,-2.914551 1.61036,0 2.91464,1.305471 2.91464,2.914551 0,1.61066 -1.30428,2.916229 -2.91464,2.916229 z m -23.650442,0 c -1.61017,0 -2.91573,-1.305569 -2.91573,-2.916229 0,-1.60908 1.30556,-2.914551 2.91573,-2.914551 1.608892,0 2.915152,1.305471 2.915152,2.914551 0,1.61066 -1.30626,2.916229 -2.915152,2.916229 z m -7.88328,-1.11274 c -0.99584,0 -1.80428,-0.807255 -1.80428,-1.803489 0,-0.995049 0.80844,-1.801909 1.80428,-1.801909 0.99505,0 1.803,0.80686 1.803,1.801909 0,0.996234 -0.80795,1.803489 -1.803,1.803489 z M 83.4734,58.132855 c 1.047477,0 1.895608,0.849711 1.895608,1.895608 0,1.047576 -0.848131,1.896793 -1.895608,1.896793 -1.045996,0 -1.895214,-0.849217 -1.895214,-1.896793 0,-1.045897 0.849218,-1.895608 1.895214,-1.895608 z m -7.883377,-0.09212 c 1.097733,0 1.988617,0.890884 1.988617,1.987728 0,1.098424 -0.890884,1.989406 -1.988617,1.989406 -1.098029,0 -1.988912,-0.890982 -1.988912,-1.989406 0,-1.096844 0.890883,-1.987728 1.988912,-1.987728 z m -7.884067,-0.926823 c 1.610166,0 2.915736,1.305471 2.915736,2.914551 0,1.61066 -1.30557,2.916229 -2.915736,2.916229 -1.60908,0 -2.915044,-1.305569 -2.915044,-2.916229 0,-1.60908 1.305964,-2.914551 2.915044,-2.914551 z m -31.534196,5.83078 c -1.61066,0 -2.915736,-1.305569 -2.915736,-2.916229 0,-1.60908 1.305076,-2.914551 2.915736,-2.914551 1.610265,0 2.91534,1.305471 2.91534,2.914551 0,1.61066 -1.305075,2.916229 -2.91534,2.916229 z m -7.883771,-5.83078 c 1.609475,0 2.915044,1.305471 2.915044,2.914551 0,1.61066 -1.305569,2.916229 -2.915044,2.916229 -1.609771,0 -2.915736,-1.305569 -2.915736,-2.916229 0,-1.60908 1.305965,-2.914551 2.915736,-2.914551 z m -7.884068,5.83078 c -1.610265,0 -2.915735,-1.305569 -2.915735,-2.916229 0,-1.60908 1.30547,-2.914551 2.915735,-2.914551 1.610166,0 2.915736,1.305471 2.915736,2.914551 0,1.61066 -1.30557,2.916229 -2.915736,2.916229 z m -7.883376,0 c -1.610225,0 -2.9157558,-1.305569 -2.9157558,-2.916229 0,-1.60908 1.3055308,-2.914551 2.9157558,-2.914551 1.610265,0 2.915735,1.305471 2.915735,2.914551 0,1.61066 -1.30547,2.916229 -2.915735,2.916229 z m -7.8841268,0 c -1.609446,0 -2.9149849,-1.305569 -2.9149849,-2.916229 0,-1.60908 1.3055389,-2.914551 2.9149849,-2.914551 1.610225,0 2.91538,1.305471 2.91538,2.914551 0,1.61066 -1.305155,2.916229 -2.91538,2.916229 z M 138.65764,70.82876 c -1.60938,0 -2.91465,-1.306261 -2.91465,-2.915736 0,-1.610265 1.30527,-2.915735 2.91465,-2.915735 1.60937,0 2.91563,1.30547 2.91563,2.915735 0,1.609475 -1.30626,2.915736 -2.91563,2.915736 z m -7.88298,0 c -1.60938,0 -2.91465,-1.306261 -2.91465,-2.915736 0,-1.610265 1.30527,-2.915735 2.91465,-2.915735 1.61036,0 2.91563,1.30547 2.91563,2.915735 0,1.609475 -1.30527,2.915736 -2.91563,2.915736 z m -7.88298,0 c -1.61037,0 -2.91465,-1.306261 -2.91465,-2.915736 0,-1.610265 1.30428,-2.915735 2.91465,-2.915735 1.61036,0 2.91464,1.30547 2.91464,2.915735 0,1.609475 -1.30428,2.915736 -2.91464,2.915736 z m -13.93148,1.385347 c 1.30133,0.668434 2.19192,2.019816 2.19192,3.582294 0,2.224592 -1.8029,4.027982 -4.02739,4.027982 -2.2245,0 -4.02739,-1.80339 -4.02739,-4.027982 0,-1.562478 0.89058,-2.91386 2.19191,-3.582294 -1.6706,-0.713852 -2.8406,-2.37072 -2.8406,-4.301083 0,-1.695078 0.9054,-3.176099 2.2551,-3.996881 -1.29737,-0.808736 -2.16229,-2.24424 -2.16229,-3.88768 0,-2.012806 1.30034,-3.719535 3.10521,-4.335047 -1.38723,-0.579277 -2.36371,-1.949221 -2.36371,-3.547144 0,-2.122402 1.71897,-3.842559 3.84177,-3.842559 2.12082,0 3.84176,1.720157 3.84176,3.842559 0,1.597923 -0.97747,2.967867 -2.36469,3.547144 1.55902,0.531489 2.7389,1.87754 3.03115,3.534012 0.36335,-1.529993 1.73379,-2.668898 3.37476,-2.668898 1.91841,0 3.47151,1.553097 3.47151,3.469933 0,1.918021 -1.5531,3.472303 -3.47151,3.472303 -1.64097,0 -3.01141,-1.139695 -3.37476,-2.670774 -0.22906,1.302805 -1.00709,2.412386 -2.08824,3.086151 1.07325,0.652242 1.86412,1.720157 2.14353,2.98327 0.43246,-1.423162 1.75452,-2.458297 3.31947,-2.458297 1.91841,0 3.47151,1.554282 3.47151,3.471908 0,1.916836 -1.5531,3.471514 -3.47151,3.471514 -1.56495,0 -2.88701,-1.035925 -3.31947,-2.459088 -0.32878,1.484082 -1.35859,2.703653 -2.72804,3.288657 z M 99.241238,70.82876 c -1.61017,0 -2.91573,-1.306261 -2.91573,-2.915736 0,-1.610265 1.30556,-2.915735 2.91573,-2.915735 1.608892,0 2.915152,1.30547 2.915152,2.915735 0,1.609475 -1.30626,2.915736 -2.915152,2.915736 z m -7.88328,-1.112642 c -0.99584,0 -1.80428,-0.80686 -1.80428,-1.803094 0,-0.995838 0.80844,-1.803094 1.80428,-1.803094 0.99505,0 1.803,0.807256 1.803,1.803094 0,0.996234 -0.80795,1.803094 -1.803,1.803094 z M 83.4734,66.10993 c 0.996233,0 1.803488,0.807256 1.803488,1.803094 0,0.996234 -0.807255,1.803094 -1.803488,1.803094 -0.994654,0 -1.803094,-0.80686 -1.803094,-1.803094 0,-0.995838 0.80844,-1.803094 1.803094,-1.803094 z m -7.883377,3.513575 c -0.944496,0 -1.71048,-0.765589 -1.71048,-1.710481 0,-0.944891 0.765984,-1.71048 1.71048,-1.71048 0.944201,0 1.710876,0.765589 1.710876,1.71048 0,0.944892 -0.766675,1.710481 -1.710876,1.710481 z m -7.884067,0 c -0.9442,0 -1.710481,-0.765589 -1.710481,-1.710481 0,-0.944891 0.766281,-1.71048 1.710481,-1.71048 0.944891,0 1.710481,0.765589 1.710481,1.71048 0,0.944892 -0.76559,1.710481 -1.710481,1.710481 z M 59.82258,65.646371 c 1.251561,0 2.267048,1.015092 2.267048,2.266653 0,1.251562 -1.015487,2.267049 -2.267048,2.267049 -1.251562,0 -2.267048,-1.015487 -2.267048,-2.267049 0,-1.251561 1.015486,-2.266653 2.267048,-2.266653 z m -19.226319,8.969458 c 0.365713,-1.068803 1.209204,-1.912985 2.278699,-2.278304 -1.528513,-0.406886 -2.744135,-1.579361 -3.204337,-3.08546 -0.379833,0.992383 -1.167835,1.780384 -2.159823,2.159427 1.5061,0.460203 2.678575,1.67543 3.085461,3.204337 z m -0.925638,15.608876 c 0.460202,-1.5061 1.67464,-2.678575 3.204337,-3.085855 -1.069495,-0.36522 -1.912986,-1.209106 -2.278699,-2.278206 -0.406886,1.528908 -1.579361,2.744135 -3.085461,3.203844 0.991988,0.380326 1.77999,1.168328 2.159823,2.160217 z m 7.790862,17.603025 c -0.217908,1.50472 -1.405884,2.6925 -2.911194,2.90971 1.948135,0.21327 3.52246,1.66665 3.915918,3.55347 0.329675,-1.24209 1.305471,-2.21956 2.548146,-2.54933 -1.886722,-0.39297 -3.339603,-1.96779 -3.55287,-3.91385 z M 32.421815,67.913024 c 0,-2.071158 1.67849,-3.750044 3.749945,-3.750044 1.598219,0 2.958981,1.002059 3.498863,2.410905 0.460202,-1.5061 1.675824,-2.678575 3.204337,-3.086547 -1.43975,-0.490612 -2.477255,-1.852066 -2.477255,-3.458875 0,-2.019026 1.638405,-3.656246 3.657431,-3.656246 1.73941,0 3.192292,1.215326 3.562547,2.842474 0.382992,-2.039069 2.170189,-3.584564 4.321521,-3.584564 1.960476,0 3.619615,1.283946 4.18734,3.055445 0.550841,-1.50995 1.995132,-2.591787 3.696036,-2.591787 2.173349,0 3.935863,1.761823 3.935863,3.934678 0,2.173744 -1.762514,3.936357 -3.935863,3.936357 -1.700904,0 -3.145195,-1.081837 -3.696036,-2.591787 -0.567725,1.771005 -2.226864,3.055346 -4.18734,3.055346 -2.151332,0 -3.938529,-1.545396 -4.321521,-3.584959 -0.282776,1.240009 -1.193703,2.238909 -2.381581,2.643918 1.704656,0.453884 3.01605,1.862829 3.328447,3.621492 0.363245,-1.529204 1.734769,-2.667714 3.374655,-2.667714 1.916836,0 3.471217,1.554282 3.471217,3.471908 0,1.916836 -1.554381,3.471514 -3.471217,3.471514 -1.639886,0 -3.01141,-1.138116 -3.374655,-2.667418 -0.312397,1.758762 -1.623791,3.166522 -3.328447,3.620405 1.43975,0.492193 2.47607,1.852856 2.47607,3.458876 0,2.019421 -1.637219,3.65743 -3.657036,3.65743 -1.605624,0 -2.967077,-1.037109 -3.458875,-2.476859 -0.311607,1.17208 -1.074037,2.157058 -2.093473,2.761413 1.019436,0.603664 1.781076,1.588642 2.093473,2.760722 0.491798,-1.43975 1.853251,-2.47686 3.458875,-2.47686 2.019817,0 3.657036,1.638009 3.657036,3.657826 0,1.605624 -1.03632,2.967078 -2.47607,3.458777 1.958503,0.521516 3.403584,2.302592 3.403584,4.424599 0,2.066123 -1.36718,3.811655 -3.245509,4.38481 1.098029,0.420412 1.94695,1.341015 2.267838,2.484561 0.458919,-1.93915 2.197638,-3.383936 4.277189,-3.383936 2.078859,0 3.817084,1.444786 4.276497,3.383936 0.442332,-1.576991 1.888697,-2.735249 3.606879,-2.735249 2.071158,0 3.750044,1.679281 3.750044,3.750044 0,2.069985 -1.678886,3.750445 -3.750044,3.750445 -1.718182,0 -3.164547,-1.15915 -3.606879,-2.73693 -0.294328,1.24307 -1.110766,2.28275 -2.209979,2.86825 0.931463,0.48281 1.674639,1.27664 2.085376,2.2472 0.659548,-1.40105 2.080736,-2.37358 3.731482,-2.37358 1.769524,0 3.274439,1.1157 3.861417,2.68065 0.448551,-1.24505 1.454461,-2.22351 2.719055,-2.62734 -1.583902,-0.54304 -2.724387,-2.04084 -2.724387,-3.808695 0,-2.224691 1.802699,-4.028081 4.027291,-4.028081 2.224197,0 4.028476,1.80339 4.028476,4.028081 0,1.767855 -1.140485,3.265655 -2.724881,3.808695 1.493758,0.47689 2.627232,1.75255 2.906158,3.3244 0.347053,-1.71107 1.860854,-2.99956 3.674314,-2.99956 2.070369,0 3.750044,1.67948 3.750044,3.74995 0,2.07046 -1.679675,3.74994 -3.750044,3.74994 -1.81346,0 -3.327261,-1.28849 -3.674314,-2.99956 -0.355643,2.0053 -2.102754,3.52878 -4.209753,3.52878 -1.853251,0 -3.427576,-1.18185 -4.021959,-2.83171 -0.586978,1.56494 -2.091893,2.67966 -3.861417,2.67966 -1.650746,0 -3.071934,-0.97155 -3.731482,-2.3726 -0.56891,1.3428 -1.769524,2.35186 -3.228132,2.65597 1.538089,0.40876 2.673934,1.80684 2.673934,3.47349 0,1.98654 -1.61145,3.5969 -3.597696,3.5969 -1.666939,0 -3.065418,-1.13545 -3.472995,-2.67374 -0.326713,1.56791 -1.470259,2.83369 -2.964017,3.3402 1.43669,0.57661 2.452966,1.97865 2.452966,3.61962 0,2.15439 -1.74642,3.90101 -3.900022,3.90101 -2.153306,0 -3.900417,-1.74662 -3.900417,-3.90101 0,-1.64097 1.016277,-3.04301 2.452966,-3.61962 -1.626457,-0.55193 -2.836748,-2.0053 -3.030762,-3.76772 -0.239826,1.66665 -1.67148,2.9502 -3.405163,2.9502 -1.90331,0 -3.44604,-1.54323 -3.44604,-3.44584 0,-1.90262 1.54273,-3.44585 3.44604,-3.44585 1.733683,0 3.165337,1.28355 3.405163,2.9502 0.22946,-2.09219 1.890277,-3.75291 3.983355,-3.98198 -1.668124,-0.24091 -2.95049,-1.67256 -2.95049,-3.40634 0,-1.90262 1.54273,-3.44585 3.445348,-3.44585 1.734374,0 3.164547,1.28257 3.406349,2.9502 0.16775,-1.53039 1.102274,-2.82875 2.410509,-3.50607 -1.098029,-0.5855 -1.916046,-1.62518 -2.209979,-2.86825 -0.442332,1.57778 -1.887907,2.73693 -3.606879,2.73693 -2.070369,0 -3.750044,-1.68046 -3.750044,-3.750445 0,-1.598318 1.002849,-2.959771 2.4113,-3.499356 -1.454758,-0.443912 -2.602154,-1.590913 -3.045769,-3.045374 -0.539882,1.408549 -1.900644,2.410904 -3.498863,2.410904 -2.071455,0 -3.749945,-1.679576 -3.749945,-3.75034 0,-1.597923 1.00196,-2.959376 2.410509,-3.498961 -1.878329,-0.573057 -3.245608,-2.319082 -3.245608,-4.384415 0,-1.678885 0.906385,-3.143319 2.253621,-3.941688 -1.347236,-0.798665 -2.253621,-2.262803 -2.253621,-3.941984 0,-2.065334 1.367279,-3.811754 3.245608,-4.384909 -1.408549,-0.53919 -2.410509,-1.899854 -2.410509,-3.498468 z m -4.133826,-2.915735 c 1.609475,0 2.915044,1.30547 2.915044,2.915735 0,1.609475 -1.305569,2.915736 -2.915044,2.915736 -1.609771,0 -2.915736,-1.306261 -2.915736,-2.915736 0,-1.610265 1.305965,-2.915735 2.915736,-2.915735 z m -7.884068,5.831471 c -1.610265,0 -2.915735,-1.306261 -2.915735,-2.915736 0,-1.610265 1.30547,-2.915735 2.915735,-2.915735 1.610166,0 2.915736,1.30547 2.915736,2.915735 0,1.609475 -1.30557,2.915736 -2.915736,2.915736 z m -7.883376,0 c -1.610225,0 -2.9157558,-1.306261 -2.9157558,-2.915736 0,-1.610265 1.3055308,-2.915735 2.9157558,-2.915735 1.610265,0 2.915735,1.30547 2.915735,2.915735 0,1.609475 -1.30547,2.915736 -2.915735,2.915736 z m -7.8841268,0 c -1.609446,0 -2.9149849,-1.306261 -2.9149849,-2.915736 0,-1.610265 1.3055389,-2.915735 2.9149849,-2.915735 1.610225,0 2.91538,1.30547 2.91538,2.915735 0,1.609475 -1.305155,2.915736 -2.91538,2.915736 z M 138.65764,78.712136 c -1.60938,0 -2.91465,-1.305569 -2.91465,-2.915735 0,-1.610265 1.30527,-2.915835 2.91465,-2.915835 1.60937,0 2.91563,1.30557 2.91563,2.915835 0,1.610166 -1.30626,2.915735 -2.91563,2.915735 z m -7.88298,0 c -1.60938,0 -2.91465,-1.305569 -2.91465,-2.915735 0,-1.610265 1.30527,-2.915835 2.91465,-2.915835 1.61036,0 2.91563,1.30557 2.91563,2.915835 0,1.610166 -1.30527,2.915735 -2.91563,2.915735 z m -7.88298,0 c -1.61037,0 -2.91465,-1.305569 -2.91465,-2.915735 0,-1.610265 1.30428,-2.915835 2.91465,-2.915835 1.61036,0 2.91464,1.30557 2.91464,2.915835 0,1.610166 -1.30428,2.915735 -2.91464,2.915735 z m -7.88397,0 c -1.60938,0 -2.91465,-1.305569 -2.91465,-2.915735 0,-1.610265 1.30527,-2.915835 2.91465,-2.915835 1.61036,0 2.91465,1.30557 2.91465,2.915835 0,1.610166 -1.30429,2.915735 -2.91465,2.915735 z m -15.766472,0.927119 c -2.1224,0 -3.84325,-1.721242 -3.84325,-3.842854 0,-2.122106 1.72085,-3.842954 3.84325,-3.842954 2.122312,0 3.842272,1.720848 3.842272,3.842954 0,2.121612 -1.71996,3.842854 -3.842272,3.842854 z m -7.88328,-1.390679 c -1.35375,0 -2.45178,-1.098424 -2.45178,-2.452175 0,-1.353752 1.09803,-2.451781 2.45178,-2.451781 1.35297,0 2.45218,1.098029 2.45218,2.451781 0,1.353751 -1.09921,2.452175 -2.45218,2.452175 z M 83.4734,73.993307 c 0.996233,0 1.803488,0.80765 1.803488,1.803094 0,0.995443 -0.807255,1.802995 -1.803488,1.802995 -0.994654,0 -1.803094,-0.807552 -1.803094,-1.802995 0,-0.995444 0.80844,-1.803094 1.803094,-1.803094 z m -7.883377,3.606089 c -0.995838,0 -1.8026,-0.807552 -1.8026,-1.802995 0,-0.995444 0.806762,-1.803094 1.8026,-1.803094 0.995049,0 1.803489,0.80765 1.803489,1.803094 0,0.995443 -0.80844,1.802995 -1.803489,1.802995 z m -7.884067,0 c -0.995049,0 -1.803094,-0.807552 -1.803094,-1.802995 0,-0.995444 0.808045,-1.803094 1.803094,-1.803094 0.996234,0 1.803785,0.80765 1.803785,1.803094 0,0.995443 -0.807551,1.802995 -1.803785,1.802995 z M 59.82258,73.900694 c 1.04718,0 1.895608,0.848921 1.895608,1.895707 0,1.046686 -0.848428,1.895608 -1.895608,1.895608 -1.047082,0 -1.895608,-0.848922 -1.895608,-1.895608 0,-1.046786 0.848526,-1.895707 1.895608,-1.895707 z m -7.883376,-0.09291 c 1.098029,0 1.988221,0.890489 1.988221,1.988617 0,1.098423 -0.890192,1.988517 -1.988221,1.988517 -1.098424,0 -1.988913,-0.890094 -1.988913,-1.988517 0,-1.098128 0.890489,-1.988617 1.988913,-1.988617 z m -23.651215,5.182389 c -1.763304,0 -3.194168,-1.430074 -3.194168,-3.193772 0,-1.764193 1.430864,-3.193872 3.194168,-3.193872 1.763797,0 3.193476,1.429679 3.193476,3.193872 0,1.763698 -1.429679,3.193772 -3.193476,3.193772 z m -7.884068,-0.278037 c -1.610265,0 -2.915735,-1.305569 -2.915735,-2.915735 0,-1.610265 1.30547,-2.915835 2.915735,-2.915835 1.610166,0 2.915736,1.30557 2.915736,2.915835 0,1.610166 -1.30557,2.915735 -2.915736,2.915735 z m -7.883376,0 c -1.610225,0 -2.9157558,-1.305569 -2.9157558,-2.915735 0,-1.610265 1.3055308,-2.915835 2.9157558,-2.915835 1.610265,0 2.915735,1.30557 2.915735,2.915835 0,1.610166 -1.30547,2.915735 -2.915735,2.915735 z m -7.8841268,0 c -1.609446,0 -2.9149849,-1.305569 -2.9149849,-2.915735 0,-1.610265 1.3055389,-2.915835 2.9149849,-2.915835 1.610225,0 2.91538,1.30557 2.91538,2.915835 0,1.610166 -1.305155,2.915735 -2.91538,2.915735 z M 138.65764,86.595512 c -1.60938,0 -2.91465,-1.305569 -2.91465,-2.915439 0,-1.610166 1.30527,-2.915736 2.91465,-2.915736 1.60937,0 2.91563,1.30557 2.91563,2.915736 0,1.60987 -1.30626,2.915439 -2.91563,2.915439 z m -7.88298,0 c -1.60938,0 -2.91465,-1.305569 -2.91465,-2.915439 0,-1.610166 1.30527,-2.915736 2.91465,-2.915736 1.61036,0 2.91563,1.30557 2.91563,2.915736 0,1.60987 -1.30527,2.915439 -2.91563,2.915439 z m -7.88298,0 c -1.61037,0 -2.91465,-1.305569 -2.91465,-2.915439 0,-1.610166 1.30428,-2.915736 2.91465,-2.915736 1.61036,0 2.91464,1.30557 2.91464,2.915736 0,1.60987 -1.30428,2.915439 -2.91464,2.915439 z m -7.88397,0 c -1.60938,0 -2.91465,-1.305569 -2.91465,-2.915439 0,-1.610166 1.30527,-2.915736 2.91465,-2.915736 1.61036,0 2.91465,1.30557 2.91465,2.915736 0,1.60987 -1.30429,2.915439 -2.91465,2.915439 z M 107.12473,80.4863 c 1.7634,0 3.19308,1.430469 3.19308,3.193773 0,1.763797 -1.42968,3.193476 -3.19308,3.193476 -1.76439,0 -3.19309,-1.429679 -3.19309,-3.193476 0,-1.763304 1.4287,-3.193773 3.19309,-3.193773 z M 99.241238,79.745 c 2.173662,0 3.935082,1.761823 3.935082,3.935073 0,2.172954 -1.76142,3.935172 -3.935082,3.935172 -2.17325,0 -3.93468,-1.762218 -3.93468,-3.935172 0,-2.17325 1.76143,-3.935073 3.93468,-3.935073 z m -7.88328,0 c 2.17325,0 3.93468,1.761823 3.93468,3.935073 0,2.173349 -1.76143,3.935567 -3.93468,3.935567 -2.17335,0 -3.93596,-1.762218 -3.93596,-3.935567 0,-2.17325 1.76261,-3.935073 3.93596,-3.935073 z M 83.4734,86.595512 c -1.610166,0 -2.915341,-1.305569 -2.915341,-2.915439 0,-1.610166 1.305175,-2.915736 2.915341,-2.915736 1.610659,0 2.915738,1.30557 2.915738,2.915736 0,1.60987 -1.305079,2.915439 -2.915738,2.915439 z m -7.883377,-1.019831 c -1.046686,0 -1.895608,-0.848822 -1.895608,-1.895608 0,-1.047082 0.848922,-1.896003 1.895608,-1.896003 1.046391,0 1.896004,0.848921 1.896004,1.896003 0,1.046786 -0.849613,1.895608 -1.896004,1.895608 z m -7.884067,-0.09251 c -0.995049,0 -1.803094,-0.80765 -1.803094,-1.803094 0,-0.995839 0.808045,-1.80339 1.803094,-1.80339 0.996234,0 1.803785,0.807551 1.803785,1.80339 0,0.995444 -0.807551,1.803094 -1.803785,1.803094 z M 59.82258,81.876687 c 0.996233,0 1.803094,0.807551 1.803094,1.80339 0,0.995444 -0.806861,1.803094 -1.803094,1.803094 -0.996234,0 -1.803094,-0.80765 -1.803094,-1.803094 0,-0.995839 0.80686,-1.80339 1.803094,-1.80339 z m -7.883376,-0.185128 c 1.098029,0 1.988221,0.890489 1.988221,1.988518 0,1.098029 -0.890192,1.988221 -1.988221,1.988221 -1.098424,0 -1.988913,-0.890192 -1.988913,-1.988221 0,-1.098029 0.890489,-1.988518 1.988913,-1.988518 z m -23.651215,5.181994 c -1.763304,0 -3.194168,-1.429679 -3.194168,-3.193476 0,-1.763304 1.430864,-3.193773 3.194168,-3.193773 1.763797,0 3.193476,1.430469 3.193476,3.193773 0,1.763797 -1.429679,3.193476 -3.193476,3.193476 z m -7.884068,-0.278037 c -1.610265,0 -2.915735,-1.305569 -2.915735,-2.915439 0,-1.610166 1.30547,-2.915736 2.915735,-2.915736 1.610166,0 2.915736,1.30557 2.915736,2.915736 0,1.60987 -1.30557,2.915439 -2.915736,2.915439 z m -7.883376,0 c -1.610225,0 -2.9157558,-1.305569 -2.9157558,-2.915439 0,-1.610166 1.3055308,-2.915736 2.9157558,-2.915736 1.610265,0 2.915735,1.30557 2.915735,2.915736 0,1.60987 -1.30547,2.915439 -2.915735,2.915439 z m -7.8841268,0 c -1.609446,0 -2.9149849,-1.305569 -2.9149849,-2.915439 0,-1.610166 1.3055389,-2.915736 2.9149849,-2.915736 1.610225,0 2.91538,1.30557 2.91538,2.915736 0,1.60987 -1.305155,2.915439 -2.91538,2.915439 z M 138.65764,94.479185 c -1.60938,0 -2.91465,-1.305471 -2.91465,-2.915736 0,-1.60987 1.30527,-2.914945 2.91465,-2.914945 1.60937,0 2.91563,1.305075 2.91563,2.914945 0,1.610265 -1.30626,2.915736 -2.91563,2.915736 z m -7.88298,0 c -1.60938,0 -2.91465,-1.305471 -2.91465,-2.915736 0,-1.60987 1.30527,-2.914945 2.91465,-2.914945 1.61036,0 2.91563,1.305075 2.91563,2.914945 0,1.610265 -1.30527,2.915736 -2.91563,2.915736 z m -7.88298,0 c -1.61037,0 -2.91465,-1.305471 -2.91465,-2.915736 0,-1.60987 1.30428,-2.914945 2.91465,-2.914945 1.61036,0 2.91464,1.305075 2.91464,2.914945 0,1.610265 -1.30428,2.915736 -2.91464,2.915736 z m -7.88397,0 c -1.60938,0 -2.91465,-1.305471 -2.91465,-2.915736 0,-1.60987 1.30527,-2.914945 2.91465,-2.914945 1.61036,0 2.91465,1.305075 2.91465,2.914945 0,1.610265 -1.30429,2.915736 -2.91465,2.915736 z m -7.88298,-5.830681 c 1.61036,0 2.91464,1.305075 2.91464,2.914945 0,1.610265 -1.30428,2.915736 -2.91464,2.915736 -1.61037,0 -2.91465,-1.305471 -2.91465,-2.915736 0,-1.60987 1.30428,-2.914945 2.91465,-2.914945 z m -7.883492,5.830681 c -1.61017,0 -2.91573,-1.305471 -2.91573,-2.915736 0,-1.60987 1.30556,-2.914945 2.91573,-2.914945 1.608892,0 2.915152,1.305075 2.915152,2.914945 0,1.610265 -1.30626,2.915736 -2.915152,2.915736 z m -7.88328,-6.479862 c 1.96769,0 3.56364,1.596343 3.56364,3.564126 0,1.968475 -1.59595,3.564818 -3.56364,3.564818 -1.96896,0 -3.56491,-1.596343 -3.56491,-3.564818 0,-1.967783 1.59595,-3.564126 3.56491,-3.564126 z M 83.4734,87.628376 c 2.173744,0 3.935858,1.761724 3.935858,3.935073 0,2.173349 -1.762114,3.935863 -3.935858,3.935863 -2.173349,0 -3.934678,-1.762514 -3.934678,-3.935863 0,-2.173349 1.761329,-3.935073 3.934678,-3.935073 z m -4.411764,3.935073 c 0,1.917626 -1.554776,3.472303 -3.471613,3.472303 -1.916836,0 -3.471908,-1.554677 -3.471908,-3.472303 0,-1.916836 1.555072,-3.471513 3.471908,-3.471513 1.916837,0 3.471613,1.554677 3.471613,3.471513 z m -11.35568,2.545086 c -1.405094,0 -2.544789,-1.139696 -2.544789,-2.545086 0,-1.404699 1.139695,-2.544394 2.544789,-2.544394 1.405785,0 2.54548,1.139695 2.54548,2.544394 0,1.40539 -1.139695,2.545086 -2.54548,2.545086 z M 59.82258,93.737884 c -1.20022,0 -2.17404,-0.97382 -2.17404,-2.174435 0,-1.200219 0.97382,-2.173744 2.17404,-2.173744 1.200219,0 2.174435,0.973525 2.174435,2.173744 0,1.200615 -0.974216,2.174435 -2.174435,2.174435 z m -4.6899,-2.174435 c 0,1.764094 -1.429679,3.194266 -3.193476,3.194266 -1.763304,0 -3.194168,-1.430172 -3.194168,-3.194266 0,-1.763303 1.430864,-3.193476 3.194168,-3.193476 1.763797,0 3.193476,1.430173 3.193476,3.193476 z M 28.287989,88.648504 c 1.609475,0 2.915044,1.305075 2.915044,2.914945 0,1.610265 -1.305569,2.915736 -2.915044,2.915736 -1.609771,0 -2.915736,-1.305471 -2.915736,-2.915736 0,-1.60987 1.305965,-2.914945 2.915736,-2.914945 z m -7.884068,5.830681 c -1.610265,0 -2.915735,-1.305471 -2.915735,-2.915736 0,-1.60987 1.30547,-2.914945 2.915735,-2.914945 1.610166,0 2.915736,1.305075 2.915736,2.914945 0,1.610265 -1.30557,2.915736 -2.915736,2.915736 z m -7.883376,0 c -1.610225,0 -2.9157558,-1.305471 -2.9157558,-2.915736 0,-1.60987 1.3055308,-2.914945 2.9157558,-2.914945 1.610265,0 2.915735,1.305075 2.915735,2.914945 0,1.610265 -1.30547,2.915736 -2.915735,2.915736 z m -7.8841268,0 c -1.609446,0 -2.9149849,-1.305471 -2.9149849,-2.915736 0,-1.60987 1.3055389,-2.914945 2.9149849,-2.914945 1.610225,0 2.91538,1.305075 2.91538,2.914945 0,1.610265 -1.305155,2.915736 -2.91538,2.915736 z M 138.65764,102.36375 c -1.60938,0 -2.91465,-1.30626 -2.91465,-2.916135 0,-1.60987 1.30527,-2.916229 2.91465,-2.916229 1.60937,0 2.91563,1.306359 2.91563,2.916229 0,1.609875 -1.30626,2.916135 -2.91563,2.916135 z m -7.88298,0 c -1.60938,0 -2.91465,-1.30626 -2.91465,-2.916135 0,-1.60987 1.30527,-2.916229 2.91465,-2.916229 1.61036,0 2.91563,1.306359 2.91563,2.916229 0,1.609875 -1.30527,2.916135 -2.91563,2.916135 z m -7.88298,0 c -1.61037,0 -2.91465,-1.30626 -2.91465,-2.916135 0,-1.60987 1.30428,-2.916229 2.91465,-2.916229 1.61036,0 2.91464,1.306359 2.91464,2.916229 0,1.609875 -1.30428,2.916135 -2.91464,2.916135 z m -7.88397,0 c -1.60938,0 -2.91465,-1.30626 -2.91465,-2.916135 0,-1.60987 1.30527,-2.916229 2.91465,-2.916229 1.61036,0 2.91465,1.306359 2.91465,2.916229 0,1.609875 -1.30429,2.916135 -2.91465,2.916135 z m -7.88298,-5.832364 c 1.61036,0 2.91464,1.306359 2.91464,2.916229 0,1.609875 -1.30428,2.916135 -2.91464,2.916135 -1.61037,0 -2.91465,-1.30626 -2.91465,-2.916135 0,-1.60987 1.30428,-2.916229 2.91465,-2.916229 z m -7.883492,5.832364 c -1.61017,0 -2.91573,-1.30626 -2.91573,-2.916135 0,-1.60987 1.30556,-2.916229 2.91573,-2.916229 1.608892,0 2.915152,1.306359 2.915152,2.916229 0,1.609875 -1.30626,2.916135 -2.915152,2.916135 z m -7.88328,-5.832364 c 1.60898,0 2.91574,1.306359 2.91574,2.916229 0,1.609875 -1.30676,2.916135 -2.91574,2.916135 -1.61026,0 -2.91652,-1.30626 -2.91652,-2.916135 0,-1.60987 1.30626,-2.916229 2.91652,-2.916229 z m -7.884558,0 c 1.610659,0 2.915738,1.306359 2.915738,2.916229 0,1.609875 -1.305079,2.916135 -2.915738,2.916135 -1.610166,0 -2.915341,-1.30626 -2.915341,-2.916135 0,-1.60987 1.305175,-2.916229 2.915341,-2.916229 z m -7.883377,6.572874 c -2.019816,0 -3.657035,-1.63702 -3.657035,-3.656645 0,-2.019816 1.637219,-3.65743 3.657035,-3.65743 2.019422,0 3.657431,1.637614 3.657431,3.65743 0,2.019625 -1.638009,3.656645 -3.657431,3.656645 z M 36.17176,96.531386 c 1.610265,0 2.91534,1.306359 2.91534,2.916229 0,1.609875 -1.305075,2.916135 -2.91534,2.916135 -1.61066,0 -2.915736,-1.30626 -2.915736,-2.916135 0,-1.60987 1.305076,-2.916229 2.915736,-2.916229 z m -7.883771,0 c 1.609475,0 2.915044,1.306359 2.915044,2.916229 0,1.609875 -1.305569,2.916135 -2.915044,2.916135 -1.609771,0 -2.915736,-1.30626 -2.915736,-2.916135 0,-1.60987 1.305965,-2.916229 2.915736,-2.916229 z m -7.884068,5.832364 c -1.610265,0 -2.915735,-1.30626 -2.915735,-2.916135 0,-1.60987 1.30547,-2.916229 2.915735,-2.916229 1.610166,0 2.915736,1.306359 2.915736,2.916229 0,1.609875 -1.30557,2.916135 -2.915736,2.916135 z m -7.883376,0 c -1.610225,0 -2.9157558,-1.30626 -2.9157558,-2.916135 0,-1.60987 1.3055308,-2.916229 2.9157558,-2.916229 1.610265,0 2.915735,1.306359 2.915735,2.916229 0,1.609875 -1.30547,2.916135 -2.915735,2.916135 z m -7.8841268,0 c -1.609446,0 -2.9149849,-1.30626 -2.9149849,-2.916135 0,-1.60987 1.3055389,-2.916229 2.9149849,-2.916229 1.610225,0 2.91538,1.306359 2.91538,2.916229 0,1.609875 -1.305155,2.916135 -2.91538,2.916135 z m 134.0212218,7.88298 c -1.60938,0 -2.91465,-1.30527 -2.91465,-2.91563 0,-1.61037 1.30527,-2.91564 2.91465,-2.91564 1.60937,0 2.91563,1.30527 2.91563,2.91564 0,1.61036 -1.30626,2.91563 -2.91563,2.91563 z m -7.88298,0 c -1.60938,0 -2.91465,-1.30527 -2.91465,-2.91563 0,-1.61037 1.30527,-2.91564 2.91465,-2.91564 1.61036,0 2.91563,1.30527 2.91563,2.91564 0,1.61036 -1.30527,2.91563 -2.91563,2.91563 z m -7.88298,0 c -1.61037,0 -2.91465,-1.30527 -2.91465,-2.91563 0,-1.61037 1.30428,-2.91564 2.91465,-2.91564 1.61036,0 2.91464,1.30527 2.91464,2.91564 0,1.61036 -1.30428,2.91563 -2.91464,2.91563 z m -7.88397,0 c -1.60938,0 -2.91465,-1.30527 -2.91465,-2.91563 0,-1.61037 1.30527,-2.91564 2.91465,-2.91564 1.61036,0 2.91465,1.30527 2.91465,2.91564 0,1.61036 -1.30429,2.91563 -2.91465,2.91563 z m -7.88298,-5.83127 c 1.61036,0 2.91464,1.30527 2.91464,2.91564 0,1.61036 -1.30428,2.91563 -2.91464,2.91563 -1.61037,0 -2.91465,-1.30527 -2.91465,-2.91563 0,-1.61037 1.30428,-2.91564 2.91465,-2.91564 z m -7.883492,5.83127 c -1.61017,0 -2.91573,-1.30527 -2.91573,-2.91563 0,-1.61037 1.30556,-2.91564 2.91573,-2.91564 1.608892,0 2.915152,1.30527 2.915152,2.91564 0,1.61036 -1.30626,2.91563 -2.915152,2.91563 z m -7.88328,-5.83127 c 1.60898,0 2.91574,1.30527 2.91574,2.91564 0,1.61036 -1.30676,2.91563 -2.91574,2.91563 -1.61026,0 -2.91652,-1.30527 -2.91652,-2.91563 0,-1.61037 1.30626,-2.91564 2.91652,-2.91564 z m -7.884558,0 c 1.610659,0 2.915738,1.30527 2.915738,2.91564 0,1.61036 -1.305079,2.91563 -2.915738,2.91563 -1.610166,0 -2.915341,-1.30527 -2.915341,-2.91563 0,-1.61037 1.305175,-2.91564 2.915341,-2.91564 z m -47.30164,0 c 1.610265,0 2.91534,1.30527 2.91534,2.91564 0,1.61036 -1.305075,2.91563 -2.91534,2.91563 -1.61066,0 -2.915736,-1.30527 -2.915736,-2.91563 0,-1.61037 1.305076,-2.91564 2.915736,-2.91564 z m -7.883771,0 c 1.609475,0 2.915044,1.30527 2.915044,2.91564 0,1.61036 -1.305569,2.91563 -2.915044,2.91563 -1.609771,0 -2.915736,-1.30527 -2.915736,-2.91563 0,-1.61037 1.305965,-2.91564 2.915736,-2.91564 z m -7.884068,5.83127 c -1.610265,0 -2.915735,-1.30527 -2.915735,-2.91563 0,-1.61037 1.30547,-2.91564 2.915735,-2.91564 1.610166,0 2.915736,1.30527 2.915736,2.91564 0,1.61036 -1.30557,2.91563 -2.915736,2.91563 z m -7.883376,0 c -1.610225,0 -2.9157558,-1.30527 -2.9157558,-2.91563 0,-1.61037 1.3055308,-2.91564 2.9157558,-2.91564 1.610265,0 2.915735,1.30527 2.915735,2.91564 0,1.61036 -1.30547,2.91563 -2.915735,2.91563 z m -7.8841268,0 c -1.609446,0 -2.9149849,-1.30527 -2.9149849,-2.91563 0,-1.61037 1.3055389,-2.91564 2.9149849,-2.91564 1.610225,0 2.91538,1.30527 2.91538,2.91564 0,1.61036 -1.305155,2.91563 -2.91538,2.91563 z M 138.65764,118.1307 c -1.60938,0 -2.91465,-1.30626 -2.91465,-2.91563 0,-1.61037 1.30527,-2.91564 2.91465,-2.91564 1.60937,0 2.91563,1.30527 2.91563,2.91564 0,1.60937 -1.30626,2.91563 -2.91563,2.91563 z m -7.88298,0 c -1.60938,0 -2.91465,-1.30626 -2.91465,-2.91563 0,-1.61037 1.30527,-2.91564 2.91465,-2.91564 1.61036,0 2.91563,1.30527 2.91563,2.91564 0,1.60937 -1.30527,2.91563 -2.91563,2.91563 z m -7.88298,0 c -1.61037,0 -2.91465,-1.30626 -2.91465,-2.91563 0,-1.61037 1.30428,-2.91564 2.91465,-2.91564 1.61036,0 2.91464,1.30527 2.91464,2.91564 0,1.60937 -1.30428,2.91563 -2.91464,2.91563 z m -7.88397,0 c -1.60938,0 -2.91465,-1.30626 -2.91465,-2.91563 0,-1.61037 1.30527,-2.91564 2.91465,-2.91564 1.61036,0 2.91465,1.30527 2.91465,2.91564 0,1.60937 -1.30429,2.91563 -2.91465,2.91563 z m -7.88298,-5.83127 c 1.61036,0 2.91464,1.30527 2.91464,2.91564 0,1.60937 -1.30428,2.91563 -2.91464,2.91563 -1.61037,0 -2.91465,-1.30626 -2.91465,-2.91563 0,-1.61037 1.30428,-2.91564 2.91465,-2.91564 z m -7.883492,5.83127 c -1.61017,0 -2.91573,-1.30626 -2.91573,-2.91563 0,-1.61037 1.30556,-2.91564 2.91573,-2.91564 1.608892,0 2.915152,1.30527 2.915152,2.91564 0,1.60937 -1.30626,2.91563 -2.915152,2.91563 z m -7.88328,-6.57376 c 2.01903,0 3.65743,1.63801 3.65743,3.65813 0,2.01912 -1.6384,3.65713 -3.65743,3.65713 -2.01981,0 -3.65822,-1.63801 -3.65822,-3.65713 0,-2.02012 1.63841,-3.65813 3.65822,-3.65813 z m -15.767935,0.13626 c 1.945075,0 3.521276,1.57679 3.521276,3.52187 0,1.94408 -1.576201,3.52088 -3.521276,3.52088 -1.94458,0 -3.521275,-1.5768 -3.521275,-3.52088 0,-1.94508 1.576695,-3.52187 3.521275,-3.52187 z m -7.884067,0.83332 c 1.484872,0 2.688942,1.20357 2.688942,2.68855 0,1.48497 -1.20407,2.68854 -2.688942,2.68854 -1.484082,0 -2.688251,-1.20357 -2.688251,-2.68854 0,-1.48498 1.204169,-2.68855 2.688251,-2.68855 z m -7.883376,0.30311 c 1.317121,0 2.385431,1.06831 2.385431,2.38544 0,1.31712 -1.06831,2.38543 -2.385431,2.38543 -1.317122,0 -2.385431,-1.06831 -2.385431,-2.38543 0,-1.31713 1.068309,-2.38544 2.385431,-2.38544 z m -31.534591,-0.5302 c 1.609475,0 2.915044,1.30527 2.915044,2.91564 0,1.60937 -1.305569,2.91563 -2.915044,2.91563 -1.609771,0 -2.915736,-1.30626 -2.915736,-2.91563 0,-1.61037 1.305965,-2.91564 2.915736,-2.91564 z m -7.884068,5.83127 c -1.610265,0 -2.915735,-1.30626 -2.915735,-2.91563 0,-1.61037 1.30547,-2.91564 2.915735,-2.91564 1.610166,0 2.915736,1.30527 2.915736,2.91564 0,1.60937 -1.30557,2.91563 -2.915736,2.91563 z m -7.883376,0 c -1.610225,0 -2.9157558,-1.30626 -2.9157558,-2.91563 0,-1.61037 1.3055308,-2.91564 2.9157558,-2.91564 1.610265,0 2.915735,1.30527 2.915735,2.91564 0,1.60937 -1.30547,2.91563 -2.915735,2.91563 z m -7.8841268,0 c -1.609446,0 -2.9149849,-1.30626 -2.9149849,-2.91563 0,-1.61037 1.3055389,-2.91564 2.9149849,-2.91564 1.610225,0 2.91538,1.30527 2.91538,2.91564 0,1.60937 -1.305155,2.91563 -2.91538,2.91563 z m 134.0212218,7.88298 c -1.60938,0 -2.91465,-1.30527 -2.91465,-2.91563 0,-1.60938 1.30527,-2.91465 2.91465,-2.91465 1.60937,0 2.91563,1.30527 2.91563,2.91465 0,1.61036 -1.30626,2.91563 -2.91563,2.91563 z m -7.88298,0 c -1.60938,0 -2.91465,-1.30527 -2.91465,-2.91563 0,-1.60938 1.30527,-2.91465 2.91465,-2.91465 1.61036,0 2.91563,1.30527 2.91563,2.91465 0,1.61036 -1.30527,2.91563 -2.91563,2.91563 z m -7.88298,0 c -1.61037,0 -2.91465,-1.30527 -2.91465,-2.91563 0,-1.60938 1.30428,-2.91465 2.91465,-2.91465 1.61036,0 2.91464,1.30527 2.91464,2.91465 0,1.61036 -1.30428,2.91563 -2.91464,2.91563 z m -7.88397,0 c -1.60938,0 -2.91465,-1.30527 -2.91465,-2.91563 0,-1.60938 1.30527,-2.91465 2.91465,-2.91465 1.61036,0 2.91465,1.30527 2.91465,2.91465 0,1.61036 -1.30429,2.91563 -2.91465,2.91563 z m -7.88298,0.37125 c -1.81475,0 -3.28491,-1.47214 -3.28491,-3.28688 0,-1.81376 1.47016,-3.2859 3.28491,-3.2859 1.81474,0 3.28589,1.47214 3.28589,3.2859 0,1.81474 -1.47115,3.28688 -3.28589,3.28688 z m -7.883492,-7.22146 c 2.173662,0 3.935082,1.76241 3.935082,3.93458 0,2.17414 -1.76142,3.93556 -3.935082,3.93556 -2.17325,0 -3.93468,-1.76142 -3.93468,-3.93556 0,-2.17217 1.76143,-3.93458 3.93468,-3.93458 z m -7.88328,0.27843 c 2.01903,0 3.65625,1.63702 3.65625,3.65615 0,2.02011 -1.63722,3.65812 -3.65625,3.65812 -2.01981,0 -3.65703,-1.63801 -3.65703,-3.65812 0,-2.01913 1.63722,-3.65615 3.65703,-3.65615 z m -7.884558,1.01993 c 1.457127,0 2.638488,1.18087 2.638488,2.63622 0,1.45732 -1.181361,2.63819 -2.638488,2.63819 -1.455548,0 -2.636909,-1.18087 -2.636909,-2.63819 0,-1.45535 1.181361,-2.63622 2.636909,-2.63622 z m -7.883377,0.85702 c 0.982707,0 1.7792,0.79679 1.7792,1.7792 0,0.98339 -0.796493,1.78018 -1.7792,1.78018 -0.982311,0 -1.779496,-0.79679 -1.779496,-1.78018 0,-0.98241 0.797185,-1.7792 1.779496,-1.7792 z m -7.884067,3.48336 c -0.94035,0 -1.703569,-0.76322 -1.703569,-1.70416 0,-0.93996 0.763219,-1.70318 1.703569,-1.70318 0.941041,0 1.703964,0.76322 1.703964,1.70318 0,0.94094 -0.762923,1.70416 -1.703964,1.70416 z m -7.883376,-3.55939 c 1.025163,0 1.855127,0.83135 1.855127,1.85523 0,1.02486 -0.829964,1.85621 -1.855127,1.85621 -1.023978,0 -1.855127,-0.83135 -1.855127,-1.85621 0,-1.02388 0.831149,-1.85523 1.855127,-1.85523 z m -7.883376,-0.30311 c 1.191827,0 2.157946,0.96661 2.157946,2.15834 0,1.19172 -0.966119,2.15834 -2.157946,2.15834 -1.191729,0 -2.159033,-0.96662 -2.159033,-2.15834 0,-1.19173 0.967304,-2.15834 2.159033,-2.15834 z M 28.287989,120.1834 c 1.609475,0 2.915044,1.30527 2.915044,2.91465 0,1.61036 -1.305569,2.91563 -2.915044,2.91563 -1.609771,0 -2.915736,-1.30527 -2.915736,-2.91563 0,-1.60938 1.305965,-2.91465 2.915736,-2.91465 z m -7.884068,5.83028 c -1.610265,0 -2.915735,-1.30527 -2.915735,-2.91563 0,-1.60938 1.30547,-2.91465 2.915735,-2.91465 1.610166,0 2.915736,1.30527 2.915736,2.91465 0,1.61036 -1.30557,2.91563 -2.915736,2.91563 z m -7.883376,0 c -1.610225,0 -2.9157558,-1.30527 -2.9157558,-2.91563 0,-1.60938 1.3055308,-2.91465 2.9157558,-2.91465 1.610265,0 2.915735,1.30527 2.915735,2.91465 0,1.61036 -1.30547,2.91563 -2.915735,2.91563 z m -7.8841268,0 c -1.609446,0 -2.9149849,-1.30527 -2.9149849,-2.91563 0,-1.60938 1.3055389,-2.91465 2.9149849,-2.91465 1.610225,0 2.91538,1.30527 2.91538,2.91465 0,1.61036 -1.305155,2.91563 -2.91538,2.91563 z m 134.0212218,7.88397 c -1.60938,0 -2.91465,-1.30527 -2.91465,-2.91563 0,-1.60938 1.30527,-2.91564 2.91465,-2.91564 1.60937,0 2.91563,1.30626 2.91563,2.91564 0,1.61036 -1.30626,2.91563 -2.91563,2.91563 z m -7.88298,0 c -1.60938,0 -2.91465,-1.30527 -2.91465,-2.91563 0,-1.60938 1.30527,-2.91564 2.91465,-2.91564 1.61036,0 2.91563,1.30626 2.91563,2.91564 0,1.61036 -1.30527,2.91563 -2.91563,2.91563 z m -7.88298,0 c -1.61037,0 -2.91465,-1.30527 -2.91465,-2.91563 0,-1.60938 1.30428,-2.91564 2.91465,-2.91564 1.61036,0 2.91464,1.30626 2.91464,2.91564 0,1.61036 -1.30428,2.91563 -2.91464,2.91563 z m -7.88397,0 c -1.60938,0 -2.91465,-1.30527 -2.91465,-2.91563 0,-1.60938 1.30527,-2.91564 2.91465,-2.91564 1.61036,0 2.91465,1.30626 2.91465,2.91564 0,1.61036 -1.30429,2.91563 -2.91465,2.91563 z m -7.88298,-7.03682 c 2.27583,0 4.1202,1.84535 4.1202,4.12119 0,2.27682 -1.84437,4.12217 -4.1202,4.12217 -2.27683,0 -4.12021,-1.84535 -4.12021,-4.12217 0,-2.27584 1.84338,-4.12119 4.12021,-4.12119 z m -7.883492,0.64967 c 1.916952,0 3.471032,1.55409 3.471032,3.47152 0,1.91742 -1.55408,3.4725 -3.471032,3.4725 -1.91792,0 -3.4723,-1.55508 -3.4723,-3.4725 0,-1.91743 1.55438,-3.47152 3.4723,-3.47152 z m -7.88328,1.483 c 1.09843,0 1.98734,0.89058 1.98734,1.98852 0,1.09891 -0.88891,1.9895 -1.98734,1.9895 -1.09921,0 -1.98822,-0.89059 -1.98822,-1.9895 0,-1.09794 0.88901,-1.98852 1.98822,-1.98852 z m -7.884558,0.18562 c 0.996233,0 1.803488,0.80765 1.803488,1.8029 0,0.99524 -0.807255,1.80289 -1.803488,1.80289 -0.994654,0 -1.803094,-0.80765 -1.803094,-1.80289 0,-0.99525 0.80844,-1.8029 1.803094,-1.8029 z m -7.883377,0.0997 c 0.941535,0 1.703965,0.76322 1.703965,1.70318 0,0.94094 -0.76243,1.70416 -1.703965,1.70416 -0.94104,0 -1.703569,-0.76322 -1.703569,-1.70416 0,-0.93996 0.762529,-1.70318 1.703569,-1.70318 z m -7.884067,-0.076 c 0.983497,0 1.779891,0.79678 1.779891,1.7792 0,0.98241 -0.796394,1.77919 -1.779891,1.77919 -0.982312,0 -1.7792,-0.79678 -1.7792,-1.77919 0,-0.98242 0.796888,-1.7792 1.7792,-1.7792 z m -7.883376,-0.076 c 1.025163,0 1.855127,0.83135 1.855127,1.85523 0,1.02486 -0.829964,1.85522 -1.855127,1.85522 -1.023978,0 -1.855127,-0.83036 -1.855127,-1.85522 0,-1.02388 0.831149,-1.85523 1.855127,-1.85523 z m -7.883376,0 c 1.023977,0 1.855126,0.83135 1.855126,1.85523 0,1.02486 -0.831149,1.85522 -1.855126,1.85522 -1.025163,0 -1.855127,-0.83036 -1.855127,-1.85522 0,-1.02388 0.829964,-1.85523 1.855127,-1.85523 z m -7.884068,-1.74168 c 1.987037,0 3.597203,1.61036 3.597203,3.59691 0,1.98753 -1.610166,3.59789 -3.597203,3.59789 -1.986247,0 -3.597696,-1.61036 -3.597696,-3.59789 0,-1.98655 1.611449,-3.59691 3.597696,-3.59691 z m -8.380111,-0.42061 c -1.91881,-0.24486 -3.403682,-1.87991 -3.403682,-3.86645 0,-2.15341 1.74642,-3.90003 3.900417,-3.90003 2.153602,0 3.900022,1.74662 3.900022,3.90003 0,1.98654 -1.484872,3.62159 -3.403683,3.86645 2.002834,0.24486 3.554846,1.94803 3.554846,4.01752 0,2.23831 -1.814646,4.05207 -4.051185,4.05207 -2.238119,0 -4.05158,-1.81376 -4.05158,-4.05207 0,-2.06949 1.552307,-3.77266 3.554845,-4.01752 z m -7.387036,1.10188 c 1.609475,0 2.915044,1.30626 2.915044,2.91564 0,1.61036 -1.305569,2.91563 -2.915044,2.91563 -1.609771,0 -2.915736,-1.30527 -2.915736,-2.91563 0,-1.60938 1.305965,-2.91564 2.915736,-2.91564 z m -7.884068,5.83127 c -1.610265,0 -2.915735,-1.30527 -2.915735,-2.91563 0,-1.60938 1.30547,-2.91564 2.915735,-2.91564 1.610166,0 2.915736,1.30626 2.915736,2.91564 0,1.61036 -1.30557,2.91563 -2.915736,2.91563 z m -7.883376,0 c -1.610225,0 -2.9157558,-1.30527 -2.9157558,-2.91563 0,-1.60938 1.3055308,-2.91564 2.9157558,-2.91564 1.610265,0 2.915735,1.30626 2.915735,2.91564 0,1.61036 -1.30547,2.91563 -2.915735,2.91563 z m -7.8841268,0 c -1.609446,0 -2.9149849,-1.30527 -2.9149849,-2.91563 0,-1.60938 1.3055389,-2.91564 2.9149849,-2.91564 1.610225,0 2.91538,1.30626 2.91538,2.91564 0,1.61036 -1.305155,2.91563 -2.91538,2.91563 z m 134.0212218,2.0527 c 1.60937,0 2.91563,1.30527 2.91563,2.91563 0,1.61037 -1.30626,2.91564 -2.91563,2.91564 -1.60938,0 -2.91465,-1.30527 -2.91465,-2.91564 0,-1.61036 1.30527,-2.91563 2.91465,-2.91563 z m -7.88298,5.83127 c -1.60938,0 -2.91465,-1.30527 -2.91465,-2.91564 0,-1.61036 1.30527,-2.91563 2.91465,-2.91563 1.61036,0 2.91563,1.30527 2.91563,2.91563 0,1.61037 -1.30527,2.91564 -2.91563,2.91564 z m -7.88298,0 c -1.61037,0 -2.91465,-1.30527 -2.91465,-2.91564 0,-1.61036 1.30428,-2.91563 2.91465,-2.91563 1.61036,0 2.91464,1.30527 2.91464,2.91563 0,1.61037 -1.30428,2.91564 -2.91464,2.91564 z m -7.88397,-6.01689 c 1.71403,0 3.10125,1.38821 3.10125,3.10125 0,1.71305 -1.38722,3.10225 -3.10125,3.10225 -1.71206,0 -3.10027,-1.3892 -3.10027,-3.10225 0,-1.71304 1.38821,-3.10125 3.10027,-3.10125 z m -7.88298,-0.18563 c 1.81474,0 3.28589,1.47214 3.28589,3.28688 0,1.81475 -1.47115,3.28688 -3.28589,3.28688 -1.81475,0 -3.2859,-1.47213 -3.2859,-3.28688 0,-1.81474 1.47115,-3.28688 3.2859,-3.28688 z m -7.883492,0.64968 c 1.455852,0 2.636722,1.18087 2.636722,2.6372 0,1.45634 -1.18087,2.63721 -2.636722,2.63721 -1.45703,0 -2.6373,-1.18087 -2.6373,-2.63721 0,-1.45633 1.18027,-2.6372 2.6373,-2.6372 z m -7.88328,0.83431 c 0.99505,0 1.803,0.80765 1.803,1.80289 0,0.99525 -0.80795,1.8029 -1.803,1.8029 -0.99584,0 -1.80428,-0.80765 -1.80428,-1.8029 0,-0.99524 0.80844,-1.80289 1.80428,-1.80289 z m -7.884558,0 c 0.996233,0 1.803488,0.80765 1.803488,1.80289 0,0.99525 -0.807255,1.8029 -1.803488,1.8029 -0.994654,0 -1.803094,-0.80765 -1.803094,-1.8029 0,-0.99524 0.80844,-1.80289 1.803094,-1.80289 z m -7.883377,0.0997 c 0.941535,0 1.703965,0.76223 1.703965,1.70317 0,0.94095 -0.76243,1.70417 -1.703965,1.70417 -0.94104,0 -1.703569,-0.76322 -1.703569,-1.70417 0,-0.94094 0.762529,-1.70317 1.703569,-1.70317 z m -7.884067,-0.076 c 0.983497,0 1.779891,0.79679 1.779891,1.7792 0,0.98241 -0.796394,1.7792 -1.779891,1.7792 -0.982312,0 -1.7792,-0.79679 -1.7792,-1.7792 0,-0.98241 0.796888,-1.7792 1.7792,-1.7792 z m -7.883376,-0.076 c 1.025163,0 1.855127,0.83036 1.855127,1.85522 0,1.02487 -0.829964,1.85523 -1.855127,1.85523 -1.023978,0 -1.855127,-0.83036 -1.855127,-1.85523 0,-1.02486 0.831149,-1.85522 1.855127,-1.85522 z m -7.883376,-0.65659 c 1.386531,0 2.512009,1.12459 2.512009,2.51181 0,1.38723 -1.125478,2.51182 -2.512009,2.51182 -1.387224,0 -2.512701,-1.12459 -2.512701,-2.51182 0,-1.38722 1.125477,-2.51181 2.512701,-2.51181 z m -7.884068,-0.79777 c 1.827679,0 3.309885,1.482 3.309885,3.30958 0,1.82758 -1.482206,3.31058 -3.309885,3.31058 -1.827382,0 -3.310378,-1.483 -3.310378,-3.31058 0,-1.82758 1.482996,-3.30958 3.310378,-3.30958 z m -7.883376,-0.0681 c 1.865593,0 3.377419,1.51261 3.377419,3.37771 0,1.8651 -1.511826,3.37772 -3.377419,3.37772 -1.865889,0 -3.377814,-1.51262 -3.377814,-3.37772 0,-1.8651 1.511925,-3.37771 3.377814,-3.37771 z m -7.883771,0.46208 c 1.609475,0 2.915044,1.30527 2.915044,2.91563 0,1.61037 -1.305569,2.91564 -2.915044,2.91564 -1.609771,0 -2.915736,-1.30527 -2.915736,-2.91564 0,-1.61036 1.305965,-2.91563 2.915736,-2.91563 z m -7.884068,5.83127 c -1.610265,0 -2.915735,-1.30527 -2.915735,-2.91564 0,-1.61036 1.30547,-2.91563 2.915735,-2.91563 1.610166,0 2.915736,1.30527 2.915736,2.91563 0,1.61037 -1.30557,2.91564 -2.915736,2.91564 z m -7.883376,0 c -1.610225,0 -2.9157558,-1.30527 -2.9157558,-2.91564 0,-1.61036 1.3055308,-2.91563 2.9157558,-2.91563 1.610265,0 2.915735,1.30527 2.915735,2.91563 0,1.61037 -1.30547,2.91564 -2.915735,2.91564 z m -7.8841268,0 c -1.609446,0 -2.9149849,-1.30527 -2.9149849,-2.91564 0,-1.61036 1.3055389,-2.91563 2.9149849,-2.91563 1.610225,0 2.91538,1.30527 2.91538,2.91563 0,1.61037 -1.305155,2.91564 -2.91538,2.91564"
         style="fill:#007c79;fill-opacity:1;fill-rule:nonzero;stroke:none;stroke-width:0.1"
         id="path4233"
         inkscape:connector-curvature="0" />
      <path
         d="m 87.859748,115.84068 c 0,-2.376 -1.927,-4.303 -4.3039,-4.303 -2.3758,0 -4.3028,1.927 -4.3028,4.303 0,2.376 1.927,4.302 4.3028,4.302 2.3769,0 4.3039,-1.926 4.3039,-4.302"
         style="fill:#c4122d;fill-opacity:1;fill-rule:nonzero;stroke:none;stroke-width:0.1"
         id="path4235"
         inkscape:connector-curvature="0" />
    </g>
  </g>
</svg>
